<?xml version="1.0" encoding="utf-8"?>
<!-- Generator: Adobe Illustrator 16.0.0, SVG Export Plug-In . SVG Version: 6.00 Build 0)  -->
<!DOCTYPE svg PUBLIC "-//W3C//DTD SVG 1.1//EN" "http://www.w3.org/Graphics/SVG/1.1/DTD/svg11.dtd">
<svg version="1.1" id="Layer_1" xmlns="http://www.w3.org/2000/svg" xmlns:xlink="http://www.w3.org/1999/xlink" x="0px" y="0px"
	 width="245px" height="320px" viewBox="0 0 245 320" enable-background="new 0 0 245 320" xml:space="preserve">
<g opacity="0.2">
	<g>
		<g>
			<defs>
				<polygon id="SVGID_1_" points="0,213.127 200.332,217.462 203.258,4.344 2.928,0 				"/>
			</defs>
			<clipPath id="SVGID_2_">
				<use xlink:href="#SVGID_1_"  overflow="visible"/>
			</clipPath>
			<g clip-path="url(#SVGID_2_)">
				<path fill="#548555" d="M36.083,176.469c-2.695-1.125-5.194-3.141-7.047-5.891c-4.421-6.569-3.276-15.699-5.366-22.981
					c-4.347-15.082-8.702-30.156-13.028-45.263C6.677,88.533,2.691,74.58,2.193,60.29C1.712,45.985,5.039,31.106,14.365,20.13
					C23.708,9.075,38.276,3.008,52.976,1.609c14.701-1.395,29.565,1.531,43.646,6.047c39.106,12.583,73.934,38.181,96.139,71.931
					c4.763,7.268,9.08,15.291,9.123,23.865c0.061,8.569-5.418,17.68-14.129,19.23c-15.936,2.853-28.472-19.449-44.33-16.184
					c14.266,13.071,27.002,27.688,37.924,43.478c5.547,8.016,10.741,16.7,11.592,26.245c0.822,9.588-3.921,20.177-13.199,23.42
					c-8.626,3.048-18.468-1.066-25.171-7.224c-6.725-6.151-11.274-14.132-16.916-21.245c-8.229-10.352-18.909-18.86-31.004-24.681
					c6.131,12.614,10.048,26.203,11.573,40.036c0.706,6.578,0.839,13.521-2.081,19.465c-2.953,5.938-9.759,10.516-16.42,9.071
					c-5.3-1.149-9.137-5.57-12.021-10.048c-11.782-18.157-16.057-42.165-34.453-54.086c0.833,6.394,1.603,13.183-1.119,19.02
					C48.741,177.182,41.935,178.907,36.083,176.469"/>
			</g>
		</g>
	</g>
</g>
<g opacity="0.2">
	<path fill="#FFFFFF" d="M34.536,96.015c1.234-4.052,1.366-8.711-0.96-12.325c-2.301-3.605-7.614-5.586-11.308-3.347
		c-1.372,3.633-0.674,7.933,1.746,11.043C26.434,94.495,30.544,96.303,34.536,96.015"/>
</g>
<g opacity="0.2">
	<path fill="#FFFFFF" d="M70.558,88.088c3.771-7.003,0.785-16.749-6.33-20.699c-2.184-1.194-4.631-1.887-7.056-2.578
		c-0.877-0.262-1.805-0.5-2.661-0.258c-0.838,0.238-1.457,0.894-1.918,1.571c-2.687,3.921-1.312,9.319,1.11,13.452
		c2.815,4.746,7.18,8.965,12.667,10.25c0.94,0.216,1.994,0.328,2.828-0.136C69.81,89.326,70.226,88.717,70.558,88.088"/>
</g>
<g opacity="0.2">
	<g>
		<g>
			<defs>
				<polygon id="SVGID_3_" points="176.906,318.551 243.895,320 245,239.139 178.006,237.686 				"/>
			</defs>
			<clipPath id="SVGID_4_">
				<use xlink:href="#SVGID_3_"  overflow="visible"/>
			</clipPath>
			<g clip-path="url(#SVGID_4_)">
				<path fill="#548555" d="M229.526,286.155c-1.204-1.165-2.355-1.539-3.367,0.105c-1.749,2.91,0.938,9.099,1.347,12.188
					c0.731,5.456,1.397,11.06-0.417,16.371c-2.533,7.387-8.996,5.048-12.848,0.105c-3.346-4.319-4.906-9.817-6.776-14.828
					c-2.507-6.691-5.538-0.016-6.006,3.156c-0.345,2.328-1.109,4.547-2.201,6.613c-0.577,1.063-1.355,2.16-2.504,2.604
					c-7.876,3.044-7.489-14.952-7.266-18.613c0.103-1.706,1.074-5.726-0.801-6.945c-3.181-2.055-3.771,2.844-6.75,2.449
					c-11.304-1.562,1.723-30.31,4.772-35.498c6.382-10.756,17.405-19.102,30.647-13.944c7.754,3.051,13.428,9.684,17.604,16.72
					c4.214,7.175,7.228,15.035,8.835,23.129c0.628,3.082,1.02,6.387-0.245,9.242c-1.281,2.87-4.763,5.013-7.773,3.856
					C233.702,292.046,231.538,288.062,229.526,286.155"/>
			</g>
		</g>
	</g>
</g>
<g opacity="0.2">
	<path fill="#FFFFFF" d="M194.888,257.92c-0.452,1.341-0.091,3.184,1.324,3.556c0.902,0.238,1.892-0.305,2.356-1.11
		c0.481-0.77,0.567-1.737,0.49-2.644c-0.029-0.438-0.104-0.903-0.354-1.266c-0.481-0.695-1.562-0.82-2.312-0.453
		C195.636,256.382,195.141,257.139,194.888,257.92"/>
</g>
<g opacity="0.2">
	<path fill="#FFFFFF" d="M209.967,257.866c-0.723,1.581-0.25,3.562,1.101,4.699c0.851,0.824,2.46,0.249,2.966-0.781
		c0.491-1.07,0.225-2.302-0.162-3.419c-0.314-0.828-0.817-1.754-1.72-1.918C211.225,256.245,210.336,257.018,209.967,257.866"/>
</g>
</svg>
