<?xml version="1.0" encoding="utf-8"?>
<!-- Generator: Adobe Illustrator 16.0.0, SVG Export Plug-In . SVG Version: 6.00 Build 0)  -->
<!DOCTYPE svg PUBLIC "-//W3C//DTD SVG 1.1//EN" "http://www.w3.org/Graphics/SVG/1.1/DTD/svg11.dtd">
<svg version="1.1" id="Layer_1" xmlns="http://www.w3.org/2000/svg" xmlns:xlink="http://www.w3.org/1999/xlink" x="0px" y="0px"
	 width="60px" height="31px" viewBox="0 0 60 31" enable-background="new 0 0 60 31" xml:space="preserve">
<g opacity="0.5">
	<g>
		<defs>
			<rect id="SVGID_1_" width="60" height="31"/>
		</defs>
		<clipPath id="SVGID_2_">
			<use xlink:href="#SVGID_1_"  overflow="visible"/>
		</clipPath>
		<path clip-path="url(#SVGID_2_)" fill="#FFFFFF" d="M6.464,30.338c3.452-0.269,6.727-1.299,10.204-1.431
			c4.032-0.153,8.06,0.258,12.059,0.734c7.993,0.954,16.153,2.298,24.119,0.395c1.913-0.458,3.864-1.079,5.329-2.427
			c1.465-1.347,2.306-3.594,1.532-5.448c-1.467-3.512-6.387-3.606-9.316-2.81c0.007-1.438,0.16-2.931-0.334-4.324
			c-0.783-2.207-3.037-3.658-5.316-3.803c-2.325-0.148-4.399,0.914-6.227,2.271c-0.332-2.573,0.269-4.549-0.992-7.129
			c-1.084-2.22-2.831-4.114-5.003-5.223c-4.223-2.154-9.745-1.197-13.047,2.263c-2.785,2.916-3.842,6.88-2.665,10.768
			c-1.496-0.386-3.095-0.105-4.522,0.489c-1.167,0.485-2.277,1.201-3.015,2.251c-0.738,1.049-1.053,2.465-0.603,3.672
			c-1.78-0.567-4.707,0.716-6.239,1.684c-2.051,1.296-3.272,3.85-1.737,6.076C1.891,30.089,4.532,30.489,6.464,30.338"/>
	</g>
</g>
<g opacity="0.5">
	<g>
		<defs>
			<rect id="SVGID_3_" x="23.442" y="4.926" width="10.713" height="12.085"/>
		</defs>
		<clipPath id="SVGID_4_">
			<use xlink:href="#SVGID_3_"  overflow="visible"/>
		</clipPath>
		<path clip-path="url(#SVGID_4_)" fill="#FFFFFF" d="M25.496,15.786c1.957,1.785,5.271,1.579,7.11-0.338
			c1.839-1.915,2.049-5.197,0.59-7.434c-1.152-1.774-2.833-3.232-4.942-3.078C23.075,5.315,21.953,12.552,25.496,15.786"/>
	</g>
</g>
<path fill="#C47062" d="M28.8,7.888c0,0,0.224,0.359,0.385,0.897c0.17,0.537,0.293,1.254,0.295,1.971
	c0.003,0.72-0.107,1.436-0.282,1.974c-0.164,0.537-0.397,0.896-0.397,0.896s-0.233-0.358-0.397-0.896
	c-0.175-0.538-0.284-1.254-0.282-1.974c0.002-0.717,0.125-1.434,0.294-1.971C28.576,8.248,28.8,7.888,28.8,7.888"/>
</svg>
