<?xml version="1.0" encoding="utf-8"?>
<!-- Generator: Adobe Illustrator 16.0.0, SVG Export Plug-In . SVG Version: 6.00 Build 0)  -->
<!DOCTYPE svg PUBLIC "-//W3C//DTD SVG 1.1//EN" "http://www.w3.org/Graphics/SVG/1.1/DTD/svg11.dtd">
<svg version="1.1" id="Layer_1" xmlns="http://www.w3.org/2000/svg" xmlns:xlink="http://www.w3.org/1999/xlink" x="0px" y="0px"
	 width="74px" height="40px" viewBox="0 0 74 40" enable-background="new 0 0 74 40" xml:space="preserve">
<g>
	<g opacity="0.5">
		<g>
			<g>
				<defs>
					<rect id="SVGID_1_" width="74" height="40"/>
				</defs>
				<clipPath id="SVGID_2_">
					<use xlink:href="#SVGID_1_"  overflow="visible"/>
				</clipPath>
				<path clip-path="url(#SVGID_2_)" fill="#FFFFFF" d="M3.208,29.952c-1.231,0.85-2.278,1.963-2.858,3.326
					c-0.892,2.102-0.404,4.492,1.448,5.873c2.478,1.837,5.872,0.729,8.515-0.104c8.533-2.688,17.608-3.655,26.52-2.829
					c9.838,0.915,19.58,3.988,29.411,2.991c2.021-0.204,4.108-0.616,5.717-1.853c5.065-3.891,0.03-8.006-4.322-8.636
					c-2.526-0.363-5.306,0.064-7.831,0.36c0.996-1.888,0.788-4.318-0.713-5.962c-1.446-1.581-4.632-1.872-6.787-1.625
					c-0.397,0.049-3.323,0.299-3.354,0.49c0.309-1.93,0.979-3.742,1.017-5.742c0.033-1.966-0.245-3.947-0.862-5.84
					c-1.21-3.721-3.803-7.147-7.755-9.025C36.449-0.956,30.432-0.46,25.649,1.861c-2.415,1.17-4.553,2.804-6.134,4.789
					c-1.791,2.247-2.579,5.102-2.443,7.841c0.14,2.771,1.335,5.282,2.275,7.89c-2.04-1.015-4.614-1.304-6.533-0.076
					c-1.917,1.225-2.617,4.268-0.966,5.833C9.38,27.53,6.719,28.03,4.463,29.199C4.033,29.42,3.61,29.672,3.208,29.952"/>
			</g>
		</g>
	</g>
	<g opacity="0.5">
		<g>
			<g>
				<defs>
					<rect id="SVGID_3_" x="26.819" y="6.187" width="13.24" height="14.461"/>
				</defs>
				<clipPath id="SVGID_4_">
					<use xlink:href="#SVGID_3_"  overflow="visible"/>
				</clipPath>
				<path clip-path="url(#SVGID_4_)" fill="#FFFFFF" d="M29.355,19.178c2.419,2.139,6.517,1.891,8.789-0.403
					c2.272-2.291,2.53-6.218,0.729-8.895c-1.426-2.122-3.501-3.863-6.108-3.68C26.364,6.653,24.978,15.31,29.355,19.178"/>
			</g>
		</g>
	</g>
	<path fill="#C47062" d="M33.44,9.729c0,0,0.292,0.431,0.502,1.074c0.221,0.643,0.385,1.501,0.386,2.358
		c0.018,0.859-0.144,1.716-0.37,2.36c-0.213,0.644-0.518,1.072-0.518,1.072s-0.306-0.429-0.518-1.072
		c-0.227-0.644-0.388-1.503-0.371-2.36c0.001-0.859,0.167-1.715,0.387-2.358C33.146,10.16,33.44,9.729,33.44,9.729"/>
</g>
</svg>
