<?xml version="1.0" encoding="utf-8"?>
<!-- Generator: Adobe Illustrator 16.0.0, SVG Export Plug-In . SVG Version: 6.00 Build 0)  -->
<!DOCTYPE svg PUBLIC "-//W3C//DTD SVG 1.1//EN" "http://www.w3.org/Graphics/SVG/1.1/DTD/svg11.dtd">
<svg version="1.1" id="Layer_1" xmlns="http://www.w3.org/2000/svg" xmlns:xlink="http://www.w3.org/1999/xlink" x="0px" y="0px"
	 width="80px" height="116.34px" viewBox="0 0 80 116.34" enable-background="new 0 0 80 116.34" xml:space="preserve">
<g>
	<g opacity="0.5">
		<g>
			<g>
				<defs>
					<rect id="SVGID_1_" x="0.03" width="80" height="40"/>
				</defs>
				<clipPath id="SVGID_2_">
					<use xlink:href="#SVGID_1_"  overflow="visible"/>
				</clipPath>
				<path clip-path="url(#SVGID_2_)" fill="#FFFFFF" d="M57.984,37.845c5.24,0.521,10.399,1.154,15.722,0.69
					c2.669-0.23,5.905-1.275,6.285-3.886c0.461-3.163-3.345-5.325-6-5.741c-2.001-0.313-4.046-0.081-6.058,0.153
					c1.041-3.553,1.116-6.85-2.664-8.999c-2.828-1.608-6.272-1.613-9.537-1.574c0.871-6.572-2.953-13.414-8.924-16.476
					c-5.336-2.738-11.48-2.532-16.991-0.296c-3.633,1.474-6.881,4.068-8.64,7.528c-1.827,3.589-1.649,7.509,0.049,11.072
					c-2.456,0.505-5.347,0.427-7.465,1.92c-1.781,1.258-2.939,3.335-3.057,5.489c0.023-0.406-3.727,0.098-4.058,0.186
					c-1.495,0.393-2.904,1.133-4.063,2.142c-2.018,1.756-3.388,4.683-1.973,7.212c2.481,4.433,10.647,2.248,14.607,1.803
					c6.723-0.759,13.436-1.7,20.206-1.944c6.424-0.231,12.861-0.091,19.27,0.421C55.794,37.632,56.893,37.737,57.984,37.845"/>
			</g>
		</g>
	</g>
	<g opacity="0.5">
		<g>
			<g>
				<defs>
					<rect id="SVGID_3_" x="27.143" y="5.02" width="17.55" height="17.274"/>
				</defs>
				<clipPath id="SVGID_4_">
					<use xlink:href="#SVGID_3_"  overflow="visible"/>
				</clipPath>
				<path clip-path="url(#SVGID_4_)" fill="#FFFFFF" d="M36.397,22.281c1.161-0.065,2.306-0.358,3.352-0.858
					c1.511-0.723,2.804-1.884,3.674-3.297c0.623-1.01,1.032-2.146,1.194-3.317c0.486-3.506-1.459-7.215-4.649-8.852
					C36.78,4.32,32.576,4.873,29.934,7.273s-3.534,6.483-2.131,9.741C29.206,20.274,32.807,22.48,36.397,22.281"/>
			</g>
		</g>
	</g>
	<path fill="#C47062" d="M35.916,8.683c0,0,0.117,0.155,0.27,0.425c0.156,0.27,0.343,0.657,0.521,1.12
		c0.35,0.926,0.591,2.162,0.597,3.398c0.015,1.235-0.211,2.471-0.571,3.398c-0.18,0.463-0.374,0.849-0.537,1.12
		c-0.156,0.27-0.28,0.424-0.28,0.424s-0.125-0.154-0.281-0.424c-0.162-0.271-0.357-0.657-0.537-1.12
		c-0.359-0.927-0.586-2.163-0.57-3.398c0.005-1.236,0.246-2.472,0.597-3.398c0.177-0.463,0.365-0.85,0.521-1.12
		C35.798,8.837,35.916,8.683,35.916,8.683"/>
</g>
<g>
	<g opacity="0.5">
		<g>
			<g>
				<defs>
					<rect id="SVGID_5_" x="0.04" y="44.17" width="60" height="31"/>
				</defs>
				<clipPath id="SVGID_6_">
					<use xlink:href="#SVGID_5_"  overflow="visible"/>
				</clipPath>
				<path clip-path="url(#SVGID_6_)" fill="#FFFFFF" d="M6.504,74.508c3.452-0.268,6.727-1.299,10.204-1.43
					c4.032-0.154,8.06,0.258,12.059,0.733c7.993,0.953,16.154,2.297,24.119,0.396c1.914-0.459,3.865-1.08,5.33-2.429
					c1.466-1.346,2.306-3.594,1.531-5.448c-1.468-3.512-6.388-3.605-9.315-2.81c0.008-1.438,0.159-2.931-0.334-4.324
					c-0.783-2.207-3.037-3.658-5.316-3.803c-2.324-0.148-4.399,0.914-6.226,2.271c-0.332-2.573,0.269-4.549-0.992-7.129
					c-1.084-2.221-2.831-4.114-5.003-5.223c-4.223-2.154-9.745-1.197-13.047,2.263c-2.785,2.916-3.842,6.88-2.665,10.768
					c-1.496-0.386-3.095-0.105-4.522,0.489c-1.167,0.485-2.277,1.201-3.015,2.252c-0.738,1.049-1.053,2.465-0.603,3.672
					C6.927,64.19,4,65.473,2.468,66.441c-2.051,1.296-3.272,3.851-1.737,6.077C1.931,74.26,4.572,74.659,6.504,74.508"/>
			</g>
		</g>
	</g>
	<g opacity="0.5">
		<g>
			<g>
				<defs>
					<rect id="SVGID_7_" x="23.482" y="49.096" width="10.713" height="12.085"/>
				</defs>
				<clipPath id="SVGID_8_">
					<use xlink:href="#SVGID_7_"  overflow="visible"/>
				</clipPath>
				<path clip-path="url(#SVGID_8_)" fill="#FFFFFF" d="M25.536,59.956c1.957,1.785,5.271,1.58,7.11-0.338
					c1.839-1.915,2.049-5.197,0.59-7.434c-1.152-1.774-2.833-3.232-4.942-3.078C23.115,49.485,21.993,56.722,25.536,59.956"/>
			</g>
		</g>
	</g>
	<path fill="#C47062" d="M28.84,52.058c0,0,0.224,0.359,0.385,0.897c0.17,0.537,0.293,1.254,0.295,1.971
		c0.003,0.72-0.107,1.436-0.282,1.974c-0.164,0.537-0.397,0.896-0.397,0.896s-0.233-0.358-0.397-0.896
		c-0.175-0.538-0.284-1.254-0.282-1.974c0.002-0.717,0.125-1.434,0.294-1.971C28.616,52.417,28.84,52.058,28.84,52.058"/>
</g>
<g>
	<g opacity="0.5">
		<g>
			<g>
				<defs>
					<rect id="SVGID_9_" x="0.04" y="82.465" width="61.86" height="33.752"/>
				</defs>
				<clipPath id="SVGID_10_">
					<use xlink:href="#SVGID_9_"  overflow="visible"/>
				</clipPath>
				<path clip-path="url(#SVGID_10_)" fill="#FFFFFF" d="M2.722,107.738c-1.029,0.718-1.904,1.656-2.389,2.808
					c-0.746,1.772-0.338,3.791,1.21,4.955c2.071,1.551,4.908,0.615,7.118-0.088c7.133-2.269,14.72-3.084,22.169-2.387
					c8.224,0.771,16.368,3.364,24.586,2.523c1.689-0.172,3.436-0.521,4.779-1.563c4.234-3.282,0.025-6.756-3.613-7.286
					c-2.111-0.308-4.436,0.055-6.546,0.305c0.832-1.594,0.659-3.645-0.597-5.032c-1.209-1.334-3.871-1.58-5.674-1.37
					c-0.332,0.04-2.777,0.252-2.803,0.414c0.258-1.63,0.819-3.158,0.85-4.846c0.028-1.659-0.205-3.33-0.721-4.928
					c-1.012-3.14-3.179-6.031-6.483-7.615c-4.1-1.969-9.129-1.551-13.127,0.408c-2.019,0.987-3.806,2.366-5.128,4.041
					c-1.497,1.896-2.156,4.305-2.042,6.616c0.117,2.338,1.116,4.458,1.902,6.656c-1.705-0.854-3.857-1.099-5.461-0.063
					c-1.603,1.033-2.188,3.602-0.808,4.922c-2.063-0.513-4.288-0.09-6.174,0.896C3.411,107.29,3.058,107.502,2.722,107.738"/>
			</g>
		</g>
	</g>
	<g opacity="0.5">
		<g>
			<g>
				<defs>
					<rect id="SVGID_11_" x="22.46" y="87.685" width="11.068" height="12.202"/>
				</defs>
				<clipPath id="SVGID_12_">
					<use xlink:href="#SVGID_11_"  overflow="visible"/>
				</clipPath>
				<path clip-path="url(#SVGID_12_)" fill="#FFFFFF" d="M24.58,98.647c2.022,1.805,5.448,1.596,7.347-0.34
					c1.899-1.934,2.115-5.247,0.61-7.506c-1.192-1.79-2.927-3.26-5.107-3.105C22.079,88.079,20.92,95.383,24.58,98.647"/>
			</g>
		</g>
	</g>
	<path fill="#C47062" d="M27.994,90.674c0,0,0.244,0.363,0.42,0.906c0.184,0.543,0.322,1.267,0.323,1.99
		c0.014,0.725-0.121,1.448-0.31,1.991c-0.178,0.543-0.433,0.905-0.433,0.905s-0.255-0.362-0.433-0.905
		c-0.189-0.543-0.324-1.269-0.31-1.991c0.001-0.725,0.14-1.447,0.323-1.99C27.749,91.038,27.994,90.674,27.994,90.674"/>
</g>
</svg>
