<?xml version="1.0" encoding="utf-8"?>
<!-- Generator: Adobe Illustrator 16.0.0, SVG Export Plug-In . SVG Version: 6.00 Build 0)  -->
<!DOCTYPE svg PUBLIC "-//W3C//DTD SVG 1.1//EN" "http://www.w3.org/Graphics/SVG/1.1/DTD/svg11.dtd">
<svg version="1.1" id="Layer_1" xmlns="http://www.w3.org/2000/svg" xmlns:xlink="http://www.w3.org/1999/xlink" x="0px" y="0px"
	 width="128px" height="65px" viewBox="0.25 0.188 128 65" enable-background="new 0.25 0.188 128 65" xml:space="preserve">
<g opacity="0.5">
	<g>
		<g>
			<defs>
				<rect id="SVGID_1_" x="0.25" y="0.188" width="128" height="65"/>
			</defs>
			<clipPath id="SVGID_2_">
				<use xlink:href="#SVGID_1_"  overflow="visible"/>
			</clipPath>
			<path clip-path="url(#SVGID_2_)" fill="#FFFFFF" d="M92.978,61.686c8.385,0.849,16.639,1.877,25.153,1.123
				c4.271-0.375,9.448-2.074,10.056-6.313c0.738-5.14-5.351-8.653-9.599-9.33c-3.203-0.51-6.474-0.132-9.691,0.248
				c1.665-5.771,1.785-11.13-4.266-14.623c-4.521-2.613-10.034-2.62-15.257-2.556c1.394-10.679-4.726-21.799-14.277-26.773
				c-8.539-4.449-18.37-4.113-27.186-0.48C42.098,5.375,36.902,9.59,34.087,15.214c-2.922,5.832-2.64,12.202,0.079,17.991
				c-3.929,0.821-8.556,0.695-11.945,3.12c-2.85,2.043-4.702,5.419-4.891,8.918c0.037-0.659-5.963,0.16-6.493,0.303
				c-2.391,0.639-4.646,1.844-6.502,3.48c-3.228,2.853-5.42,7.609-3.157,11.719c3.97,7.204,17.034,3.653,23.37,2.929
				c10.758-1.232,21.497-2.763,32.329-3.158c10.278-0.375,20.579-0.147,30.83,0.683C89.474,61.341,91.23,61.511,92.978,61.686"/>
		</g>
	</g>
</g>
<g opacity="0.5">
	<g>
		<g>
			<defs>
				<rect id="SVGID_3_" x="43.632" y="8.346" width="28.081" height="28.07"/>
			</defs>
			<clipPath id="SVGID_4_">
				<use xlink:href="#SVGID_3_"  overflow="visible"/>
			</clipPath>
			<path clip-path="url(#SVGID_4_)" fill="#FFFFFF" d="M58.438,36.396c1.857-0.106,3.689-0.584,5.362-1.396
				c2.418-1.174,4.486-3.061,5.879-5.357c0.995-1.642,1.651-3.487,1.912-5.391c0.779-5.696-2.337-11.725-7.439-14.383
				c-5.101-2.659-11.828-1.763-16.055,2.139c-4.227,3.9-5.655,10.536-3.41,15.83S52.694,36.721,58.438,36.396"/>
		</g>
	</g>
</g>
<path fill="#C47062" d="M57.668,14.298c0,0,0.188,0.251,0.433,0.69c0.25,0.439,0.549,1.067,0.833,1.821
	c0.561,1.504,0.944,3.513,0.955,5.521c0.023,2.007-0.336,4.015-0.912,5.521c-0.288,0.752-0.6,1.38-0.858,1.819
	c-0.251,0.439-0.45,0.689-0.45,0.689s-0.2-0.25-0.45-0.689c-0.26-0.439-0.57-1.067-0.859-1.819
	c-0.576-1.506-0.937-3.516-0.912-5.521c0.008-2.008,0.394-4.018,0.955-5.521c0.284-0.753,0.584-1.381,0.832-1.821
	C57.481,14.548,57.668,14.298,57.668,14.298"/>
</svg>
