<?xml version="1.0" encoding="utf-8"?>
<!-- Generator: Adobe Illustrator 16.0.0, SVG Export Plug-In . SVG Version: 6.00 Build 0)  -->
<!DOCTYPE svg PUBLIC "-//W3C//DTD SVG 1.1//EN" "http://www.w3.org/Graphics/SVG/1.1/DTD/svg11.dtd">
<svg version="1.1" id="Layer_1" xmlns="http://www.w3.org/2000/svg" xmlns:xlink="http://www.w3.org/1999/xlink" x="0px" y="0px"
	 width="903px" height="55.004px" viewBox="0 0 903 55.004" enable-background="new 0 0 903 55.004" xml:space="preserve">
<path fill="#8ABFBE" d="M0,54.495c0,0,90.875-2.021,173.875-27.906c0,0,78.062-22.379,118.062-11.324
	c0,0,107.031,30.737,155.031,29.12S556.984,33.87,593.984,20.927s87.008-14.561,140.008,0C786.992,35.488,844.5,58.743,903,54.495V0
	H0V54.495z"/>
<path fill="#90CBCE" d="M0,50.495c0,0,90.875-2.021,173.875-27.906c0,0,78.062-22.379,118.062-11.324
	c0,0,107.031,30.737,155.031,29.12S556.984,29.87,593.984,16.927s87.008-14.561,140.008,0C786.992,31.488,844.5,54.743,903,50.495
	V-4H0V50.495z"/>
</svg>
