<?xml version="1.0" encoding="utf-8"?>
<!-- Generator: Adobe Illustrator 16.0.0, SVG Export Plug-In . SVG Version: 6.00 Build 0)  -->
<!DOCTYPE svg PUBLIC "-//W3C//DTD SVG 1.1//EN" "http://www.w3.org/Graphics/SVG/1.1/DTD/svg11.dtd">
<svg version="1.1" xmlns="http://www.w3.org/2000/svg" xmlns:xlink="http://www.w3.org/1999/xlink" x="0px" y="0px" width="458px"
	 height="105.654px" viewBox="0 0 458 105.654" enable-background="new 0 0 458 105.654" xml:space="preserve">
<g id="Layer_1">
</g>
<g id="Isolation_Mode">
	<g>
		<path fill="#40604F" d="M458,105.055c-2.195-3.602-5.195-6.938-8.226-9.732c-38.722-35.759-94.625-59.287-144.179-75.456
			c-31.592-10.307-65.769-15.164-99.3-11.957c-2.364,0.225-4.726,0.493-7.083,0.8c-28.545,3.722-55.902,13.103-82.665,23.338
			C74.117,48.277,26.167,65.253,0,105.055H458z"/>
		<path fill="#4F846A" d="M38.638,84.212c3.978,3.376,9.364,4.508,14.578,4.157c8.072-0.539,15.997-3.119,22.835-7.427
			c-7.028,5.193-15.967,14.307-19.788,24.112h329.027c-4.873-8.394-13.91-14.212-22.427-19.391c8.28,2.834,17.25,3.659,25.91,2.375
			c9.513-1.408,20.166-7.54,19.992-17.124c-0.113-6.198-4.806-11.286-9.501-15.354c-17.598-15.257-38.393-23.291-60.063-30.833
			c-33.39-11.62-68.413-19.133-103.863-19.692c-28.981-0.455-57.881,3.752-85.918,10.891c-12.396,3.154-25.065,5.238-36.975,10.077
			C100.218,30.973,15.64,64.678,38.638,84.212"/>
		<path fill="#66AD8B" d="M91.588,63.534c3.211,0.325,6.424-0.476,9.51-1.416c8.123-2.477,15.926-5.996,23.153-10.444
			c-9.585,5.899-23.229,16.248-21.372,29.205c2.603,18.161,25.11,14.606,37.112,9.465c10.737-4.6,20.047-11.729,28.853-19.251
			c-4.198,10.538-5.405,23.562-0.553,34.562h50.16c5.69-9,8.92-16.31,8.358-25.274c0.919,9.249,4.548,17.274,10.701,25.274h48.478
			c2.102-6,2.961-9.301,2.865-14c-0.138-6.815-2.071-13.602-3.989-20.145c5.701,19.445,35.248,36.429,53.609,23.458
			c3.179-2.245,5.602-5.811,5.834-9.688c0.62-10.302-10.962-25.921-20.377-29.565c7.451,2.883,15.278,6.955,23.516,7.868
			c10.356,1.149,15.749-6.511,10.29-15.26c-6.444-10.329-18.469-15.814-29.021-20.98c-14.293-6.993-29.553-12.234-45.329-15.854
			c-45.145-10.355-94.517-7.439-137.523,5.638c-1.826,0.556-3.646,1.129-5.458,1.726c-12.566,4.129-24.812,9.264-36.474,15.505
			C96.113,38.541,77.557,46.8,83.667,58.712C85.136,61.574,88.377,63.212,91.588,63.534z"/>
		<path fill="#8DCEAE" d="M280.578,27.008c4.336,0.023,7.9-1.037,5.831-5.274c-1.649-3.378-5.835-6.461-8.857-8.541
			c-6.762-4.653-14.766-7.071-22.642-9.1c-11.967-3.082-24.379-4.424-36.729-4.024c-18.608,0.599-39.891,5.017-56.192,14.159
			c-2.793,1.566-5.792,4.01-5.5,7.19c0.062,0.66,0.29,1.336,0.788,1.777c0.771,0.683,1.932,0.622,2.958,0.511
			c4.849-0.531,9.671-1.319,14.436-2.361c-6.894,1.506-14.9,7.323-18.503,13.297c-3.412,5.657-3.18,14.026,2.198,17.881
			c4.891,3.503,11.7,2.052,17.293-0.179c5.04-2.009,9.871-4.536,14.394-7.525c-3.555,7.093-3.351,16.528,2.247,22.164
			c7.058,7.106,19.178,3.574,25.831-2.476c4.612-4.193,7.481-10.238,7.81-16.453c0.223,7.98,5.152,15.659,12.331,19.205
			c6.282,3.104,14.727,2.69,19.431-2.494c5.055-5.569,4.21-14.409,1.035-21.22c3.178,6.816,14.177,10.013,21.027,8.286
			c3.543-0.894,6.947-2.328,7.353-6.18c0.53-5.041-2.507-9.96-6.244-13.055c-2.562-2.122-6.943-6.239-10.389-6.774
			C272.045,26.063,276.63,26.985,280.578,27.008"/>
		<path fill="#4F846A" d="M189.569,25.854c7.114,13.628,34.611,14.913,47.19,12.665c6.64-1.186,15.928-3.496,20.648-8.715
			c7.198-7.959-3.788-15.373-10.519-18.168c-14.628-6.074-38.294-6.889-52.422,1.336C189.603,15.803,186.838,20.622,189.569,25.854"
			/>
		<path fill="#FFFFFF" d="M192.383,21.321c6.535,12.519,31.792,13.699,43.348,11.634c6.099-1.089,14.63-3.212,18.967-8.006
			c6.611-7.312-3.48-14.122-9.662-16.688c-13.437-5.581-35.176-6.329-48.152,1.226C192.414,12.09,189.875,16.516,192.383,21.321"/>
		<path fill="#3C6D57" d="M210.869,10.876c0,0,0.314-0.238,0.882-0.609c0.147-0.092,0.289-0.198,0.481-0.307
			c0.2-0.105,0.417-0.218,0.648-0.34c0.235-0.12,0.484-0.247,0.747-0.382c0.263-0.11,0.538-0.225,0.825-0.346
			c0.289-0.115,0.587-0.248,0.903-0.364c0.319-0.104,0.648-0.21,0.987-0.319c0.678-0.233,1.416-0.375,2.174-0.557
			c0.767-0.124,1.56-0.288,2.377-0.344c0.408-0.038,0.82-0.07,1.234-0.094c0.415-0.011,0.833-0.017,1.25-0.016
			c0.836,0.001,1.673,0.058,2.495,0.147c0.411,0.058,0.817,0.113,1.219,0.17c0.401,0.064,0.796,0.166,1.183,0.247
			c0.193,0.043,0.384,0.087,0.575,0.129c0.188,0.058,0.373,0.117,0.557,0.173c0.367,0.116,0.724,0.23,1.072,0.34
			c0.344,0.135,0.677,0.266,0.993,0.405c0.319,0.132,0.624,0.269,0.908,0.429c0.576,0.297,1.091,0.582,1.521,0.896
			c0.437,0.299,0.81,0.553,1.091,0.819c0.57,0.506,0.871,0.81,0.871,0.81c0.567,0.57,0.561,1.493-0.013,2.058
			c-0.408,0.404-0.994,0.517-1.504,0.342l-0.206-0.07c0,0-0.34-0.119-0.89-0.347c-0.261-0.13-0.633-0.211-1.017-0.355
			c-0.38-0.152-0.854-0.242-1.338-0.386c-0.479-0.155-1.053-0.205-1.609-0.354c-0.59-0.077-1.19-0.199-1.84-0.248
			c-0.32-0.034-0.646-0.067-0.977-0.1c-0.334-0.019-0.67-0.037-1.011-0.056c-0.337-0.036-0.685-0.02-1.03-0.028
			c-0.347-0.001-0.692-0.027-1.042-0.006c-0.348,0.012-0.697,0.019-1.045,0.021c-0.348,0.022-0.694,0.043-1.038,0.065
			c-0.345,0.007-0.685,0.043-1.022,0.078c-0.337,0.031-0.67,0.063-0.999,0.092c-0.65,0.097-1.293,0.138-1.887,0.25
			c-0.601,0.087-1.17,0.172-1.692,0.274c-0.536,0.092-0.994,0.188-1.399,0.271c-0.206,0.04-0.399,0.077-0.578,0.113
			c-0.185,0.033-0.377,0.091-0.539,0.129c-0.659,0.167-1.045,0.24-1.045,0.24c-0.878,0.164-1.724-0.412-1.889-1.287
			C210.139,11.838,210.398,11.231,210.869,10.876"/>
	</g>
</g>
</svg>
