<?xml version="1.0" encoding="utf-8"?>
<!-- Generator: Adobe Illustrator 16.0.0, SVG Export Plug-In . SVG Version: 6.00 Build 0)  -->
<!DOCTYPE svg PUBLIC "-//W3C//DTD SVG 1.1//EN" "http://www.w3.org/Graphics/SVG/1.1/DTD/svg11.dtd">
<svg version="1.1" xmlns="http://www.w3.org/2000/svg" xmlns:xlink="http://www.w3.org/1999/xlink" x="0px" y="0px" width="111px"
	 height="112px" viewBox="0 0 111 112" enable-background="new 0 0 111 112" xml:space="preserve">
<g id="Layer_1">
</g>
<g id="Isolation_Mode">
	<g>
		<path fill="#64AC81" d="M75.895,7.001c-3.211,0.024-6.391,0.801-9.661,1.749c-4.521,1.307-8.904,3.567-13.611,3.45
			c-2.605-0.064-5.129-0.862-7.693-1.327c-11-1.996-21.817,2.223-31.301,7.403C7.571,21.585,1.963,27.34,0.382,34.176
			c-0.835,3.615-0.351,7.648,1.9,10.609c2.353,3.097,6.945,4.447,10.659,2.914c4.268-1.765,5.935-7.264,8.061-10.914
			c0.372-0.64,0.781-1.274,1.348-1.755c0.907-0.771,2.116-1.07,3.266-1.396c4.802-1.365,9.347-3.621,13.324-6.619
			c-1.63,2.486-3.279,5.011-4.185,7.838c-1.984,6.19,2.333,12.532,6.774,16.734c2.722,2.576,6.311,4.431,10.074,4.413
			c3.764-0.017,7.612-2.197,8.922-5.696c2.079-5.552-2.512-11.798-0.909-17.501c1.064-3.791,4.853-6.967,8.309-8.644
			c-1.024,2.491-1.445,5.225-1.217,7.905c0.298,3.487,1.67,6.813,3.458,9.83c1.431,2.414,3.199,4.728,5.628,6.156
			c4.148,2.443,9.457,1.868,14.016,0.291c2.307-0.797,4.918-2.437,4.703-4.851c-0.082-0.906-0.57-1.718-1.004-2.521
			c-1.75-3.227-4.58-8.259-2.555-11.991c1.64-3.023,6.865-5.353,10.199-5.346c3.274,0.006,6.576,0.113,9.846-0.018
			c-1.572-3.177-5.85-7.039-9.117-8.616c-3.167-1.527-6.799-1.714-10.195-2.638c-3.242-0.883-5.971-2.938-9.072-4.147
			C80.333,7.326,78.107,6.985,75.895,7.001"/>
		<path fill="#3C6D57" d="M54.208,16.647c-0.737,1.147-0.815,2.785-0.027,3.933c1.435,2.084,4.729-0.017,6.03-1.277
			c1.017-0.987,1.857-2.144,2.777-3.217c0.891-1.042,2.085-1.765,2.979-2.742c-0.909,0.994-1.115,2.879,0.102,3.465
			c0.791,0.38,1.771-0.026,2.359-0.674c1.765-1.94,1.93-4.609,4.027-6.356c2.041-1.698,4.814-2.559,7.463-2.189
			c1.178,0.166,2.405,0.707,3.612,0.48c1.837-0.343,1.026-1.837-0.388-2.22c-1.955-0.531-4.069-0.465-5.987,0.185
			c1.062-0.478,2.028-1.154,2.841-1.985c0.742-0.755,1.381-1.86,0.946-2.822c-0.294-0.65-1.007-1.023-1.714-1.157
			c-1.811-0.347-3.697,0.625-4.814,2.082c-1.062,1.385-1.371,2.929-1.602,4.607c-0.283-0.668-0.698-1.293-1.27-1.746
			c-0.57-0.454-1.304-0.723-2.032-0.659c-1.291,0.115-1.299,1.158-0.704,2.004c0.213,0.306,0.426,0.611,0.642,0.917
			c-2.021-0.836-4.22-1.216-6.394-0.985c-1.239,0.132-4.061,0.612-3.188,2.476c0.771,1.642,4.485,1.572,5.967,1.943
			c-3.828-0.076-7.621,1.532-10.29,4.241C55.125,15.379,54.636,15.979,54.208,16.647"/>
		<path fill="#3C6D57" d="M27.602,7.694c1.18,0.655,2.357,1.31,3.536,1.965c-1.896-0.69-3.945-0.961-5.957-0.785
			c-1.252,0.109-2.547,0.417-3.485,1.246c-0.942,0.828-1.404,2.286-0.779,3.367c0.597,1.034,1.936,1.403,3.136,1.365
			c1.672-0.055,3.259-0.697,4.859-1.181c2.935-0.887,6.031-1.252,9.092-1.072c0.646,0.038,1.385,0.066,1.832-0.396
			c0.433-0.445,0.397-1.153,0.26-1.755c-0.322-1.389-1.059-2.68-2.094-3.668c-0.537-0.513-1.395-0.95-1.982-0.497
			c-0.443,0.344-0.449,1.023-0.247,1.546c0.2,0.522,0.559,0.977,0.731,1.509c-1.871-2.232-4.703-3.643-7.627-3.8
			c-0.512-0.027-1.051-0.012-1.489,0.247c-0.439,0.259-0.727,0.835-0.506,1.292C27.021,7.364,27.319,7.538,27.602,7.694"/>
		<path fill="#3C6D57" d="M67.012,34.306c0,0-0.092-0.301-0.251-0.826c-0.078-0.263-0.166-0.585-0.242-0.963
			c-0.078-0.377-0.179-0.801-0.233-1.274c-0.03-0.235-0.063-0.482-0.097-0.735c-0.016-0.259-0.033-0.524-0.051-0.798
			c-0.043-0.549,0.01-1.131,0.029-1.736c0.018-0.303,0.088-0.606,0.132-0.916c0.043-0.311,0.098-0.625,0.196-0.933
			c0.09-0.309,0.164-0.627,0.27-0.936l0.391-0.906l0.1-0.226c0.023-0.051,0.014-0.046,0.066-0.142l0.059-0.101l0.235-0.403
			c0.159-0.269,0.292-0.535,0.515-0.8c0.203-0.261,0.404-0.522,0.605-0.778c0.216-0.228,0.422-0.46,0.643-0.676
			c0.208-0.223,0.443-0.408,0.664-0.6c0.227-0.183,0.428-0.39,0.662-0.539c0.457-0.313,0.871-0.63,1.296-0.86
			c0.415-0.242,0.791-0.461,1.147-0.62c0.35-0.17,0.652-0.318,0.913-0.415c0.516-0.212,0.817-0.313,0.817-0.313
			s-0.239,0.213-0.668,0.559c-0.21,0.174-0.469,0.385-0.764,0.626c-0.293,0.24-0.627,0.507-0.971,0.817
			c-0.356,0.293-0.719,0.634-1.103,0.989c-0.37,0.367-0.771,0.74-1.135,1.168c-0.175,0.218-0.372,0.424-0.562,0.64
			c-0.163,0.224-0.328,0.45-0.496,0.678c-0.17,0.21-0.325,0.494-0.488,0.755l-0.244,0.398l-0.061,0.1
			c0.016-0.027-0.021,0.049-0.031,0.07l-0.089,0.2l-0.368,0.8c-0.096,0.278-0.191,0.555-0.284,0.83
			c-0.106,0.271-0.175,0.553-0.233,0.835c-0.059,0.281-0.133,0.555-0.182,0.832c-0.074,0.558-0.183,1.095-0.192,1.618
			c-0.021,0.261-0.041,0.515-0.061,0.761c-0.002,0.247-0.006,0.487-0.008,0.716c-0.016,0.461-0.006,0.884,0.008,1.26
			c0.006,0.376,0.012,0.71,0.031,0.983C67,33.992,67.012,34.306,67.012,34.306"/>
		<path fill="#3C6D57" d="M35.943,32.049c0,0,0.051-0.292,0.16-0.794c0.062-0.25,0.105-0.559,0.233-0.899
			c0.115-0.342,0.231-0.742,0.403-1.156c0.186-0.404,0.361-0.86,0.607-1.311c0.259-0.441,0.484-0.942,0.816-1.394
			c0.311-0.468,0.637-0.952,1.016-1.406c0.358-0.469,0.779-0.898,1.176-1.349c0.435-0.414,0.857-0.841,1.312-1.215
			c0.438-0.397,0.916-0.732,1.369-1.064c0.459-0.326,0.919-0.618,1.369-0.87c0.226-0.123,0.443-0.246,0.656-0.363
			c0.22-0.103,0.43-0.203,0.635-0.297c0.4-0.202,0.798-0.331,1.135-0.46c0.347-0.123,0.656-0.201,0.906-0.273
			c0.514-0.115,0.806-0.16,0.806-0.16s-0.255,0.148-0.703,0.405c-0.216,0.135-0.479,0.298-0.78,0.487
			c-0.291,0.206-0.629,0.408-0.979,0.666c-0.354,0.247-0.728,0.529-1.119,0.824c-0.391,0.297-0.787,0.634-1.203,0.967
			c-0.409,0.346-0.82,0.714-1.232,1.092c-0.427,0.363-0.807,0.788-1.217,1.178c-0.389,0.415-0.797,0.811-1.147,1.245
			c-0.183,0.211-0.366,0.42-0.547,0.626c-0.169,0.214-0.339,0.426-0.505,0.634c-0.34,0.411-0.625,0.838-0.924,1.229
			c-0.277,0.408-0.536,0.794-0.775,1.149c-0.225,0.367-0.429,0.703-0.611,1.001c-0.191,0.294-0.33,0.58-0.454,0.804
			C36.097,31.794,35.943,32.049,35.943,32.049"/>
		<path fill="#3C6D57" d="M96.257,14.733c-0.609-0.038-1.244,0.15-1.69,0.564c-0.448,0.413-0.688,1.056-0.562,1.65
			c0.051,0.242,0.158,0.47,0.286,0.685c0.92,1.55,2.95,2.354,4.693,1.859c0.544-0.155,1.099-0.47,1.275-1.002
			c0.074-0.218,0.077-0.456,0.055-0.685C100.181,16.285,97.793,14.831,96.257,14.733"/>
		<path fill="#3C6D57" d="M103.994,17.271c-0.344,0.008-0.621,0.188-0.717,0.64c-0.522,2.419,4.533,3.167,2.701,0.527
			c-0.312-0.451-0.783-0.775-1.287-1C104.45,17.328,104.208,17.266,103.994,17.271"/>
	</g>
	<g>
		<path fill="#64AC81" d="M35.104,63.002c3.211,0.023,6.391,0.801,9.662,1.748c4.521,1.307,8.904,3.567,13.61,3.451
			c2.605-0.064,5.129-0.862,7.693-1.328c10.999-1.995,21.817,2.223,31.301,7.404c6.058,3.309,11.665,9.062,13.246,15.898
			c0.835,3.615,0.351,7.648-1.9,10.609c-2.353,3.097-6.945,4.447-10.659,2.914c-4.268-1.764-5.935-7.264-8.061-10.914
			c-0.372-0.64-0.781-1.273-1.348-1.755c-0.907-0.771-2.116-1.069-3.266-1.396c-4.801-1.365-9.346-3.621-13.324-6.619
			c1.63,2.486,3.279,5.011,4.185,7.838c1.983,6.19-2.333,12.531-6.774,16.733c-2.723,2.576-6.311,4.431-10.074,4.413
			c-3.764-0.017-7.611-2.197-8.922-5.696c-2.08-5.552,2.512-11.798,0.909-17.501c-1.065-3.791-4.853-6.967-8.309-8.643
			c1.024,2.49,1.444,5.225,1.217,7.904c-0.298,3.487-1.671,6.814-3.458,9.83c-1.432,2.414-3.199,4.729-5.627,6.156
			c-4.15,2.443-9.457,1.868-14.016,0.291c-2.307-0.797-4.919-2.436-4.704-4.851c0.082-0.906,0.57-1.718,1.004-2.521
			c1.749-3.227,4.58-8.26,2.554-11.991c-1.64-3.023-6.865-5.353-10.199-5.346C6.571,79.64,3.269,79.746,0,79.616
			C1.571,76.439,5.849,72.578,9.117,71c3.167-1.527,6.799-1.713,10.195-2.637c3.243-0.884,5.971-2.938,9.072-4.148
			C30.667,63.326,32.892,62.985,35.104,63.002"/>
		<path fill="#3C6D57" d="M56.792,72.647c0.738,1.147,0.816,2.785,0.027,3.933c-1.436,2.084-4.73-0.018-6.03-1.277
			c-1.017-0.987-1.858-2.144-2.776-3.217c-0.893-1.041-2.086-1.765-2.979-2.742c0.909,0.994,1.116,2.88-0.102,3.466
			c-0.79,0.38-1.772-0.026-2.36-0.675c-1.764-1.939-1.93-4.608-4.026-6.355c-2.04-1.698-4.815-2.559-7.464-2.189
			c-1.178,0.166-2.404,0.707-3.611,0.48c-1.836-0.343-1.026-1.837,0.387-2.22c1.955-0.53,4.07-0.466,5.988,0.185
			c-1.061-0.479-2.029-1.154-2.841-1.984c-0.742-0.756-1.381-1.86-0.946-2.822c0.294-0.65,1.006-1.023,1.713-1.158
			c1.812-0.346,3.698,0.626,4.816,2.082c1.061,1.386,1.37,2.93,1.6,4.607c0.285-0.668,0.699-1.293,1.27-1.746
			s1.305-0.723,2.033-0.658c1.291,0.115,1.299,1.158,0.705,2.004c-0.215,0.307-0.427,0.611-0.643,0.918
			c2.021-0.837,4.219-1.217,6.395-0.986c1.238,0.133,4.06,0.613,3.188,2.477c-0.771,1.642-4.486,1.571-5.969,1.943
			c3.828-0.076,7.621,1.531,10.291,4.24C55.875,71.379,56.364,71.98,56.792,72.647"/>
		<path fill="#3C6D57" d="M83.397,63.694c-1.18,0.655-2.357,1.31-3.535,1.965c1.896-0.69,3.944-0.961,5.956-0.785
			c1.252,0.108,2.547,0.417,3.485,1.245c0.942,0.828,1.404,2.287,0.779,3.367c-0.597,1.034-1.936,1.403-3.136,1.365
			c-1.672-0.055-3.259-0.696-4.86-1.18c-2.934-0.887-6.029-1.253-9.091-1.072c-0.646,0.037-1.384,0.065-1.832-0.396
			c-0.433-0.445-0.397-1.154-0.259-1.756c0.32-1.389,1.057-2.68,2.093-3.668c0.538-0.514,1.394-0.95,1.982-0.496
			c0.444,0.344,0.45,1.022,0.247,1.545c-0.201,0.523-0.559,0.977-0.732,1.51c1.871-2.232,4.705-3.643,7.627-3.801
			c0.513-0.027,1.052-0.012,1.49,0.248c0.439,0.259,0.727,0.835,0.506,1.291C83.978,63.364,83.68,63.538,83.397,63.694"/>
		<path fill="#3C6D57" d="M43.987,90.307c0,0,0.092-0.301,0.252-0.826c0.077-0.264,0.165-0.585,0.24-0.963
			c0.078-0.377,0.18-0.801,0.234-1.274c0.031-0.235,0.064-0.481,0.098-0.735c0.016-0.259,0.033-0.523,0.051-0.798
			c0.042-0.549-0.01-1.131-0.029-1.736c-0.018-0.304-0.088-0.606-0.133-0.916c-0.043-0.312-0.098-0.624-0.197-0.933
			c-0.089-0.309-0.163-0.627-0.268-0.936l-0.393-0.906l-0.099-0.226c-0.023-0.051-0.014-0.046-0.066-0.142l-0.058-0.102
			l-0.236-0.403c-0.16-0.269-0.292-0.535-0.514-0.8c-0.205-0.262-0.405-0.522-0.605-0.779c-0.217-0.228-0.423-0.46-0.643-0.676
			c-0.209-0.223-0.444-0.408-0.664-0.6c-0.229-0.184-0.429-0.391-0.662-0.539c-0.458-0.313-0.873-0.631-1.297-0.859
			c-0.415-0.242-0.791-0.462-1.146-0.62c-0.352-0.17-0.652-0.317-0.914-0.415c-0.516-0.213-0.817-0.313-0.817-0.313
			s0.239,0.214,0.667,0.559c0.211,0.174,0.47,0.385,0.764,0.626c0.295,0.24,0.627,0.508,0.973,0.817
			c0.355,0.294,0.718,0.634,1.102,0.989c0.369,0.367,0.771,0.74,1.135,1.168c0.176,0.219,0.372,0.424,0.561,0.641
			c0.164,0.223,0.33,0.449,0.497,0.678c0.169,0.21,0.325,0.494,0.489,0.755l0.242,0.398l0.061,0.101
			c-0.016-0.027,0.021,0.049,0.031,0.069l0.09,0.2l0.368,0.801c0.095,0.277,0.19,0.555,0.284,0.829
			c0.107,0.271,0.176,0.554,0.234,0.835c0.058,0.281,0.132,0.555,0.18,0.832c0.074,0.557,0.184,1.094,0.193,1.617
			c0.021,0.262,0.041,0.515,0.061,0.761c0.002,0.247,0.006,0.487,0.008,0.716c0.016,0.461,0.006,0.885-0.008,1.26
			c-0.006,0.377-0.012,0.711-0.031,0.984C43.999,89.992,43.987,90.307,43.987,90.307"/>
		<path fill="#3C6D57" d="M75.055,88.049c0,0-0.05-0.292-0.159-0.794c-0.062-0.25-0.104-0.559-0.233-0.899
			c-0.115-0.342-0.232-0.742-0.403-1.156c-0.185-0.403-0.362-0.859-0.607-1.311c-0.259-0.44-0.485-0.941-0.815-1.394
			c-0.312-0.468-0.637-0.952-1.017-1.405c-0.358-0.47-0.779-0.898-1.177-1.35c-0.434-0.414-0.856-0.841-1.312-1.215
			c-0.438-0.397-0.914-0.732-1.368-1.064c-0.46-0.325-0.919-0.617-1.369-0.869c-0.226-0.123-0.444-0.246-0.655-0.363
			c-0.221-0.104-0.432-0.203-0.636-0.297c-0.401-0.203-0.798-0.332-1.135-0.461c-0.347-0.123-0.656-0.201-0.905-0.273
			c-0.514-0.114-0.807-0.16-0.807-0.16s0.256,0.148,0.703,0.405c0.217,0.136,0.479,0.298,0.781,0.487
			c0.289,0.205,0.629,0.408,0.977,0.665c0.355,0.247,0.729,0.528,1.12,0.823c0.392,0.298,0.786,0.635,1.203,0.967
			c0.409,0.347,0.819,0.715,1.233,1.093c0.426,0.363,0.806,0.788,1.217,1.179c0.387,0.414,0.796,0.811,1.146,1.244
			c0.184,0.211,0.365,0.42,0.547,0.626c0.17,0.214,0.339,0.427,0.504,0.634c0.342,0.412,0.625,0.839,0.926,1.229
			c0.276,0.408,0.535,0.794,0.775,1.149c0.223,0.367,0.428,0.703,0.611,1.002c0.189,0.294,0.328,0.58,0.453,0.803
			C74.902,87.795,75.055,88.049,75.055,88.049"/>
		<path fill="#3C6D57" d="M14.741,70.733c0.609-0.038,1.244,0.15,1.691,0.564c0.449,0.413,0.688,1.056,0.562,1.649
			c-0.052,0.242-0.159,0.471-0.287,0.686c-0.92,1.549-2.951,2.354-4.693,1.858c-0.544-0.155-1.098-0.47-1.275-1.002
			c-0.074-0.218-0.077-0.456-0.055-0.685C10.818,72.285,13.206,70.832,14.741,70.733"/>
		<path fill="#3C6D57" d="M7.005,73.271c0.344,0.008,0.621,0.188,0.718,0.639c0.522,2.42-4.533,3.168-2.702,0.527
			c0.312-0.45,0.784-0.775,1.287-1C6.549,73.328,6.791,73.266,7.005,73.271"/>
	</g>
</g>
</svg>
