<?xml version="1.0" encoding="utf-8"?>
<!-- Generator: Adobe Illustrator 16.0.0, SVG Export Plug-In . SVG Version: 6.00 Build 0)  -->
<!DOCTYPE svg PUBLIC "-//W3C//DTD SVG 1.1//EN" "http://www.w3.org/Graphics/SVG/1.1/DTD/svg11.dtd">
<svg version="1.1" id="Layer_1" xmlns="http://www.w3.org/2000/svg" xmlns:xlink="http://www.w3.org/1999/xlink" x="0px" y="0px"
	 width="413px" height="70px" viewBox="0 0 413 70" enable-background="new 0 0 413 70" xml:space="preserve">
<path fill="#68AF8D" d="M50.435,0H20.556H4.071H0v11.761c1.88,0.016,3.701,0.2,5.356,0.572c2.986,0.672,5.477,2.277,6.969,3.966
	c2.146,2.425,2.74,5.274,2.961,7.996c0.752,9.289-4.625,23.289,4.266,29.924c5.479,4.089,15.104,4.683,20.846,0.851
	c7.857-5.244,8.829-13.505,6.073-21.653c-1.821-5.386,2.454-12.016,8.344-11.151c6.083,0.893,8.231,7.963,13.333,10.637
	c7.782,4.077,13.409-1.076,16.359-8.161c5.972-14.335,22.55-16.865,29.27-1.23c4.272,9.937-1.244,20.658-0.516,30.879
	c1.485,20.86,39.256,20.868,38.836-0.313c-0.058-2.94,0.191-6.521,1.823-9.326c3.193-5.486,8.961-0.199,12.611,1.689
	c5.507,2.848,8.669,1.917,13.254-2.483c7.626-7.319,7.811-18.919,15.844-26.638c5.486-5.272,11.07,0.907,15.068,5.286
	c5.334,5.84,10.337,10.825,18.953,10.475c11.026-0.449,16.526-13.201,27.123-12.776c7.971,0.32,11.661,8.137,19.6,7.596
	c2.728-0.185,4.949-1.381,7.438-2.095c17.196-4.929,4.382,26.387,24.562,24.792c3.026-0.241,7.216-3.305,10.159-2.647
	c3.491,0.781,4.732,4.777,6.56,7.485c3.512,5.204,9.905,6.411,15.361,2.667c8.15-5.592,6.402-15.006,7.657-23.647
	c0.822-5.676,1.675-11.432,4.886-16.774c0.805-1.338,1.797-2.682,3.49-3.654c7.429-4.267,12.823,4.921,15.993,10.211
	c4.394,7.334,15.01,10.521,21.786,4.367c6.777-6.154,7.521-16.501,18.732-16.807V0H50.435z"/>
<path fill="#71BF9C" d="M51.627,0H21.993H5.644H0v10.734c1.865,0.015,5.275,0.245,6.918,0.586c2.961,0.617,5.432,2.091,6.912,3.64
	c2.128,2.227,2.717,4.842,2.936,7.34c0.746,8.525-4.587,21.375,4.231,27.466c5.435,3.753,14.981,4.298,20.676,0.781
	c7.792-4.814,8.757-12.396,6.024-19.876c-1.807-4.943,2.433-11.028,8.275-10.234c6.033,0.819,8.164,7.31,13.225,9.763
	c7.718,3.742,13.298-0.987,16.226-7.49c5.922-13.159,22.365-15.48,29.03-1.13c4.237,9.121-1.234,18.961-0.511,28.343
	c1.699,22.078,38.997,22.098,38.518-0.287c-0.058-2.698,0.189-5.985,1.808-8.559c3.167-5.036,8.889-0.183,12.508,1.55
	c5.462,2.615,8.598,1.76,13.145-2.279c7.563-6.718,7.248-18.6,15.714-24.45c6.044-4.177,10.979,0.833,14.945,4.852
	c5.291,5.36,10.252,9.936,18.797,9.615c10.938-0.412,16.392-12.117,26.9-11.727c7.907,0.293,11.566,7.469,19.44,6.972
	c2.704-0.169,4.909-1.268,7.378-1.922c17.054-4.525,4.346,24.22,24.359,22.755c3.002-0.221,7.157-3.033,10.076-2.43
	c3.462,0.717,4.693,4.386,6.506,6.871c3.482,4.777,10.472,6.896,15.882,3.459c8.085-5.133,5.704-14.785,6.948-22.717
	c0.815-5.21,1.661-10.492,4.846-15.396c0.798-1.228,1.782-2.461,3.461-3.354c7.37-3.916,12.72,4.517,15.863,9.373
	c4.356,6.731,14.887,9.657,21.608,4.008c6.722-5.648,9.236-15.241,20.355-15.521V0H51.627z"/>
</svg>
