<?xml version="1.0" encoding="utf-8"?>
<!-- Generator: Adobe Illustrator 16.0.0, SVG Export Plug-In . SVG Version: 6.00 Build 0)  -->
<!DOCTYPE svg PUBLIC "-//W3C//DTD SVG 1.1//EN" "http://www.w3.org/Graphics/SVG/1.1/DTD/svg11.dtd">
<svg version="1.1" id="Layer_1" xmlns="http://www.w3.org/2000/svg" xmlns:xlink="http://www.w3.org/1999/xlink" x="0px" y="0px"
	 width="32.514px" height="42.111px" viewBox="0 0 32.514 42.111" enable-background="new 0 0 32.514 42.111" xml:space="preserve">
<path fill="#FFEC6F" d="M32.513,25.462c0,10.816-7.277,16.648-16.257,16.648C7.279,42.112,0,36.28,0,25.462
	C0,14.646,8.226,0,16.257,0C25.069,0,32.513,14.646,32.513,25.462"/>
<g>
	<path fill="#3C6D57" d="M18.441,28.84c-0.092-0.056-0.229-0.083-0.414-0.083c-0.093,0-0.234,0.015-0.43,0.042
		c-0.193,0.027-0.346,0.041-0.456,0.041c-0.295,0-0.498-0.109-0.607-0.332v-11.31c-0.093-0.166-0.213-0.249-0.359-0.249
		c-0.129,0-0.24,0.065-0.332,0.193c-0.369,0.351-0.862,0.922-1.479,1.715s-1.11,1.364-1.479,1.714
		c-0.442-0.073-0.857-0.387-1.245-0.94c1.549-2.47,3.162-4.535,4.84-6.194c0.128,0.073,0.276,0.11,0.442,0.11
		c0.092,0,0.229-0.018,0.414-0.055s0.323-0.056,0.415-0.056c0.461,0,0.719,0.186,0.774,0.555c0.035,0.259,0.056,0.74,0.056,1.443
		c0,0.776-0.041,1.947-0.125,3.511c-0.082,1.562-0.123,2.734-0.123,3.511c0,0.723,0.035,1.461,0.108,2.22
		c0.093,0.944,0.14,1.324,0.14,1.139c0,0.057,0,0.13,0,0.223c-0.021,0.111-0.027,0.194-0.027,0.25c0,0.166,0.018,0.43,0.055,0.791
		c0.037,0.36,0.056,0.633,0.056,0.818C18.662,28.248,18.59,28.562,18.441,28.84z"/>
</g>
</svg>
