<?xml version="1.0" encoding="utf-8"?>
<!-- Generator: Adobe Illustrator 16.0.0, SVG Export Plug-In . SVG Version: 6.00 Build 0)  -->
<!DOCTYPE svg PUBLIC "-//W3C//DTD SVG 1.1//EN" "http://www.w3.org/Graphics/SVG/1.1/DTD/svg11.dtd">
<svg version="1.1" id="Layer_1" xmlns="http://www.w3.org/2000/svg" xmlns:xlink="http://www.w3.org/1999/xlink" x="0px" y="0px"
	 width="32.513px" height="42.111px" viewBox="0 0 32.513 42.111" enable-background="new 0 0 32.513 42.111" xml:space="preserve">
<path fill="#3C6D57" d="M32.513,25.462c0,10.816-7.277,16.648-16.256,16.648C7.279,42.111,0,36.279,0,25.462
	C0,14.645,8.226,0,16.257,0C25.069,0,32.513,14.645,32.513,25.462"/>
<path fill="#FFFFFF" d="M16.158,9.793c0,0,0.169,0.358,0.388,0.985c0.224,0.626,0.503,1.521,0.747,2.596
	c0.501,2.148,0.851,5.012,0.86,7.877c0.026,2.864-0.299,5.729-0.816,7.877c-0.251,1.074-0.535,1.969-0.773,2.596
	c-0.227,0.627-0.406,0.984-0.406,0.984s-0.179-0.357-0.406-0.984c-0.238-0.627-0.522-1.521-0.773-2.596
	c-0.518-2.148-0.843-5.014-0.816-7.877c0.009-2.865,0.359-5.729,0.86-7.877c0.244-1.075,0.523-1.97,0.747-2.596
	C15.989,10.151,16.158,9.793,16.158,9.793"/>
</svg>
