<?xml version="1.0" encoding="utf-8"?>
<!-- Generator: Adobe Illustrator 16.0.0, SVG Export Plug-In . SVG Version: 6.00 Build 0)  -->
<!DOCTYPE svg PUBLIC "-//W3C//DTD SVG 1.1//EN" "http://www.w3.org/Graphics/SVG/1.1/DTD/svg11.dtd">
<svg version="1.1" id="Layer_1" xmlns="http://www.w3.org/2000/svg" xmlns:xlink="http://www.w3.org/1999/xlink" x="0px" y="0px"
	 width="32.514px" height="42.111px" viewBox="0 0 32.514 42.111" enable-background="new 0 0 32.514 42.111" xml:space="preserve">
<path fill="#FFEC6F" d="M32.513,25.462c0,10.816-7.277,16.648-16.257,16.648C7.279,42.112,0,36.28,0,25.462
	C0,14.646,8.226,0,16.257,0C25.069,0,32.513,14.646,32.513,25.462"/>
<g>
	<path fill="#FFFFFF" d="M22.706,27.346c-0.148,0.129-0.369,0.304-0.664,0.525c-0.148,0.093-0.379,0.185-0.691,0.276
		c-0.977,0.313-2.812,0.498-5.504,0.554c-0.146,0-0.391,0.009-0.732,0.027s-0.604,0.027-0.787,0.027
		c0.072,0-0.268-0.083-1.024-0.249c-1.641-0.368-2.526-0.571-2.655-0.608c-0.996-0.276-1.816-0.645-2.461-1.105
		c0.203-0.424,0.562-1.023,1.079-1.798c3.134,1.31,5.614,1.964,7.438,1.964c0.959,0,1.834-0.129,2.627-0.388
		c0.166-0.073,0.434-0.166,0.803-0.276c0.146-0.037,0.35-0.092,0.607-0.166c1.07-0.442,1.605-1.069,1.605-1.881
		c0-0.424-0.094-0.848-0.277-1.271c-0.221-0.498-0.508-0.82-0.857-0.968c-0.129-0.056-0.322-0.102-0.58-0.139
		c-1.291-0.313-2.969-0.535-5.033-0.664c-0.092-0.111-0.139-0.258-0.139-0.442c0-0.092,0.014-0.23,0.041-0.415
		c0.029-0.184,0.043-0.322,0.043-0.415s-0.01-0.166-0.029-0.221c2.104-0.074,3.734-0.323,4.896-0.747
		c0.201-0.276,0.414-0.553,0.635-0.83c0.24-0.35,0.359-0.672,0.359-0.968c0-0.332-0.184-0.673-0.553-1.023
		c-1.014-0.958-2.627-1.438-4.84-1.438c-1.732,0-3.336,0.507-4.811,1.521c-0.553-0.092-0.987-0.691-1.3-1.798
		c0.35-0.128,0.875-0.332,1.576-0.608c0.111-0.073,0.286-0.175,0.525-0.304c0.996-0.553,2.423-0.83,4.287-0.83
		c2.322,0,4.305,0.6,5.945,1.797c0.35,0.259,0.6,0.48,0.746,0.664c0.352,0.516,0.525,1.217,0.525,2.102
		c0,0.903-0.258,1.632-0.773,2.185c-0.166,0.185-0.342,0.351-0.525,0.498c-0.186,0.147-0.277,0.267-0.277,0.359
		c0,0.019,0.01,0.028,0.027,0.028c0,0.019,0,0.037,0,0.055c0.59,0.203,1.152,0.535,1.688,0.996c0.59,0.516,0.949,1.05,1.078,1.604
		c0.057,0.239,0.084,0.479,0.084,0.719C24.807,24.876,24.106,26.093,22.706,27.346z"/>
</g>
</svg>
