<?xml version="1.0" encoding="utf-8"?>
<!-- Generator: Adobe Illustrator 16.0.0, SVG Export Plug-In . SVG Version: 6.00 Build 0)  -->
<!DOCTYPE svg PUBLIC "-//W3C//DTD SVG 1.1//EN" "http://www.w3.org/Graphics/SVG/1.1/DTD/svg11.dtd">
<svg version="1.1" id="Layer_1" xmlns="http://www.w3.org/2000/svg" xmlns:xlink="http://www.w3.org/1999/xlink" x="0px" y="0px"
	 width="32.514px" height="42.111px" viewBox="0 0 32.514 42.111" enable-background="new 0 0 32.514 42.111" xml:space="preserve">
<path fill="#FFEC6F" d="M32.513,25.462c0,10.816-7.277,16.648-16.257,16.648C7.279,42.112,0,36.28,0,25.462
	C0,14.646,8.226,0,16.257,0C25.069,0,32.513,14.646,32.513,25.462"/>
<g>
	<path fill="#3C6D57" d="M22.622,27.623c-0.093,0.406-0.14,0.646-0.14,0.719l0.029,0.111c-0.277,0.129-0.582,0.193-0.914,0.193
		c-0.146,0-0.373-0.02-0.678-0.057c-0.303-0.035-0.539-0.055-0.705-0.055c-0.184,0-0.461,0.023-0.828,0.068
		c-0.369,0.047-0.646,0.068-0.83,0.068c-0.516,0-1.305,0.011-2.365,0.028c-1.06,0.018-1.856,0.027-2.392,0.027
		c-2.12,0-4.028-0.037-5.724-0.11c0.405-2.857,1.523-4.932,3.354-6.223c0.739-0.517,1.718-0.986,2.938-1.41
		c0.85-0.277,1.7-0.553,2.551-0.83c0.961-0.369,1.735-0.812,2.328-1.328c0.479-0.424,0.721-0.894,0.721-1.41
		c0-0.312-0.027-0.618-0.082-0.913c-0.723-0.885-1.822-1.328-3.301-1.328c-0.664,0-1.949,0.203-3.854,0.608
		c-0.313,0.074-0.8,0.272-1.456,0.595c-0.655,0.323-1.179,0.502-1.565,0.539c-0.24-0.387-0.556-0.985-0.942-1.797
		c1.954-1.309,4.231-1.963,6.831-1.963c1.695,0,3.07,0.212,4.121,0.636c0.57,0.24,1.115,0.59,1.631,1.051
		c0.607,0.554,0.959,1.098,1.051,1.632v0.138c0,1.476-0.895,2.849-2.682,4.121c-0.572,0.406-1.613,0.793-3.125,1.161
		c-1.365,0.332-2.379,0.812-3.042,1.438c-0.148,0.147-0.396,0.369-0.747,0.664c-0.516,0.442-0.875,0.792-1.078,1.051
		c-0.387,0.461-0.59,0.912-0.607,1.354l0.47,0.388H22.32c0.222,0.129,0.33,0.322,0.33,0.58
		C22.649,27.485,22.641,27.568,22.622,27.623z"/>
</g>
</svg>
