<?xml version="1.0" encoding="utf-8"?>
<!-- Generator: Adobe Illustrator 16.0.0, SVG Export Plug-In . SVG Version: 6.00 Build 0)  -->
<!DOCTYPE svg PUBLIC "-//W3C//DTD SVG 1.1//EN" "http://www.w3.org/Graphics/SVG/1.1/DTD/svg11.dtd">
<svg version="1.1" id="Layer_1" xmlns="http://www.w3.org/2000/svg" xmlns:xlink="http://www.w3.org/1999/xlink" x="0px" y="0px"
	 width="192px" height="720px" viewBox="-0.225 -0.572 192 720" enable-background="new -0.225 -0.572 192 720"
	 xml:space="preserve">
<g id="Layer_1_1_">
</g>
<g id="Layer_2">
	<polygon fill="#ED9888" points="5.344,184.637 27.246,163.128 53.932,158.541 64.448,151.032 79.077,132.874 110.859,138.938 
		137.984,147.206 154.535,145.204 171.833,145.204 183.161,160.561 191.775,208.92 146.332,239.428 38.208,220.383 12.29,220.383 
		-0.225,216.259 	"/>
	<g>
		<g opacity="0.7">
			<g>
				<g>
					<defs>
						<rect id="SVGID_1_" x="46.037" y="48.407" width="30.061" height="43.705"/>
					</defs>
					<clipPath id="SVGID_2_">
						<use xlink:href="#SVGID_1_"  overflow="visible"/>
					</clipPath>
					<path clip-path="url(#SVGID_2_)" fill="#A86543" d="M75.898,87.116c-0.467,2.272-1.841,4.246-4.284,4.81
						c-4.263,0.984-9.241-2.148-12.476-4.604c-4.684-3.557-8.123-8.567-10.443-13.939c-3.072-7.116-5.442-21.667,4.535-24.715
						c3.257-0.995,6.118,0.979,6.918,4.252c0.439,1.792,0.338,3.665,0.341,5.509c0.003,4.064,0.584,8.316,2.922,11.632
						C67.366,75.668,77.652,78.591,75.898,87.116"/>
				</g>
			</g>
		</g>
		<g opacity="0.5">
			<g>
				<g>
					<defs>
						<rect id="SVGID_3_" x="67.766" y="10.417" width="112.892" height="185.118"/>
					</defs>
					<clipPath id="SVGID_4_">
						<use xlink:href="#SVGID_3_"  overflow="visible"/>
					</clipPath>
					<path clip-path="url(#SVGID_4_)" fill="#A86543" d="M118.976,11.133c32.073,6.509,33.249,47.089,36.066,73.033
						c2.939,27.079,10.443,54.377,22.192,78.931c2.624,5.486,5.366,12.464,1.506,17.154c-5.229,6.347-14.082,1.84-18.908-2.498
						c-10.552-9.483-16.537-22.936-22.224-35.967c0.189,12.643,5.515,24.559,8.367,36.872c1.297,5.604,1.481,12.744-3.406,15.736
						c-3.623,2.219-8.425,0.912-11.951-1.456c-4.177-2.807-7.323-6.898-10.109-11.1c-7.313-11.041-12.664-23.392-15.722-36.295
						c0.56,3.463,1.119,6.924,1.68,10.388c0.818,5.052,2.993,14.766-3.419,17.27c-3.617,1.413-6.354-0.982-8.429-3.654
						c-5.104-6.562-8.223-15.649-10.245-23.665c0.914,3.622,1.476,7.336,1.677,11.069c0.274,5.103-3.659,9.904-7.838,4.423
						c-3.949-5.179-5.631-11.398-7.163-17.632c-1.853-7.549-2.398-15.609-2.926-23.176c-1.269-18.268,1.027-35.868,3.771-53.835
						C75.555,42.744,87.458,4.738,118.976,11.133"/>
				</g>
			</g>
		</g>
		<path fill="#683A2A" d="M79.075,66.639c0,0,1.031,0.047,2.825,0.207c0.898,0.069,1.984,0.177,3.229,0.308
			c1.247,0.117,2.645,0.301,4.175,0.479c3.06,0.269,6.606,0.612,10.392,1.071c0.452,0.056,0.967,0.098,1.425,0.141
			c0.467,0.044,0.933,0.07,1.396,0.09c0.923,0.026,1.832-0.005,2.689-0.152l0.635-0.135l0.604-0.197l0.074-0.023l0.019-0.008
			c-0.118,0.052-0.021,0.01-0.04,0.02l0.042-0.02l0.177-0.078l0.35-0.152l0.173-0.077l0.127-0.074l0.253-0.146
			c0.719-0.419,1.451-1.019,2.104-1.684c0.339-0.327,0.656-0.687,0.972-1.054l0.233-0.278l0.117-0.141l0.016-0.017
			c-0.047,0.062-0.004,0.007-0.013,0.016l0.03-0.039l0.059-0.075l0.464-0.613c0.654-0.829,1.135-1.598,1.667-2.401
			c1.016-1.653,1.851-3.383,2.545-5.111c0.704-1.726,1.179-3.476,1.561-5.149c0.146-0.846,0.353-1.663,0.436-2.47
			c0.053-0.403,0.105-0.8,0.158-1.189c0.029-0.392,0.058-0.776,0.086-1.152c0.11-1.507,0.106-2.902,0.047-4.139
			c-0.083-1.232-0.167-2.319-0.323-3.2c-0.107-0.892-0.268-1.58-0.361-2.054c-0.092-0.477-0.143-0.731-0.143-0.731
			s0.097,0.24,0.273,0.689c0.17,0.455,0.456,1.112,0.699,1.988c0.276,0.867,0.541,1.943,0.777,3.198
			c0.204,1.257,0.407,2.693,0.439,4.273c0.008,0.395,0.016,0.8,0.021,1.211c-0.015,0.411-0.031,0.83-0.047,1.257
			c-0.015,0.856-0.133,1.733-0.228,2.641c-0.281,1.796-0.662,3.692-1.291,5.591c-0.641,1.891-1.449,3.808-2.501,5.638
			c-0.55,0.904-1.13,1.882-1.735,2.668l-0.451,0.623l-0.141,0.188l-0.128,0.158l-0.254,0.314c-0.346,0.419-0.702,0.836-1.092,1.233
			c-0.782,0.801-1.633,1.532-2.677,2.152l-0.41,0.23l-0.209,0.114l-0.175,0.078l-0.349,0.155l-0.174,0.079l-0.045,0.02l-0.085,0.035
			l-0.026,0.01l-0.106,0.033l-0.846,0.265l-0.849,0.176c-2.264,0.375-4.393,0.071-6.279-0.206c-1.91-0.312-3.753-0.629-5.497-0.947
			c-1.74-0.323-3.39-0.616-4.894-0.951c-1.495-0.375-2.867-0.698-4.076-1.03c-1.212-0.316-2.265-0.601-3.13-0.853
			C80.058,66.96,79.075,66.639,79.075,66.639"/>
		<path fill="#683A2A" d="M62.97,55.127c0,0-0.266,0.288-0.762,0.829c-0.486,0.543-1.261,1.326-2.065,2.368
			c-0.855,1.007-1.815,2.333-2.883,3.872c-0.497,0.793-1.056,1.617-1.591,2.521c-0.261,0.456-0.526,0.925-0.8,1.404
			c-0.274,0.478-0.554,0.967-0.806,1.487c-0.521,1.028-1.079,2.092-1.571,3.238c-0.25,0.568-0.531,1.135-0.768,1.733
			c-0.241,0.596-0.484,1.202-0.731,1.816c-0.949,2.472-1.859,5.117-2.621,7.913c-0.788,2.787-1.475,5.705-2.045,8.702
			c-0.576,2.986-1.095,6.066-1.447,9.125c-0.191,1.558-0.382,3.116-0.571,4.667c-0.126,1.529-0.254,3.054-0.378,4.565
			c-0.154,1.504-0.198,3.018-0.257,4.51c-0.031,0.744-0.061,1.485-0.089,2.221c-0.027,0.735-0.073,1.464-0.052,2.188
			c0.036,2.893-0.022,5.691,0.198,8.326c0.082,1.318,0.159,2.603,0.233,3.841c0.144,1.232,0.283,2.424,0.415,3.566
			c0.066,0.568,0.13,1.129,0.193,1.676c0.06,0.546,0.122,1.078,0.226,1.591c0.185,1.028,0.358,2.005,0.522,2.924
			c0.164,0.914,0.317,1.771,0.457,2.564c0.192,0.78,0.369,1.496,0.527,2.146c0.641,2.584,1.005,4.062,1.005,4.062l0.048,0.193
			c0.388,1.567-0.563,3.155-2.124,3.546c-1.561,0.39-3.141-0.563-3.528-2.134c-0.009-0.033-0.02-0.079-0.025-0.111
			c0,0-0.327-1.584-0.9-4.358c-0.14-0.691-0.296-1.46-0.466-2.294c-0.116-0.844-0.243-1.755-0.379-2.728
			c-0.133-0.974-0.276-2.009-0.426-3.1c-0.088-0.546-0.133-1.106-0.172-1.684c-0.045-0.575-0.09-1.165-0.137-1.766
			c-0.091-1.202-0.185-2.453-0.283-3.749c-0.042-1.297-0.058-2.637-0.087-4.014c-0.118-2.756,0.054-5.65,0.137-8.643
			c0.009-0.749,0.084-1.501,0.143-2.258c0.061-0.756,0.12-1.519,0.183-2.285c0.121-1.533,0.229-3.083,0.45-4.648
			c0.192-1.563,0.387-3.138,0.583-4.718c0.252-1.545,0.503-3.095,0.755-4.646c0.493-3.164,1.143-6.258,1.856-9.313
			c0.709-3.051,1.533-6.029,2.46-8.871c0.9-2.852,1.951-5.555,3.035-8.074c0.282-0.626,0.56-1.244,0.832-1.853
			c0.271-0.609,0.584-1.19,0.868-1.771c0.56-1.166,1.182-2.25,1.766-3.297c0.281-0.528,0.592-1.027,0.897-1.513
			c0.305-0.487,0.601-0.963,0.89-1.429c0.596-0.917,1.21-1.753,1.76-2.558c1.172-1.557,2.221-2.889,3.183-3.935
			c0.92-1.091,1.695-1.81,2.209-2.34c0.518-0.521,0.794-0.799,0.794-0.799c0.361-0.364,0.948-0.364,1.311,0
			C63.296,54.188,63.304,54.761,62.97,55.127"/>
		<path fill="#683A2A" d="M43.705,167.451c0.169,0.038,0.345,0.036,0.521-0.023c0.459-0.157,0.721-0.666,0.75-1.149
			c0.029-0.484-0.125-0.96-0.255-1.429c-0.284-1.011-1.461-3.513-0.619-4.347c0.704,0.767,0.665,1.541,0.829,2.574
			c0.174,1.106,0.395,2.208,0.74,3.273c0.414,1.275,2.912,6.913,4.94,5.617c0.283-0.181,0.464-0.487,0.573-0.807
			c0.437-1.259-0.079-2.625-0.567-3.863c-1.006-2.558-1.931-5.228-1.871-7.979c0.065-2.964,1.47-6.378-0.254-9.121
			c-1.69-2.692-5.515-0.489-6.424,1.915c-1.623,4.289-2.095,10.195,0.381,14.236C42.744,166.829,43.196,167.33,43.705,167.451"/>
		<path fill="#874E35" d="M95.259,42.541c-0.186-0.036-0.372-0.06-0.56-0.076L55.614,19.381c-1.447-1.271-3.139-2.151-5.028-2.519
			c-3.619-0.704-7.278,0.604-10.302,3.294l-6.397-3.262c-0.919-0.818-1.976-1.376-3.15-1.604
			c-5.201-1.015-10.691,4.781-12.264,12.943c-1.468,7.612,0.993,14.593,5.55,16.319c0.329,0.124,0.669,0.225,1.018,0.292
			c0.64,0.125,1.283,0.146,1.923,0.071l8.05,0.998c1.784,3.871,4.784,6.646,8.555,7.38l45.59,9.753
			c0.605,0.397,1.27,0.687,1.99,0.826c4.135,0.806,8.41-3.319,9.545-9.21C101.83,48.776,99.396,43.346,95.259,42.541"/>
		<path fill="#683A2A" d="M53.636,37.185c-1.136,6.518-5.291,11.232-9.282,10.531c-3.99-0.701-6.305-6.556-5.17-13.074
			c1.135-6.518,5.291-11.232,9.282-10.531C52.456,24.813,54.771,30.666,53.636,37.185"/>
		<path fill="#FFFFFF" d="M52.565,36.108c-1.137,6.518-5.291,11.233-9.282,10.531c-3.99-0.703-6.306-6.557-5.169-13.074
			c1.135-6.519,5.291-11.234,9.281-10.532C51.386,23.737,53.702,29.589,52.565,36.108"/>
		<path fill="#683A2A" d="M34.596,32.068c-0.891,5.113-4.151,8.811-7.281,8.26c-3.13-0.551-4.946-5.143-4.054-10.254
			c0.891-5.116,4.149-8.812,7.28-8.262C33.671,22.363,35.485,26.954,34.596,32.068"/>
		<path fill="#FFFFFF" d="M33.526,30.992c-0.891,5.114-4.15,8.812-7.28,8.261c-3.13-0.55-4.946-5.142-4.055-10.254
			c0.892-5.115,4.15-8.811,7.281-8.261C32.601,21.289,34.416,25.878,33.526,30.992"/>
		<g opacity="0.7">
			<g>
				<g>
					<defs>
						<rect id="SVGID_5_" x="72.117" y="33.945" width="40.762" height="68.48"/>
					</defs>
					<clipPath id="SVGID_6_">
						<use xlink:href="#SVGID_5_"  overflow="visible"/>
					</clipPath>
					<path clip-path="url(#SVGID_6_)" fill="#A86543" d="M92.98,48.534c-0.014,0.138-0.025,0.272-0.037,0.407
						c-0.489,5.523-0.01,11.146,1.884,16.387c1.544,4.276,4.449,8.126,7.878,11.062c3.571,3.058,8.388,5.267,9.761,10.162
						c1.502,5.36-1.222,11.538-5.98,14.274c-8.03,4.618-16.186-1.668-21.684-7.316c-5.763-5.92-9.482-13.751-11.318-21.773
						c-1.555-6.797-1.845-14.119-0.545-20.98c0.85-4.483,2.511-9.129,5.5-12.635c3.035-3.562,9.278-6.262,12.903-1.983
						C94.12,39.419,93.345,44.603,92.98,48.534"/>
				</g>
			</g>
		</g>
		<path fill="#874E35" d="M149.617,52.599c-0.999,0.418-2.143,0.383-3.175-0.227c-2.744-1.62-2.399-6.524-3.075-9.248
			c-0.67-2.701-1.503-5.362-2.559-7.937c-2.086-5.088-5.091-9.898-9.361-13.417c-0.685-0.563-1.397-1.093-2.139-1.583
			c-0.342-0.226-0.688-0.441-1.042-0.646c-1.878-1.084-5.635-1.741-6.552-3.911c-0.94-2.229,0.262-5.92,0.755-8.141
			c0.386-1.74,0.64-3.428,1.543-5.021c0.702-1.235,1.741-2.32,3.057-2.847c0.945-0.38,2.183-0.21,2.909,0.602
			c1.041,1.163,0.438,2.717,0.01,4.003c-0.729,2.192-1.457,4.384-2.186,6.574c0.876-2.636,4.013-4.979,6.258-6.437
			c2.562-1.67,5.585-2.634,8.641-2.709c2.027-0.05,4.156,0.32,5.745,1.585c1.387,1.103,2.266,3.121,1.755,4.917
			c-0.623,2.196-3.048,3.049-4.969,3.739c-2.953,1.062-6.077,2.54-8.415,4.694c7.13-2.894,15.536-2.993,22.341,0.6
			c1.068,0.565,2.103,1.22,2.964,2.069c1.254,1.239,2.107,2.881,2.405,4.623c0.162,0.949,0.154,1.955-0.227,2.839
			c-0.285,0.657-0.767,1.215-1.312,1.675c-1.895,1.596-4.498,2.044-6.969,2.044c-2.999,0.002-5.872-0.505-8.824,0.313
			c1.94,0.3,3.863,0.728,5.751,1.277c3.89,1.136,8.386,3.462,10.074,7.477c1.559,3.702-1.279,7.196-5.149,6.739
			c-1.829-0.216-3.497-1.135-5.028-2.163c-1.655-1.11-3.328-2.171-5.028-3.222c1.154,0.711,2.129,2.765,2.719,3.941
			c0.907,1.808,2.064,5,0.534,6.741C150.655,52.016,150.154,52.375,149.617,52.599"/>
		<path fill="#683A2A" d="M97.65,53.814c0,0-0.022,0.093-0.068,0.274c-0.021,0.091-0.05,0.205-0.083,0.338
			c-0.023,0.116-0.051,0.249-0.082,0.399c-0.126,0.623-0.299,1.585-0.396,2.82c-0.204,2.464-0.116,6.12,0.924,10.322
			c0.518,2.095,1.266,4.318,2.317,6.506c1.052,2.184,2.411,4.344,4.115,6.165c1.696,1.822,3.751,3.262,5.977,3.946
			c0.558,0.174,1.124,0.306,1.698,0.383c0.288,0.038,0.574,0.075,0.869,0.087l0.216,0.016c0.033,0.002-0.178-0.012-0.072-0.007
			l0.037,0.002l0.072,0.001l0.143,0.004l0.561,0.007c0.407-0.025,1.011-0.085,1.514-0.194c0.517-0.116,1.011-0.287,1.493-0.5
			c1.921-0.851,3.69-2.632,5.263-4.819c1.574-2.182,2.968-4.694,4.327-7.201c1.36-2.514,2.695-5.048,4.113-7.456
			c1.414-2.41,2.922-4.703,4.564-6.746c1.641-2.041,3.429-3.821,5.229-5.231c0.903-0.702,1.808-1.309,2.674-1.834
			c0.879-0.508,1.708-0.947,2.487-1.287c1.556-0.694,2.844-1.082,3.722-1.315c0.88-0.223,1.354-0.319,1.354-0.319
			c2.752-0.564,5.439,1.221,5.999,3.987c0.562,2.767-1.213,5.466-3.966,6.032c-0.045,0.008-0.09,0.017-0.135,0.024l-0.103,0.019
			c0,0-0.284,0.048-0.812,0.141c-0.523,0.106-1.287,0.284-2.223,0.634c-0.937,0.346-2.044,0.885-3.262,1.717
			c-1.217,0.842-2.543,1.985-3.898,3.486c-1.356,1.496-2.74,3.333-4.14,5.432c-1.405,2.097-2.826,4.451-4.371,6.957
			c-1.559,2.502-3.218,5.171-5.362,7.815c-1.073,1.315-2.282,2.626-3.723,3.826c-1.433,1.192-3.124,2.276-5.033,2.985
			c-0.949,0.353-1.94,0.619-2.94,0.773c-1.015,0.147-1.951,0.208-3.077,0.167l-0.593-0.043l-0.395-0.029l-0.353-0.043
			c-0.472-0.055-0.94-0.137-1.404-0.229c-0.929-0.188-1.841-0.455-2.715-0.787c-3.527-1.329-6.355-3.683-8.455-6.213
			c-2.118-2.548-3.605-5.294-4.715-7.965c-1.103-2.676-1.817-5.298-2.278-7.743c-0.92-4.899-0.791-9.096-0.384-12.005
			c0.198-1.46,0.464-2.589,0.672-3.376c0.055-0.203,0.104-0.381,0.145-0.534c0.041-0.131,0.075-0.244,0.103-0.335
			c0.055-0.18,0.084-0.271,0.084-0.271c0.367-1.202,1.636-1.878,2.833-1.509C97.268,51.444,97.932,52.649,97.65,53.814"/>
		<path fill="#874E35" d="M47.218,35.751c0.327-0.248,0.562-0.627,0.652-1.179c0.397-2.463-5.202-3.917-6.5-2.492
			c-0.896,0.983,0.04,2.393,0.911,2.946C43.365,35.718,45.969,36.693,47.218,35.751"/>
		<path fill="#874E35" d="M25.542,28.271c-2.033,1.215,1.401,3.641,2.958,2.907C31.4,29.811,27.533,27.081,25.542,28.271"/>
		<path fill="#683A2A" d="M56.3,17.987c0,0,0.436,0.234,1.152,0.698c0.175,0.123,0.395,0.219,0.585,0.401
			c0.199,0.174,0.416,0.361,0.646,0.563c0.231,0.205,0.487,0.422,0.732,0.672c0.222,0.262,0.458,0.534,0.702,0.821
			c0.518,0.563,0.94,1.264,1.408,2c0.251,0.361,0.419,0.773,0.628,1.182c0.19,0.416,0.419,0.829,0.576,1.275
			c0.159,0.447,0.317,0.903,0.479,1.364c0.177,0.459,0.248,0.952,0.377,1.433c0.262,0.963,0.35,1.976,0.491,2.975
			c0.037,1.011,0.136,2.019,0.047,3.012c-0.018,0.994-0.171,1.964-0.325,2.896c-0.063,0.465-0.218,0.913-0.317,1.354
			c-0.122,0.438-0.2,0.873-0.364,1.276c-0.313,0.809-0.577,1.577-0.946,2.236c-0.169,0.333-0.345,0.647-0.503,0.946
			c-0.179,0.291-0.371,0.553-0.539,0.804c-0.343,0.5-0.646,0.925-0.956,1.231c-0.592,0.632-0.934,0.969-0.934,0.969
			s0.22-0.447,0.611-1.189c0.22-0.354,0.393-0.84,0.612-1.375c0.108-0.269,0.236-0.545,0.346-0.849
			c0.094-0.311,0.183-0.641,0.291-0.973c0.244-0.657,0.369-1.417,0.539-2.197c0.108-0.383,0.132-0.801,0.197-1.214
			c0.044-0.418,0.139-0.835,0.146-1.274c0.016-0.436,0.048-0.876,0.075-1.32c0.04-0.444-0.008-0.899,0.001-1.355
			c0.024-0.91-0.108-1.829-0.167-2.749c-0.16-0.907-0.244-1.829-0.48-2.705c-0.169-0.894-0.443-1.74-0.681-2.57
			c-0.104-0.421-0.292-0.802-0.422-1.197c-0.145-0.389-0.261-0.784-0.438-1.136c-0.328-0.719-0.604-1.427-0.963-2.024
			c-0.164-0.312-0.321-0.608-0.471-0.893c-0.17-0.266-0.33-0.518-0.481-0.755c-0.299-0.481-0.567-0.918-0.849-1.248
			C56.576,18.398,56.3,17.987,56.3,17.987"/>
		<path fill="#683A2A" d="M63.973,23.119c0,0,0.219,0.145,0.575,0.415c0.184,0.13,0.394,0.304,0.618,0.536
			c0.116,0.112,0.24,0.231,0.371,0.359c0.127,0.128,0.236,0.278,0.365,0.43c0.124,0.153,0.26,0.31,0.389,0.48
			c0.122,0.174,0.238,0.362,0.363,0.552c0.263,0.375,0.468,0.814,0.694,1.258c0.188,0.46,0.402,0.936,0.533,1.445
			c0.17,0.5,0.251,1.031,0.356,1.555c0.053,0.532,0.13,1.064,0.116,1.591c0.023,0.526-0.042,1.042-0.083,1.539
			c-0.086,0.493-0.153,0.969-0.29,1.405c-0.062,0.221-0.117,0.434-0.181,0.637c-0.072,0.201-0.156,0.393-0.227,0.574
			c-0.078,0.183-0.138,0.361-0.222,0.522c-0.084,0.158-0.165,0.309-0.241,0.448c-0.145,0.285-0.291,0.52-0.427,0.704
			c-0.263,0.374-0.422,0.573-0.422,0.573s0.049-0.262,0.155-0.692c0.062-0.213,0.11-0.479,0.169-0.78
			c0.062-0.297,0.126-0.633,0.176-1.001c0.065-0.363,0.101-0.762,0.143-1.179c0.059-0.413,0.034-0.859,0.069-1.309
			c-0.014-0.454,0.002-0.917-0.043-1.39c-0.017-0.473-0.091-0.946-0.146-1.422c-0.087-0.471-0.156-0.945-0.279-1.401
			c-0.095-0.463-0.248-0.901-0.368-1.339c-0.166-0.417-0.274-0.85-0.455-1.226c-0.164-0.386-0.316-0.753-0.487-1.082
			c-0.158-0.338-0.318-0.632-0.467-0.895c-0.144-0.267-0.271-0.508-0.398-0.695C64.097,23.351,63.973,23.119,63.973,23.119"/>
		<path fill="#683A2A" d="M39.991,58.102c0.197-0.467,0.283-0.995,0.243-1.497c-0.097-1.198-0.733-2.276-1.376-3.29
			c-1.274-2.012-2.12-4.542-2.438-6.918c-0.146-1.091-0.292-2.442-1.311-2.841c-0.481-0.188-1.021-0.086-1.521,0.04
			c-3.459,0.88-6.57,2.974-8.805,5.757c-1.397,1.738-3.341,4.45-3.095,6.812c0.12,1.148,1.243,2.438,2.446,2.358
			c1.957-0.134,2.771-2.767,3.305-4.268c0.478-1.338,1.1-2.753,2.333-3.446c-1.794,3.148-2.648,6.829-2.425,10.454
			c0.098,1.56,0.322,3.445,1.375,4.718c1.072,1.293,3.473,2.597,4.792,1.006c1.347-1.626,0.255-3.802-0.104-5.597
			c-0.269-1.346-0.499-2.703-0.619-4.072c-0.117-1.349,0.151-2.77,0.01-4.089c0.296,2.749,1.549,6.044,4.778,6.321
			c0.327,0.028,0.662,0.019,0.978-0.072C39.227,59.285,39.719,58.751,39.991,58.102"/>
		<path fill="#874E35" d="M109.087,57.141c0.109-0.518,0.142-1.055,0.059-1.576c-0.099-0.611-0.362-1.193-0.756-1.669
			c-2.528-3.059-5.874,0.717-5.523,3.612c0.161,1.321,1.157,2.572,2.468,2.781c0.888,0.143,1.817-0.197,2.483-0.805
			C108.483,58.876,108.899,58.026,109.087,57.141"/>
		<path fill="#FFFFFF" d="M108.257,56.306c0.107-0.518,0.145-1.055,0.059-1.576c-0.1-0.609-0.362-1.193-0.756-1.669
			c-2.527-3.059-5.873,0.717-5.522,3.612c0.16,1.323,1.156,2.572,2.467,2.781c0.889,0.144,1.817-0.197,2.481-0.806
			C107.651,58.041,108.068,57.191,108.257,56.306"/>
		<path fill="#874E35" d="M99.081,17.407c0,0-0.117-0.206-0.3-0.573c-0.08-0.189-0.214-0.399-0.341-0.642
			c-0.065-0.121-0.135-0.247-0.207-0.383c-0.084-0.13-0.17-0.27-0.251-0.415c-0.157-0.297-0.374-0.591-0.576-0.913
			c-0.198-0.322-0.445-0.639-0.687-0.97c-0.256-0.32-0.505-0.66-0.794-0.976c-0.267-0.333-0.581-0.626-0.871-0.943
			c-0.319-0.282-0.617-0.594-0.949-0.847c-0.312-0.283-0.653-0.505-0.971-0.75c-0.335-0.208-0.649-0.442-0.975-0.609
			C92,9.296,91.842,9.209,91.691,9.124c-0.156-0.081-0.31-0.146-0.457-0.216c-0.295-0.151-0.578-0.25-0.833-0.347
			c-0.254-0.101-0.483-0.183-0.676-0.233c-0.385-0.11-0.619-0.197-0.619-0.197s0.227-0.066,0.641-0.144
			c0.104-0.018,0.22-0.044,0.346-0.06c0.127-0.005,0.263-0.009,0.41-0.011c0.146-0.003,0.306-0.012,0.473-0.008
			c0.166,0.01,0.337,0.04,0.52,0.062c0.369,0.032,0.755,0.132,1.159,0.26c0.207,0.054,0.407,0.135,0.608,0.229
			c0.202,0.092,0.417,0.174,0.618,0.286c0.398,0.229,0.814,0.47,1.188,0.774c0.396,0.281,0.739,0.633,1.092,0.972
			c0.322,0.365,0.655,0.722,0.925,1.117c0.293,0.378,0.523,0.788,0.755,1.177c0.202,0.404,0.397,0.794,0.551,1.178
			c0.154,0.384,0.277,0.752,0.368,1.1c0.105,0.339,0.164,0.667,0.211,0.958c0.054,0.287,0.079,0.537,0.087,0.741
			C99.082,17.172,99.081,17.407,99.081,17.407"/>
		<path fill="#874E35" d="M101.454,15.299c0,0-0.144-0.169-0.366-0.478c-0.112-0.152-0.251-0.34-0.395-0.561
			c-0.074-0.109-0.15-0.226-0.232-0.349c-0.078-0.127-0.143-0.272-0.219-0.418c-0.149-0.296-0.312-0.618-0.466-0.969
			c-0.172-0.348-0.27-0.734-0.396-1.133c-0.116-0.4-0.261-0.811-0.301-1.253c-0.065-0.437-0.115-0.883-0.169-1.33
			c0.002-0.483-0.019-0.851,0.039-1.335c0.026-0.463,0.123-0.889,0.207-1.304c0.113-0.409,0.224-0.804,0.377-1.162
			c0.075-0.177,0.144-0.353,0.221-0.518c0.076-0.164,0.174-0.313,0.254-0.46c0.085-0.146,0.157-0.288,0.243-0.414
			c0.092-0.122,0.181-0.238,0.263-0.346c0.158-0.222,0.312-0.398,0.458-0.531c0.272-0.273,0.438-0.414,0.438-0.414
			s-0.064,0.218-0.197,0.567c-0.072,0.169-0.135,0.392-0.208,0.635c-0.082,0.242-0.158,0.517-0.229,0.818
			c-0.084,0.297-0.136,0.626-0.205,0.968c-0.074,0.338-0.091,0.709-0.149,1.079c-0.021,0.377-0.067,0.767-0.066,1.144
			c-0.022,0.351,0,0.837,0.005,1.207c0.041,0.399,0.085,0.8,0.11,1.196c0.012,0.399,0.104,0.784,0.16,1.164
			c0.076,0.374,0.085,0.757,0.178,1.095c0.085,0.341,0.147,0.672,0.204,0.981c0.055,0.309,0.12,0.6,0.188,0.856
			c0.066,0.255,0.111,0.48,0.151,0.667C101.425,15.079,101.454,15.299,101.454,15.299"/>
		<path fill="#874E35" d="M103.375,14.43c0,0-0.068-0.136-0.174-0.375c-0.059-0.116-0.104-0.269-0.138-0.459
			c-0.021-0.095-0.043-0.195-0.064-0.303c-0.012-0.106-0.012-0.217-0.02-0.334c-0.021-0.237-0.001-0.491,0.037-0.758
			c0.029-0.271,0.106-0.548,0.194-0.829c0.111-0.271,0.205-0.568,0.374-0.83c0.078-0.135,0.149-0.274,0.245-0.399l0.138-0.194
			l0.069-0.096l0.032-0.048l0.019-0.024l0.009-0.012l0.005-0.006l0.03-0.035c0.205-0.206,0.413-0.411,0.616-0.611
			c0.181-0.212,0.467-0.372,0.703-0.543c0.243-0.161,0.479-0.338,0.716-0.438c0.232-0.114,0.459-0.209,0.668-0.296
			c0.201-0.097,0.397-0.156,0.577-0.202c0.174-0.052,0.329-0.087,0.455-0.12c0.256-0.06,0.401-0.084,0.401-0.084
			s-0.114,0.102-0.319,0.264c-0.196,0.168-0.508,0.358-0.841,0.636c-0.168,0.137-0.349,0.281-0.546,0.423
			c-0.204,0.136-0.356,0.329-0.556,0.482c-0.189,0.167-0.383,0.313-0.576,0.542c-0.196,0.209-0.395,0.423-0.594,0.636
			c-0.023,0.027,0.031-0.035,0.025-0.028l-0.002,0.002l-0.005,0.007l-0.008,0.009l-0.015,0.02l-0.03,0.04l-0.061,0.079l-0.123,0.159
			c-0.086,0.101-0.15,0.217-0.221,0.329c-0.146,0.221-0.269,0.447-0.387,0.671c-0.094,0.23-0.217,0.45-0.284,0.671
			c-0.07,0.223-0.152,0.433-0.188,0.634c-0.056,0.204-0.09,0.388-0.104,0.555c-0.025,0.167-0.051,0.322-0.044,0.455
			C103.389,14.28,103.375,14.43,103.375,14.43"/>
		<path fill="#683A2A" d="M71.12,56.615c0,0-0.205,0.43-0.589,1.236c-0.19,0.403-0.428,0.899-0.706,1.484
			c-0.15,0.293-0.272,0.604-0.395,0.935c-0.125,0.33-0.261,0.683-0.402,1.052c-0.28,0.744-0.619,1.546-0.891,2.497
			c-0.146,0.468-0.298,0.954-0.456,1.458c-0.164,0.501-0.323,1.023-0.453,1.58c-0.584,2.193-1.16,4.696-1.642,7.471
			c-0.121,0.693-0.243,1.401-0.369,2.124c-0.108,0.727-0.217,1.468-0.331,2.222c-0.114,0.752-0.223,1.521-0.32,2.306
			c-0.1,0.769-0.199,1.55-0.301,2.342c-0.166,1.628-0.335,3.302-0.506,5.013c-0.082,0.853-0.189,1.725-0.248,2.588
			c-0.046,0.859-0.092,1.729-0.139,2.604c-0.047,0.875-0.093,1.757-0.141,2.646c-0.041,0.888-0.118,1.776-0.103,2.689
			c-0.011,1.812-0.021,3.647-0.03,5.495c-0.025,0.924,0.028,1.852,0.07,2.781c0.041,0.929,0.081,1.86,0.121,2.795
			c0.041,0.934,0.081,1.867,0.122,2.804l0.254,2.791l0.259,2.846c0.091,0.944,0.158,1.904,0.302,2.813
			c0.251,1.839,0.503,3.669,0.754,5.485c0.105,0.906,0.299,1.812,0.458,2.713c0.163,0.899,0.328,1.796,0.488,2.686
			c0.164,0.89,0.324,1.774,0.484,2.651c0.196,0.871,0.395,1.735,0.587,2.595c0.396,1.713,0.759,3.401,1.164,5.041
			c0.445,1.632,0.88,3.229,1.306,4.78c0.217,0.775,0.408,1.547,0.638,2.293c0.237,0.746,0.47,1.48,0.701,2.201
			c0.459,1.442,0.903,2.836,1.329,4.175c0.93,2.649,1.837,5.058,2.61,7.203c0.866,2.107,1.621,3.946,2.244,5.458
			c0.154,0.38,0.304,0.737,0.441,1.073c0.065,0.158,0.129,0.312,0.189,0.459c0.071,0.159,0.142,0.312,0.206,0.46
			c0.266,0.592,0.489,1.094,0.673,1.5c0.363,0.813,0.558,1.25,0.558,1.25c0.761,1.699,0.006,3.698-1.686,4.464
			c-1.689,0.766-3.679,0.007-4.441-1.693c-0.013-0.029-0.031-0.073-0.043-0.103c0,0-0.18-0.44-0.518-1.267
			c-0.168-0.413-0.378-0.922-0.623-1.521c-0.06-0.149-0.125-0.306-0.19-0.467c-0.065-0.176-0.135-0.354-0.206-0.541
			c-0.134-0.355-0.273-0.731-0.423-1.128c-0.594-1.588-1.311-3.517-2.139-5.729c-0.731-2.246-1.587-4.769-2.459-7.539
			c-0.395-1.397-0.809-2.854-1.236-4.36c-0.213-0.753-0.429-1.519-0.65-2.296c-0.21-0.78-0.384-1.583-0.583-2.391
			c-0.386-1.618-0.781-3.28-1.186-4.98c-0.363-1.707-0.682-3.465-1.033-5.245c-0.17-0.891-0.344-1.786-0.518-2.691
			c-0.137-0.911-0.273-1.831-0.412-2.753c-0.137-0.923-0.276-1.853-0.416-2.784c-0.132-0.936-0.299-1.864-0.379-2.824
			c-0.2-1.905-0.4-3.828-0.603-5.76c-0.119-0.973-0.152-1.912-0.212-2.864l-0.167-2.852l-0.168-2.906
			c-0.011-0.966-0.021-1.932-0.033-2.896c-0.011-0.962-0.021-1.924-0.033-2.882c-0.011-0.958-0.033-1.914,0.021-2.863
			c0.072-1.9,0.144-3.786,0.213-5.649c0.017-0.929,0.126-1.859,0.197-2.779c0.079-0.922,0.157-1.836,0.236-2.743
			c0.078-0.906,0.155-1.806,0.234-2.694c0.089-0.883,0.223-1.734,0.332-2.59c0.228-1.704,0.452-3.371,0.668-4.993
			c0.133-0.828,0.265-1.645,0.395-2.449c0.125-0.791,0.26-1.567,0.403-2.335c0.141-0.766,0.275-1.52,0.41-2.258
			c0.153-0.738,0.304-1.462,0.45-2.172c0.587-2.838,1.268-5.423,1.954-7.695c0.155-0.571,0.34-1.117,0.527-1.641
			c0.184-0.525,0.36-1.03,0.53-1.517c0.312-0.973,0.714-1.864,1.052-2.667c0.171-0.4,0.332-0.779,0.483-1.138
			c0.148-0.361,0.293-0.692,0.449-0.97c0.297-0.575,0.548-1.063,0.752-1.459c0.41-0.793,0.629-1.215,0.629-1.215
			c0.352-0.685,1.188-0.949,1.869-0.596c0.667,0.348,0.935,1.161,0.613,1.836L71.12,56.615z"/>
		<path fill="#683A2A" d="M73.164,193.276c0.204,0.049,0.415,0.045,0.63-0.027c0.552-0.188,0.868-0.801,0.904-1.387
			c0.035-0.585-0.149-1.156-0.308-1.724c-0.343-1.216-1.76-4.231-0.746-5.238c0.848,0.924,0.801,1.857,0.998,3.104
			c0.21,1.335,0.476,2.661,0.894,3.946c0.499,1.539,3.511,8.333,5.958,6.772c0.34-0.22,0.558-0.591,0.689-0.975
			c0.523-1.517-0.097-3.164-0.684-4.656c-1.213-3.084-2.328-6.303-2.257-9.62c0.079-3.574,1.772-7.69-0.305-10.997
			c-2.04-3.246-6.652-0.591-7.749,2.311c-1.957,5.17-2.526,12.292,0.462,17.161C72.006,192.53,72.551,193.134,73.164,193.276"/>
		<path fill="#874E35" d="M155.805,100.709c0,0,0.142,0.1,0.374,0.29c0.112,0.096,0.255,0.21,0.408,0.348
			c0.076,0.069,0.156,0.145,0.242,0.222c0.087,0.07,0.192,0.128,0.288,0.202c0.188,0.136,0.396,0.284,0.611,0.443
			c0.194,0.167,0.475,0.29,0.711,0.451c0.248,0.151,0.486,0.331,0.77,0.451c0.272,0.132,0.543,0.275,0.81,0.423
			c0.287,0.108,0.569,0.224,0.846,0.341c0.271,0.137,0.557,0.206,0.827,0.304c0.137,0.051,0.27,0.101,0.399,0.148
			c0.129,0.058,0.259,0.104,0.387,0.134c0.256,0.071,0.501,0.147,0.728,0.228c0.115,0.043,0.225,0.083,0.329,0.118
			c0.106,0.024,0.208,0.051,0.305,0.079c0.192,0.055,0.363,0.102,0.509,0.151c0.286,0.09,0.459,0.169,0.459,0.169
			s-0.154,0.083-0.444,0.186c-0.146,0.058-0.326,0.109-0.534,0.169c-0.21,0.072-0.45,0.118-0.713,0.124
			c-0.264,0.02-0.552,0.027-0.858,0.027c-0.308,0.012-0.616-0.078-0.946-0.133c-0.325-0.069-0.667-0.129-0.984-0.28
			c-0.323-0.133-0.65-0.273-0.973-0.421c-0.303-0.188-0.603-0.378-0.891-0.574c-0.299-0.176-0.544-0.426-0.787-0.65
			c-0.235-0.235-0.479-0.428-0.664-0.687c-0.179-0.251-0.348-0.487-0.502-0.707c-0.076-0.106-0.146-0.214-0.203-0.314
			c-0.049-0.104-0.095-0.205-0.137-0.299c-0.084-0.188-0.149-0.358-0.207-0.497C155.857,100.875,155.805,100.709,155.805,100.709"/>
		<path fill="#874E35" d="M155.89,102.977c0,0,0.164,0.147,0.427,0.417c0.262,0.271,0.623,0.664,1.036,1.137
			c0.203,0.233,0.427,0.487,0.66,0.756c0.227,0.272,0.491,0.531,0.733,0.821c0.264,0.27,0.52,0.562,0.8,0.829
			c0.271,0.284,0.565,0.536,0.852,0.801c0.268,0.207,0.649,0.538,0.925,0.703c0.283,0.215,0.615,0.393,0.923,0.581
			c0.154,0.095,0.321,0.151,0.474,0.238c0.155,0.081,0.309,0.165,0.466,0.214c0.311,0.114,0.603,0.244,0.889,0.309
			c0.145,0.041,0.282,0.08,0.413,0.117c0.135,0.023,0.261,0.045,0.382,0.065c0.241,0.042,0.462,0.089,0.641,0.085
			c0.363,0.02,0.588,0.045,0.588,0.045s-0.187,0.103-0.542,0.254c-0.178,0.086-0.402,0.152-0.67,0.198
			c-0.135,0.028-0.277,0.058-0.43,0.088c-0.152,0.014-0.312,0.01-0.481,0.017c-0.168-0.001-0.352,0.02-0.532-0.003
			c-0.181-0.02-0.367-0.052-0.56-0.079c-0.388-0.055-0.782-0.179-1.187-0.315c-0.389-0.164-0.798-0.327-1.191-0.585
			c-0.441-0.247-0.691-0.474-1.091-0.773c-0.323-0.31-0.66-0.607-0.936-0.945c-0.299-0.322-0.543-0.673-0.782-1.007
			c-0.447-0.686-0.817-1.348-1.071-1.941c-0.271-0.583-0.443-1.095-0.562-1.452C155.94,103.192,155.89,102.977,155.89,102.977"/>
		<path fill="#874E35" d="M155.805,99.204c0,0,0.183,0.007,0.488,0.034c0.308,0.021,0.739,0.071,1.239,0.098
			c0.496,0.026,1.064,0.024,1.591-0.099c0.261-0.062,0.502-0.163,0.721-0.302c0.055-0.033,0.11-0.066,0.157-0.111l0.076-0.062
			l0.037-0.03c0.045-0.042-0.055,0.057-0.044,0.044l0.003-0.002l0.006-0.007l0.01-0.012l0.022-0.023
			c0.111-0.127,0.24-0.258,0.34-0.383c0.051-0.109,0.114-0.208,0.181-0.311l0.175-0.403c0.06-0.138,0.089-0.29,0.14-0.431
			l0.033-0.108c0.002-0.009-0.009,0.069-0.005,0.035v-0.004l0.002-0.008l0.003-0.016l0.006-0.031l0.011-0.061l0.045-0.243
			c0.065-0.32,0.146-0.634,0.143-0.893c0.007-0.269,0.083-0.527,0.052-0.777c-0.012-0.249-0.004-0.483-0.008-0.693
			c-0.017-0.206-0.042-0.386-0.06-0.536c-0.032-0.303-0.043-0.486-0.043-0.486s0.096,0.146,0.247,0.42
			c0.07,0.14,0.18,0.304,0.26,0.508c0.067,0.207,0.153,0.443,0.229,0.707c0.095,0.259,0.107,0.571,0.153,0.896
			c0.05,0.341,0.028,0.647,0.019,0.974l-0.012,0.246l-0.004,0.062l-0.002,0.031l-0.001,0.016v0.009l-0.007,0.045l-0.023,0.136
			c-0.036,0.182-0.063,0.365-0.118,0.55c-0.062,0.186-0.123,0.368-0.197,0.556c-0.104,0.198-0.214,0.398-0.337,0.589
			c-0.114,0.146-0.228,0.264-0.341,0.398l-0.02,0.023l-0.011,0.012l-0.06,0.061l-0.062,0.05l-0.129,0.098
			c-0.081,0.067-0.171,0.125-0.264,0.177c-0.365,0.212-0.766,0.336-1.143,0.376c-0.378,0.042-0.731,0.022-1.054-0.034
			c-0.319-0.063-0.613-0.125-0.866-0.231c-0.516-0.185-0.905-0.403-1.174-0.572C155.943,99.319,155.805,99.204,155.805,99.204"/>
		<path fill="#874E35" d="M155.783,133.625c1.065-0.04,1.957-0.929,2.313-1.94c0.355-1.011,0.276-2.119,0.132-3.182
			c-0.192-1.397-0.491-2.778-0.898-4.129c-0.324-1.077-0.735-2.169-1.521-2.97c-0.785-0.803-2.031-1.243-3.057-0.795
			c-0.946,0.413-1.472,1.442-1.737,2.444c-0.81,3.029,0.11,6.371,2.015,8.856C153.713,132.809,154.661,133.668,155.783,133.625"/>
		<path fill="#874E35" d="M162.251,143.249c-0.068-1.549-1.375-5.368-3.689-4.03c-1.928,1.115-0.246,4.354,1.031,5.297
			c0.671,0.495,1.698,0.757,2.276,0.154C162.219,144.31,162.274,143.756,162.251,143.249"/>
		<path fill="#874E35" d="M165.238,150.657c0.411-3.739-4.59-2.765-1.494,0.266c0.368,0.363,1.042,0.598,1.35,0.183
			C165.188,150.977,165.221,150.813,165.238,150.657"/>
		<path fill="#874E35" d="M103.729,54.965c-0.173,0.444-0.331,0.922-0.244,1.39c0.088,0.467,0.513,0.905,0.981,0.837
			c0.353-0.054,0.61-0.358,0.792-0.667c0.236-0.402,0.404-0.846,0.492-1.305c0.104-0.545,0.017-1.241-0.495-1.45
			c-0.334-0.138-0.731,0.008-0.989,0.261C104.009,54.284,103.861,54.629,103.729,54.965"/>
		<path fill="#FFFFFF" d="M109.253,73.685c0.251-0.839,0.015-2.175-0.307-2.815c-0.294-0.594-0.724-0.615-1.364-0.653
			c-1.193-0.07-2.763,0.172-3.809,0.796c-0.767,0.457-0.817,1.581-0.79,2.381c0.062,1.784,2.562,2.007,3.821,1.73
			c0.666-0.147,1.758-0.416,2.222-0.981C109.126,74.02,109.2,73.862,109.253,73.685"/>
		<path fill="#FFFFFF" d="M112.881,70.138c-0.887-0.401-1.671-1.281-1.961-2.151c-0.435-1.301,1.538-2.983,2.529-3.441
			c1.896-0.879,3.747,1.998,2.858,3.665c-0.51,0.952-1.643,2.359-2.882,2.106C113.244,70.279,113.06,70.219,112.881,70.138"/>
		<path fill="#FFFFFF" d="M118.891,58.655c-0.005-0.021-0.008-0.039-0.014-0.059c-0.103-0.448-0.433-0.839-0.855-1.013
			c-0.953-0.391-1.629,0.372-2.032,1.149c-0.478,0.919-1.288,2.276-0.102,2.858c0.554,0.271,1.228,0.541,1.756,0.219
			c0.259-0.157,0.424-0.43,0.563-0.698c0.192-0.366,0.357-0.746,0.497-1.136C118.854,59.553,118.972,59.096,118.891,58.655"/>
	</g>
</g>
<g>
	<polygon fill="#ED9888" points="5.344,424.637 27.246,403.128 53.932,398.541 64.448,391.032 79.077,372.874 110.859,378.938 
		137.984,387.206 154.535,385.204 171.833,385.204 183.161,400.561 191.775,448.92 146.332,479.428 38.208,460.383 12.29,460.383 
		-0.225,456.259 	"/>
	<g opacity="0.7">
		<g>
			<g>
				<defs>
					<rect id="SVGID_7_" x="46.037" y="288.406" width="30.061" height="43.706"/>
				</defs>
				<clipPath id="SVGID_8_">
					<use xlink:href="#SVGID_7_"  overflow="visible"/>
				</clipPath>
				<path clip-path="url(#SVGID_8_)" fill="#A86543" d="M75.898,327.115c-0.467,2.273-1.841,4.247-4.284,4.811
					c-4.263,0.985-9.241-2.147-12.476-4.604c-4.684-3.557-8.123-8.566-10.443-13.939c-3.072-7.115-5.442-21.666,4.535-24.715
					c3.257-0.995,6.118,0.979,6.918,4.252c0.439,1.794,0.338,3.665,0.341,5.51c0.003,4.064,0.584,8.316,2.922,11.632
					C67.366,315.669,77.652,318.592,75.898,327.115"/>
			</g>
		</g>
	</g>
	<g opacity="0.5">
		<g>
			<g>
				<defs>
					<rect id="SVGID_9_" x="67.766" y="250.418" width="112.892" height="185.117"/>
				</defs>
				<clipPath id="SVGID_10_">
					<use xlink:href="#SVGID_9_"  overflow="visible"/>
				</clipPath>
				<path clip-path="url(#SVGID_10_)" fill="#A86543" d="M118.976,251.134c32.073,6.508,33.249,47.089,36.066,73.032
					c2.939,27.079,10.443,54.376,22.192,78.931c2.624,5.486,5.366,12.464,1.506,17.154c-5.229,6.347-14.082,1.84-18.908-2.498
					c-10.552-9.483-16.537-22.936-22.224-35.967c0.189,12.643,5.515,24.559,8.367,36.872c1.297,5.604,1.481,12.744-3.406,15.736
					c-3.623,2.219-8.425,0.912-11.951-1.456c-4.177-2.807-7.323-6.898-10.109-11.1c-7.313-11.041-12.664-23.392-15.722-36.295
					c0.56,3.463,1.119,6.924,1.68,10.388c0.818,5.052,2.993,14.766-3.419,17.27c-3.617,1.413-6.354-0.982-8.429-3.654
					c-5.104-6.562-8.223-15.649-10.245-23.665c0.914,3.622,1.476,7.336,1.677,11.069c0.274,5.103-3.659,9.904-7.838,4.423
					c-3.949-5.179-5.631-11.398-7.163-17.632c-1.853-7.549-2.398-15.609-2.926-23.176c-1.269-18.269,1.027-35.868,3.771-53.835
					C75.555,282.743,87.458,244.738,118.976,251.134"/>
			</g>
		</g>
	</g>
	<path fill="#683A2A" d="M79.075,306.64c0,0,1.031,0.047,2.825,0.206c0.898,0.069,1.984,0.178,3.229,0.309
		c1.247,0.117,2.645,0.301,4.175,0.479c3.06,0.27,6.606,0.612,10.392,1.072c0.452,0.056,0.967,0.097,1.425,0.14
		c0.467,0.044,0.933,0.069,1.396,0.09c0.923,0.026,1.832-0.005,2.689-0.151l0.635-0.136l0.604-0.197l0.074-0.023l0.019-0.008
		c-0.118,0.052-0.021,0.01-0.04,0.02l0.042-0.02l0.177-0.077l0.35-0.152l0.173-0.076l0.127-0.074l0.253-0.146
		c0.719-0.419,1.451-1.02,2.104-1.684c0.339-0.327,0.656-0.688,0.972-1.054l0.233-0.278l0.117-0.141l0.016-0.018
		c-0.047,0.062-0.004,0.008-0.013,0.016l0.03-0.039l0.059-0.074l0.464-0.613c0.654-0.828,1.135-1.598,1.667-2.402
		c1.016-1.652,1.851-3.383,2.545-5.109c0.704-1.726,1.179-3.477,1.561-5.15c0.146-0.846,0.353-1.663,0.436-2.47
		c0.053-0.403,0.105-0.8,0.158-1.188c0.029-0.393,0.058-0.776,0.086-1.152c0.11-1.508,0.106-2.902,0.047-4.139
		c-0.083-1.232-0.167-2.319-0.323-3.2c-0.107-0.892-0.268-1.58-0.361-2.054c-0.092-0.476-0.143-0.73-0.143-0.73
		s0.097,0.24,0.273,0.689c0.17,0.454,0.456,1.111,0.699,1.987c0.276,0.867,0.541,1.943,0.777,3.197
		c0.204,1.257,0.407,2.693,0.439,4.273c0.008,0.396,0.016,0.801,0.021,1.212c-0.015,0.41-0.031,0.83-0.047,1.257
		c-0.015,0.855-0.133,1.732-0.228,2.64c-0.281,1.797-0.662,3.692-1.291,5.591c-0.641,1.891-1.449,3.808-2.501,5.638
		c-0.55,0.904-1.13,1.882-1.735,2.669l-0.451,0.622l-0.141,0.188l-0.128,0.158l-0.254,0.314c-0.346,0.419-0.702,0.836-1.092,1.233
		c-0.782,0.801-1.633,1.532-2.677,2.152l-0.41,0.23l-0.209,0.114l-0.175,0.076l-0.349,0.156l-0.174,0.078l-0.045,0.021l-0.085,0.035
		l-0.026,0.01l-0.106,0.033l-0.846,0.265l-0.849,0.176c-2.264,0.375-4.393,0.07-6.279-0.205c-1.91-0.312-3.753-0.63-5.497-0.948
		c-1.74-0.322-3.39-0.614-4.894-0.949c-1.495-0.376-2.867-0.699-4.076-1.03c-1.212-0.316-2.265-0.601-3.13-0.853
		C80.058,306.96,79.075,306.64,79.075,306.64"/>
	<path fill="#683A2A" d="M62.97,295.128c0,0-0.266,0.287-0.762,0.828c-0.486,0.544-1.261,1.326-2.065,2.367
		c-0.855,1.008-1.815,2.334-2.883,3.873c-0.497,0.793-1.056,1.616-1.591,2.521c-0.261,0.456-0.526,0.926-0.8,1.403
		c-0.274,0.479-0.554,0.968-0.806,1.488c-0.521,1.027-1.079,2.091-1.571,3.237c-0.25,0.568-0.531,1.136-0.768,1.733
		c-0.241,0.596-0.484,1.201-0.731,1.815c-0.949,2.472-1.859,5.117-2.621,7.913c-0.788,2.787-1.475,5.705-2.045,8.702
		c-0.576,2.985-1.095,6.066-1.447,9.125c-0.191,1.559-0.382,3.116-0.571,4.666c-0.126,1.53-0.254,3.055-0.378,4.566
		c-0.154,1.504-0.198,3.018-0.257,4.509c-0.031,0.744-0.061,1.485-0.089,2.221c-0.027,0.736-0.073,1.464-0.052,2.188
		c0.036,2.893-0.022,5.691,0.198,8.326c0.082,1.318,0.159,2.603,0.233,3.841c0.144,1.232,0.283,2.424,0.415,3.566
		c0.066,0.568,0.13,1.129,0.193,1.676c0.06,0.546,0.122,1.078,0.226,1.591c0.185,1.028,0.358,2.005,0.522,2.924
		c0.164,0.914,0.317,1.771,0.457,2.564c0.192,0.78,0.369,1.496,0.527,2.146c0.641,2.584,1.005,4.062,1.005,4.062l0.048,0.193
		c0.388,1.567-0.563,3.155-2.124,3.546c-1.561,0.39-3.141-0.563-3.528-2.134c-0.009-0.033-0.02-0.079-0.025-0.111
		c0,0-0.327-1.584-0.9-4.358c-0.14-0.691-0.296-1.46-0.466-2.294c-0.116-0.844-0.243-1.755-0.379-2.728
		c-0.133-0.974-0.276-2.009-0.426-3.1c-0.088-0.546-0.133-1.107-0.172-1.684c-0.045-0.575-0.09-1.165-0.137-1.766
		c-0.091-1.202-0.185-2.453-0.283-3.749c-0.042-1.297-0.058-2.637-0.087-4.014c-0.118-2.756,0.054-5.65,0.137-8.644
		c0.009-0.748,0.084-1.5,0.143-2.258c0.061-0.755,0.12-1.518,0.183-2.284c0.121-1.533,0.229-3.084,0.45-4.648
		c0.192-1.563,0.387-3.139,0.583-4.719c0.252-1.546,0.503-3.095,0.755-4.646c0.493-3.164,1.143-6.258,1.856-9.313
		c0.709-3.051,1.533-6.029,2.46-8.871c0.9-2.851,1.951-5.555,3.035-8.074c0.282-0.627,0.56-1.243,0.832-1.853
		c0.271-0.608,0.584-1.19,0.868-1.77c0.56-1.167,1.182-2.251,1.766-3.297c0.281-0.528,0.592-1.027,0.897-1.514
		c0.305-0.487,0.601-0.963,0.89-1.429c0.596-0.916,1.21-1.753,1.76-2.558c1.172-1.558,2.221-2.889,3.183-3.936
		c0.92-1.092,1.695-1.81,2.209-2.341c0.518-0.521,0.794-0.799,0.794-0.799c0.361-0.362,0.948-0.362,1.311,0
		C63.296,294.188,63.304,294.762,62.97,295.128"/>
	<path fill="#683A2A" d="M43.705,407.451c0.169,0.038,0.345,0.036,0.521-0.023c0.459-0.157,0.721-0.666,0.75-1.149
		c0.029-0.484-0.125-0.96-0.255-1.43c-0.284-1.01-1.461-3.512-0.619-4.346c0.704,0.767,0.665,1.541,0.829,2.574
		c0.174,1.106,0.395,2.208,0.74,3.273c0.414,1.275,2.912,6.913,4.94,5.617c0.283-0.181,0.464-0.487,0.573-0.807
		c0.437-1.259-0.079-2.625-0.567-3.864c-1.006-2.557-1.931-5.227-1.871-7.979c0.065-2.964,1.47-6.378-0.254-9.121
		c-1.69-2.692-5.515-0.489-6.424,1.915c-1.623,4.289-2.095,10.195,0.381,14.236C42.744,406.829,43.196,407.33,43.705,407.451"/>
	<path fill="#874E35" d="M95.259,282.541c-0.186-0.035-0.372-0.06-0.56-0.076l-39.085-23.084c-1.447-1.271-3.139-2.151-5.028-2.518
		c-3.619-0.705-7.278,0.604-10.302,3.294l-6.397-3.262c-0.919-0.817-1.976-1.377-3.15-1.604c-5.201-1.015-10.691,4.78-12.264,12.942
		c-1.468,7.613,0.993,14.594,5.55,16.32c0.329,0.123,0.669,0.224,1.018,0.292c0.64,0.125,1.283,0.146,1.923,0.071l8.05,0.997
		c1.784,3.871,4.784,6.646,8.555,7.381l45.59,9.753c0.605,0.396,1.27,0.687,1.99,0.826c4.135,0.806,8.41-3.319,9.545-9.211
		C101.83,288.776,99.396,283.346,95.259,282.541"/>
	<path fill="#683A2A" d="M53.636,277.185c-1.136,6.519-5.291,11.232-9.282,10.531c-3.99-0.701-6.305-6.556-5.17-13.074
		c1.135-6.519,5.291-11.233,9.282-10.531C52.456,264.813,54.771,270.666,53.636,277.185"/>
	<path fill="#FFFFFF" d="M53.68,276.971c-1.19,0.208-5.416-0.046-9.442-0.564c-4.027-0.521-6.329-1.112-5.141-1.32
		c1.188-0.209,5.416,0.044,9.442,0.564C52.567,276.171,54.869,276.763,53.68,276.971"/>
	<path fill="#683A2A" d="M34.596,272.069c-0.891,5.112-4.151,8.81-7.281,8.26c-3.13-0.552-4.946-5.144-4.054-10.254
		c0.891-5.116,4.149-8.812,7.28-8.262C33.671,262.363,35.485,266.954,34.596,272.069"/>
	<g opacity="0.7">
		<g>
			<g>
				<defs>
					<rect id="SVGID_11_" x="72.117" y="273.944" width="40.762" height="68.481"/>
				</defs>
				<clipPath id="SVGID_12_">
					<use xlink:href="#SVGID_11_"  overflow="visible"/>
				</clipPath>
				<path clip-path="url(#SVGID_12_)" fill="#A86543" d="M92.98,288.534c-0.014,0.138-0.025,0.272-0.037,0.407
					c-0.489,5.522-0.01,11.146,1.884,16.387c1.544,4.276,4.449,8.126,7.878,11.062c3.571,3.059,8.388,5.267,9.761,10.162
					c1.502,5.359-1.222,11.538-5.98,14.274c-8.03,4.617-16.186-1.668-21.684-7.317c-5.763-5.919-9.482-13.751-11.318-21.772
					c-1.555-6.798-1.845-14.118-0.545-20.98c0.85-4.482,2.511-9.128,5.5-12.635c3.035-3.562,9.278-6.263,12.903-1.984
					C94.12,279.418,93.345,284.603,92.98,288.534"/>
			</g>
		</g>
	</g>
	<path fill="#874E35" d="M149.617,292.599c-0.999,0.418-2.143,0.383-3.175-0.226c-2.744-1.62-2.399-6.525-3.075-9.249
		c-0.67-2.699-1.503-5.362-2.559-7.937c-2.086-5.088-5.091-9.898-9.361-13.417c-0.685-0.563-1.397-1.092-2.139-1.582
		c-0.342-0.227-0.688-0.441-1.042-0.647c-1.878-1.085-5.635-1.74-6.552-3.91c-0.94-2.229,0.262-5.921,0.755-8.141
		c0.386-1.739,0.64-3.429,1.543-5.021c0.702-1.235,1.741-2.32,3.057-2.848c0.945-0.38,2.183-0.21,2.909,0.602
		c1.041,1.163,0.438,2.718,0.01,4.004c-0.729,2.191-1.457,4.383-2.186,6.574c0.876-2.637,4.013-4.979,6.258-6.438
		c2.562-1.67,5.585-2.634,8.641-2.709c2.027-0.051,4.156,0.319,5.745,1.584c1.387,1.103,2.266,3.121,1.755,4.918
		c-0.623,2.197-3.048,3.05-4.969,3.739c-2.953,1.062-6.077,2.54-8.415,4.694c7.13-2.895,15.536-2.993,22.341,0.6
		c1.068,0.565,2.103,1.22,2.964,2.069c1.254,1.239,2.107,2.881,2.405,4.623c0.162,0.949,0.154,1.955-0.227,2.838
		c-0.285,0.658-0.767,1.216-1.312,1.677c-1.895,1.595-4.498,2.044-6.969,2.044c-2.999,0.002-5.872-0.506-8.824,0.312
		c1.94,0.3,3.863,0.729,5.751,1.276c3.89,1.137,8.386,3.464,10.074,7.478c1.559,3.702-1.279,7.196-5.149,6.739
		c-1.829-0.217-3.497-1.135-5.028-2.162c-1.655-1.11-3.328-2.172-5.028-3.223c1.154,0.712,2.129,2.766,2.719,3.94
		c0.907,1.81,2.064,5.001,0.534,6.742C150.655,292.016,150.154,292.375,149.617,292.599"/>
	<path fill="#683A2A" d="M97.65,293.813c0,0-0.022,0.095-0.068,0.274c-0.021,0.092-0.05,0.206-0.083,0.339
		c-0.023,0.115-0.051,0.248-0.082,0.399c-0.126,0.622-0.299,1.586-0.396,2.82c-0.204,2.464-0.116,6.119,0.924,10.321
		c0.518,2.095,1.266,4.317,2.317,6.507c1.052,2.184,2.411,4.344,4.115,6.165c1.696,1.821,3.751,3.262,5.977,3.945
		c0.558,0.175,1.124,0.306,1.698,0.383c0.288,0.038,0.574,0.074,0.869,0.087l0.216,0.017c0.033,0.002-0.178-0.013-0.072-0.008
		l0.037,0.002l0.072,0.002l0.143,0.004l0.561,0.006c0.407-0.024,1.011-0.084,1.514-0.193c0.517-0.115,1.011-0.287,1.493-0.499
		c1.921-0.852,3.69-2.633,5.263-4.82c1.574-2.181,2.968-4.693,4.327-7.2c1.36-2.515,2.695-5.048,4.113-7.457
		c1.414-2.409,2.922-4.702,4.564-6.745c1.641-2.04,3.429-3.82,5.229-5.231c0.903-0.701,1.808-1.31,2.674-1.834
		c0.879-0.508,1.708-0.947,2.487-1.287c1.556-0.694,2.844-1.082,3.722-1.316c0.88-0.222,1.354-0.318,1.354-0.318
		c2.752-0.565,5.439,1.221,5.999,3.986c0.562,2.767-1.213,5.467-3.966,6.032c-0.045,0.008-0.09,0.018-0.135,0.023l-0.103,0.02
		c0,0-0.284,0.048-0.812,0.142c-0.523,0.105-1.287,0.283-2.223,0.634c-0.937,0.346-2.044,0.885-3.262,1.717
		c-1.217,0.842-2.543,1.984-3.898,3.486c-1.356,1.495-2.74,3.332-4.14,5.432c-1.405,2.097-2.826,4.451-4.371,6.957
		c-1.559,2.503-3.218,5.171-5.362,7.815c-1.073,1.314-2.282,2.626-3.723,3.826c-1.433,1.191-3.124,2.276-5.033,2.984
		c-0.949,0.354-1.94,0.619-2.94,0.772c-1.015,0.148-1.951,0.208-3.077,0.169l-0.593-0.043l-0.395-0.029l-0.353-0.044
		c-0.472-0.055-0.94-0.137-1.404-0.229c-0.929-0.188-1.841-0.454-2.715-0.787c-3.527-1.327-6.355-3.683-8.455-6.212
		c-2.118-2.549-3.605-5.295-4.715-7.966c-1.103-2.676-1.817-5.297-2.278-7.741c-0.92-4.899-0.791-9.097-0.384-12.007
		c0.198-1.46,0.464-2.589,0.672-3.376c0.055-0.201,0.104-0.381,0.145-0.534c0.041-0.131,0.075-0.243,0.103-0.335
		c0.055-0.179,0.084-0.271,0.084-0.271c0.367-1.201,1.636-1.878,2.833-1.508C97.268,291.445,97.932,292.649,97.65,293.813"/>
	<path fill="#683A2A" d="M56.3,257.986c0,0,0.436,0.235,1.152,0.698c0.175,0.123,0.395,0.219,0.585,0.4
		c0.199,0.175,0.416,0.362,0.646,0.563c0.231,0.205,0.487,0.422,0.732,0.672c0.222,0.263,0.458,0.534,0.702,0.821
		c0.518,0.562,0.94,1.264,1.408,2c0.251,0.36,0.419,0.773,0.628,1.182c0.19,0.416,0.419,0.829,0.576,1.275
		c0.159,0.446,0.317,0.902,0.479,1.363c0.177,0.459,0.248,0.951,0.377,1.433c0.262,0.963,0.35,1.976,0.491,2.976
		c0.037,1.011,0.136,2.019,0.047,3.012c-0.018,0.994-0.171,1.964-0.325,2.896c-0.063,0.465-0.218,0.912-0.317,1.354
		c-0.122,0.438-0.2,0.873-0.364,1.275c-0.313,0.81-0.577,1.576-0.946,2.236c-0.169,0.333-0.345,0.647-0.503,0.945
		c-0.179,0.292-0.371,0.555-0.539,0.805c-0.343,0.5-0.646,0.925-0.956,1.23c-0.592,0.633-0.934,0.97-0.934,0.97
		s0.22-0.447,0.611-1.189c0.22-0.354,0.393-0.84,0.612-1.376c0.108-0.269,0.236-0.545,0.346-0.849
		c0.094-0.31,0.183-0.64,0.291-0.973c0.244-0.658,0.369-1.417,0.539-2.196c0.108-0.384,0.132-0.801,0.197-1.214
		c0.044-0.419,0.139-0.836,0.146-1.274c0.016-0.438,0.048-0.877,0.075-1.32c0.04-0.444-0.008-0.899,0.001-1.355
		c0.024-0.909-0.108-1.828-0.167-2.749c-0.16-0.907-0.244-1.829-0.48-2.704c-0.169-0.894-0.443-1.739-0.681-2.569
		c-0.104-0.421-0.292-0.802-0.422-1.197c-0.145-0.389-0.261-0.783-0.438-1.137c-0.328-0.719-0.604-1.428-0.963-2.023
		c-0.164-0.312-0.321-0.609-0.471-0.893c-0.17-0.267-0.33-0.518-0.481-0.756c-0.299-0.481-0.567-0.918-0.849-1.248
		C56.576,258.398,56.3,257.986,56.3,257.986"/>
	<path fill="#683A2A" d="M63.973,263.119c0,0,0.219,0.144,0.575,0.415c0.184,0.13,0.394,0.305,0.618,0.535
		c0.116,0.111,0.24,0.231,0.371,0.358c0.127,0.129,0.236,0.279,0.365,0.431c0.124,0.152,0.26,0.311,0.389,0.479
		c0.122,0.175,0.238,0.362,0.363,0.552c0.263,0.376,0.468,0.814,0.694,1.26c0.188,0.46,0.402,0.936,0.533,1.444
		c0.17,0.5,0.251,1.031,0.356,1.555c0.053,0.532,0.13,1.063,0.116,1.592c0.023,0.525-0.042,1.041-0.083,1.538
		c-0.086,0.493-0.153,0.97-0.29,1.405c-0.062,0.22-0.117,0.434-0.181,0.637c-0.072,0.201-0.156,0.393-0.227,0.574
		c-0.078,0.182-0.138,0.36-0.222,0.522c-0.084,0.156-0.165,0.309-0.241,0.448c-0.145,0.284-0.291,0.519-0.427,0.703
		c-0.263,0.374-0.422,0.573-0.422,0.573s0.049-0.262,0.155-0.692c0.062-0.213,0.11-0.479,0.169-0.779
		c0.062-0.298,0.126-0.635,0.176-1.003c0.065-0.363,0.101-0.762,0.143-1.179c0.059-0.413,0.034-0.859,0.069-1.309
		c-0.014-0.454,0.002-0.917-0.043-1.39c-0.017-0.473-0.091-0.946-0.146-1.423c-0.087-0.47-0.156-0.944-0.279-1.4
		c-0.095-0.463-0.248-0.901-0.368-1.339c-0.166-0.417-0.274-0.85-0.455-1.226c-0.164-0.387-0.316-0.754-0.487-1.082
		c-0.158-0.338-0.318-0.632-0.467-0.895c-0.144-0.268-0.271-0.509-0.398-0.695C64.097,263.351,63.973,263.119,63.973,263.119"/>
	<path fill="#683A2A" d="M39.991,298.102c0.197-0.466,0.283-0.995,0.243-1.497c-0.097-1.198-0.733-2.275-1.376-3.29
		c-1.274-2.012-2.12-4.542-2.438-6.919c-0.146-1.09-0.292-2.441-1.311-2.841c-0.481-0.187-1.021-0.086-1.521,0.042
		c-3.459,0.879-6.57,2.974-8.805,5.756c-1.397,1.738-3.341,4.449-3.095,6.812c0.12,1.147,1.243,2.438,2.446,2.357
		c1.957-0.133,2.771-2.767,3.305-4.268c0.478-1.338,1.1-2.753,2.333-3.446c-1.794,3.148-2.648,6.829-2.425,10.455
		c0.098,1.559,0.322,3.444,1.375,4.718c1.072,1.292,3.473,2.596,4.792,1.006c1.347-1.627,0.255-3.802-0.104-5.597
		c-0.269-1.347-0.499-2.703-0.619-4.072c-0.117-1.349,0.151-2.771,0.01-4.089c0.296,2.749,1.549,6.045,4.778,6.32
		c0.327,0.028,0.662,0.02,0.978-0.071C39.227,299.285,39.719,298.751,39.991,298.102"/>
	<path fill="#874E35" d="M109.087,297.142c0.109-0.519,0.142-1.055,0.059-1.576c-0.099-0.612-0.362-1.193-0.756-1.669
		c-2.528-3.06-5.874,0.716-5.523,3.611c0.161,1.321,1.157,2.572,2.468,2.781c0.888,0.142,1.817-0.196,2.483-0.805
		C108.483,298.877,108.899,298.026,109.087,297.142"/>
	<path fill="#FFFFFF" d="M109.087,296.067c0.107-0.062,0.144-0.128,0.059-0.192c-0.1-0.074-0.362-0.146-0.756-0.204
		c-2.528-0.373-5.874,0.088-5.523,0.441c0.161,0.161,1.157,0.314,2.468,0.34c0.888,0.018,1.817-0.024,2.481-0.099
		C108.481,296.279,108.897,296.176,109.087,296.067"/>
	<path fill="#874E35" d="M99.081,257.407c0,0-0.117-0.206-0.3-0.574c-0.08-0.188-0.214-0.398-0.341-0.642
		c-0.065-0.119-0.135-0.247-0.207-0.383c-0.084-0.13-0.17-0.27-0.251-0.415c-0.157-0.297-0.374-0.591-0.576-0.913
		c-0.198-0.321-0.445-0.639-0.687-0.97c-0.256-0.32-0.505-0.659-0.794-0.976c-0.267-0.333-0.581-0.627-0.871-0.942
		c-0.319-0.282-0.617-0.595-0.949-0.847c-0.312-0.283-0.653-0.506-0.971-0.75c-0.335-0.209-0.649-0.441-0.975-0.61
		c-0.161-0.09-0.318-0.177-0.469-0.262c-0.156-0.081-0.31-0.146-0.457-0.217c-0.295-0.151-0.578-0.25-0.833-0.348
		c-0.254-0.101-0.483-0.183-0.676-0.232c-0.385-0.109-0.619-0.198-0.619-0.198s0.227-0.066,0.641-0.144
		c0.104-0.019,0.22-0.044,0.346-0.06c0.127-0.004,0.263-0.009,0.41-0.011c0.146-0.003,0.306-0.012,0.473-0.008
		c0.166,0.01,0.337,0.04,0.52,0.062c0.369,0.032,0.755,0.133,1.159,0.261c0.207,0.055,0.407,0.136,0.608,0.229
		c0.202,0.092,0.417,0.175,0.618,0.286c0.398,0.229,0.814,0.47,1.188,0.773c0.396,0.281,0.739,0.634,1.092,0.972
		c0.322,0.365,0.655,0.723,0.925,1.117c0.293,0.378,0.523,0.789,0.755,1.178c0.202,0.404,0.397,0.794,0.551,1.177
		c0.154,0.384,0.277,0.753,0.368,1.101c0.105,0.339,0.164,0.668,0.211,0.959c0.054,0.286,0.079,0.537,0.087,0.74
		C99.082,257.172,99.081,257.407,99.081,257.407"/>
	<path fill="#874E35" d="M101.454,255.3c0,0-0.144-0.17-0.366-0.479c-0.112-0.152-0.251-0.339-0.395-0.561
		c-0.074-0.109-0.15-0.225-0.232-0.349c-0.078-0.127-0.143-0.271-0.219-0.418c-0.149-0.296-0.312-0.617-0.466-0.97
		c-0.172-0.348-0.27-0.733-0.396-1.132c-0.116-0.4-0.261-0.812-0.301-1.253c-0.065-0.438-0.115-0.884-0.169-1.331
		c0.002-0.482-0.019-0.85,0.039-1.335c0.026-0.462,0.123-0.889,0.207-1.304c0.113-0.409,0.224-0.804,0.377-1.161
		c0.075-0.179,0.144-0.354,0.221-0.52c0.076-0.163,0.174-0.312,0.254-0.46c0.085-0.146,0.157-0.287,0.243-0.414
		c0.092-0.122,0.181-0.237,0.263-0.347c0.158-0.222,0.312-0.398,0.458-0.53c0.272-0.272,0.438-0.414,0.438-0.414
		s-0.064,0.22-0.197,0.568c-0.072,0.169-0.135,0.392-0.208,0.635c-0.082,0.242-0.158,0.518-0.229,0.817
		c-0.084,0.298-0.136,0.627-0.205,0.968c-0.074,0.339-0.091,0.71-0.149,1.08c-0.021,0.377-0.067,0.767-0.066,1.144
		c-0.022,0.351,0,0.837,0.005,1.207c0.041,0.398,0.085,0.8,0.11,1.195c0.012,0.399,0.104,0.785,0.16,1.165
		c0.076,0.373,0.085,0.757,0.178,1.094c0.085,0.342,0.147,0.673,0.204,0.982c0.055,0.308,0.12,0.6,0.188,0.856
		c0.066,0.254,0.111,0.479,0.151,0.667C101.425,255.079,101.454,255.3,101.454,255.3"/>
	<path fill="#874E35" d="M103.375,254.431c0,0-0.068-0.137-0.174-0.375c-0.059-0.116-0.104-0.27-0.138-0.459
		c-0.021-0.096-0.043-0.195-0.064-0.303c-0.012-0.105-0.012-0.218-0.02-0.335c-0.021-0.237-0.001-0.49,0.037-0.758
		c0.029-0.27,0.106-0.548,0.194-0.829c0.111-0.271,0.205-0.568,0.374-0.83c0.078-0.135,0.149-0.275,0.245-0.398l0.138-0.194
		l0.069-0.098l0.032-0.047l0.019-0.024l0.009-0.013l0.005-0.006l0.03-0.035c0.205-0.205,0.413-0.411,0.616-0.61
		c0.181-0.213,0.467-0.372,0.703-0.544c0.243-0.161,0.479-0.338,0.716-0.438c0.232-0.115,0.459-0.209,0.668-0.297
		c0.201-0.097,0.397-0.155,0.577-0.202c0.174-0.052,0.329-0.086,0.455-0.119c0.256-0.06,0.401-0.084,0.401-0.084
		s-0.114,0.103-0.319,0.264c-0.196,0.169-0.508,0.358-0.841,0.637c-0.168,0.137-0.349,0.28-0.546,0.423
		c-0.204,0.137-0.356,0.329-0.556,0.482c-0.189,0.167-0.383,0.314-0.576,0.542c-0.196,0.21-0.395,0.423-0.594,0.637
		c-0.023,0.026,0.031-0.035,0.025-0.028l-0.002,0.002l-0.005,0.008l-0.008,0.009l-0.015,0.021l-0.03,0.039l-0.061,0.079
		l-0.123,0.159c-0.086,0.101-0.15,0.217-0.221,0.328c-0.146,0.221-0.269,0.447-0.387,0.671c-0.094,0.231-0.217,0.45-0.284,0.672
		c-0.07,0.223-0.152,0.433-0.188,0.634c-0.056,0.204-0.09,0.388-0.104,0.555c-0.025,0.166-0.051,0.322-0.044,0.456
		C103.389,254.28,103.375,254.431,103.375,254.431"/>
	<path fill="#683A2A" d="M71.12,296.615c0,0-0.205,0.431-0.589,1.236c-0.19,0.402-0.428,0.899-0.706,1.483
		c-0.15,0.294-0.272,0.604-0.395,0.936c-0.125,0.329-0.261,0.683-0.402,1.052c-0.28,0.743-0.619,1.545-0.891,2.496
		c-0.146,0.468-0.298,0.953-0.456,1.458c-0.164,0.502-0.323,1.023-0.453,1.58c-0.584,2.192-1.16,4.696-1.642,7.471
		c-0.121,0.693-0.243,1.401-0.369,2.123c-0.108,0.728-0.217,1.469-0.331,2.222c-0.114,0.754-0.223,1.522-0.32,2.306
		c-0.1,0.77-0.199,1.551-0.301,2.344c-0.166,1.627-0.335,3.301-0.506,5.012c-0.082,0.854-0.189,1.727-0.248,2.589
		c-0.046,0.859-0.092,1.729-0.139,2.604c-0.047,0.875-0.093,1.757-0.141,2.646c-0.041,0.888-0.118,1.776-0.103,2.688
		c-0.011,1.812-0.021,3.647-0.03,5.495c-0.025,0.925,0.028,1.853,0.07,2.781c0.041,0.929,0.081,1.861,0.121,2.795
		c0.041,0.934,0.081,1.867,0.122,2.805l0.254,2.791l0.259,2.845c0.091,0.945,0.158,1.904,0.302,2.813
		c0.251,1.839,0.503,3.669,0.754,5.485c0.105,0.906,0.299,1.812,0.458,2.713c0.163,0.899,0.328,1.796,0.488,2.686
		c0.164,0.89,0.324,1.774,0.484,2.651c0.196,0.871,0.395,1.735,0.587,2.595c0.396,1.713,0.759,3.401,1.164,5.041
		c0.445,1.632,0.88,3.229,1.306,4.78c0.217,0.775,0.408,1.547,0.638,2.293c0.237,0.746,0.47,1.48,0.701,2.201
		c0.459,1.442,0.903,2.836,1.329,4.175c0.93,2.649,1.837,5.058,2.61,7.203c0.866,2.107,1.621,3.946,2.244,5.458
		c0.154,0.38,0.304,0.737,0.441,1.073c0.065,0.158,0.129,0.312,0.189,0.459c0.071,0.159,0.142,0.312,0.206,0.46
		c0.266,0.592,0.489,1.094,0.673,1.5c0.363,0.813,0.558,1.25,0.558,1.25c0.761,1.699,0.006,3.698-1.686,4.464
		c-1.689,0.766-3.679,0.007-4.441-1.693c-0.013-0.029-0.031-0.073-0.043-0.103c0,0-0.18-0.44-0.518-1.267
		c-0.168-0.413-0.378-0.922-0.623-1.521c-0.06-0.149-0.125-0.306-0.19-0.467c-0.065-0.176-0.135-0.354-0.206-0.541
		c-0.134-0.355-0.273-0.731-0.423-1.128c-0.594-1.589-1.311-3.517-2.139-5.729c-0.731-2.246-1.587-4.769-2.459-7.539
		c-0.395-1.397-0.809-2.854-1.236-4.36c-0.213-0.753-0.429-1.519-0.65-2.296c-0.21-0.78-0.384-1.583-0.583-2.391
		c-0.386-1.618-0.781-3.28-1.186-4.98c-0.363-1.707-0.682-3.465-1.033-5.245c-0.17-0.891-0.344-1.786-0.518-2.691
		c-0.137-0.911-0.273-1.831-0.412-2.753c-0.137-0.923-0.276-1.853-0.416-2.784c-0.132-0.936-0.299-1.864-0.379-2.824
		c-0.2-1.905-0.4-3.828-0.603-5.76c-0.119-0.973-0.152-1.911-0.212-2.865l-0.167-2.852l-0.168-2.906
		c-0.011-0.965-0.021-1.93-0.033-2.896c-0.011-0.963-0.021-1.924-0.033-2.882c-0.011-0.959-0.033-1.914,0.021-2.864
		c0.072-1.898,0.144-3.785,0.213-5.647c0.017-0.931,0.126-1.86,0.197-2.78c0.079-0.922,0.157-1.837,0.236-2.743
		c0.078-0.906,0.155-1.805,0.234-2.693c0.089-0.884,0.223-1.735,0.332-2.591c0.228-1.704,0.452-3.371,0.668-4.993
		c0.133-0.827,0.265-1.645,0.395-2.448c0.125-0.791,0.26-1.568,0.403-2.335c0.141-0.766,0.275-1.521,0.41-2.26
		c0.153-0.737,0.304-1.463,0.45-2.171c0.587-2.839,1.268-5.424,1.954-7.696c0.155-0.569,0.34-1.116,0.527-1.641
		c0.184-0.524,0.36-1.029,0.53-1.517c0.312-0.974,0.714-1.863,1.052-2.667c0.171-0.399,0.332-0.779,0.483-1.138
		c0.148-0.361,0.293-0.693,0.449-0.971c0.297-0.574,0.548-1.063,0.752-1.459c0.41-0.793,0.629-1.216,0.629-1.216
		c0.352-0.684,1.188-0.949,1.869-0.595c0.667,0.349,0.935,1.161,0.613,1.836L71.12,296.615z"/>
	<path fill="#683A2A" d="M73.164,433.276c0.204,0.049,0.415,0.045,0.63-0.027c0.552-0.188,0.868-0.801,0.904-1.387
		c0.035-0.585-0.149-1.156-0.308-1.724c-0.343-1.216-1.76-4.231-0.746-5.238c0.848,0.923,0.801,1.857,0.998,3.104
		c0.21,1.335,0.476,2.661,0.894,3.946c0.499,1.539,3.511,8.333,5.958,6.772c0.34-0.22,0.558-0.592,0.689-0.976
		c0.523-1.516-0.097-3.163-0.684-4.655c-1.213-3.084-2.328-6.303-2.257-9.62c0.079-3.574,1.772-7.69-0.305-10.997
		c-2.04-3.246-6.652-0.591-7.749,2.311c-1.957,5.17-2.526,12.292,0.462,17.161C72.006,432.53,72.551,433.134,73.164,433.276"/>
	<path fill="#874E35" d="M155.805,340.709c0,0,0.142,0.102,0.374,0.29c0.112,0.096,0.255,0.211,0.408,0.348
		c0.076,0.069,0.156,0.145,0.242,0.222c0.087,0.07,0.192,0.129,0.288,0.201c0.188,0.137,0.396,0.285,0.611,0.443
		c0.194,0.168,0.475,0.29,0.711,0.451c0.248,0.151,0.486,0.331,0.77,0.45c0.272,0.134,0.543,0.276,0.81,0.423
		c0.287,0.109,0.569,0.225,0.846,0.342c0.271,0.138,0.557,0.206,0.827,0.304c0.137,0.052,0.27,0.101,0.399,0.147
		c0.129,0.059,0.259,0.105,0.387,0.136c0.256,0.07,0.501,0.146,0.728,0.227c0.115,0.043,0.225,0.082,0.329,0.118
		c0.106,0.025,0.208,0.053,0.305,0.08c0.192,0.055,0.363,0.102,0.509,0.15c0.286,0.091,0.459,0.17,0.459,0.17
		s-0.154,0.083-0.444,0.186c-0.146,0.058-0.326,0.109-0.534,0.169c-0.21,0.072-0.45,0.119-0.713,0.125
		c-0.264,0.021-0.552,0.027-0.858,0.027c-0.308,0.012-0.616-0.079-0.946-0.135c-0.325-0.068-0.667-0.129-0.984-0.278
		c-0.323-0.134-0.65-0.273-0.973-0.421c-0.303-0.188-0.603-0.378-0.891-0.574c-0.299-0.176-0.544-0.426-0.787-0.65
		c-0.235-0.235-0.479-0.427-0.664-0.687c-0.179-0.252-0.348-0.486-0.502-0.707c-0.076-0.106-0.146-0.214-0.203-0.313
		c-0.049-0.105-0.095-0.206-0.137-0.3c-0.084-0.188-0.149-0.358-0.207-0.497C155.857,340.875,155.805,340.709,155.805,340.709"/>
	<path fill="#874E35" d="M155.89,342.977c0,0,0.164,0.146,0.427,0.417c0.262,0.271,0.623,0.664,1.036,1.137
		c0.203,0.232,0.427,0.487,0.66,0.756c0.227,0.272,0.491,0.531,0.733,0.821c0.264,0.269,0.52,0.562,0.8,0.829
		c0.271,0.283,0.565,0.535,0.852,0.801c0.268,0.206,0.649,0.537,0.925,0.702c0.283,0.216,0.615,0.394,0.923,0.582
		c0.154,0.095,0.321,0.15,0.474,0.236c0.155,0.082,0.309,0.167,0.466,0.215c0.311,0.114,0.603,0.243,0.889,0.31
		c0.145,0.041,0.282,0.08,0.413,0.116c0.135,0.023,0.261,0.045,0.382,0.064c0.241,0.043,0.462,0.09,0.641,0.086
		c0.363,0.02,0.588,0.045,0.588,0.045s-0.187,0.104-0.542,0.255c-0.178,0.086-0.402,0.15-0.67,0.197
		c-0.135,0.027-0.277,0.059-0.43,0.089c-0.152,0.014-0.312,0.01-0.481,0.017c-0.168-0.001-0.352,0.021-0.532-0.003
		c-0.181-0.02-0.367-0.053-0.56-0.08c-0.388-0.056-0.782-0.179-1.187-0.313c-0.389-0.165-0.798-0.327-1.191-0.586
		c-0.441-0.246-0.691-0.474-1.091-0.773c-0.323-0.309-0.66-0.606-0.936-0.945c-0.299-0.321-0.543-0.673-0.782-1.006
		c-0.447-0.687-0.817-1.349-1.071-1.942c-0.271-0.583-0.443-1.095-0.562-1.452C155.94,343.193,155.89,342.977,155.89,342.977"/>
	<path fill="#874E35" d="M155.805,339.204c0,0,0.183,0.007,0.488,0.034c0.308,0.021,0.739,0.07,1.239,0.098
		c0.496,0.025,1.064,0.023,1.591-0.1c0.261-0.062,0.502-0.163,0.721-0.302c0.055-0.033,0.11-0.065,0.157-0.11l0.076-0.062
		l0.037-0.029c0.045-0.043-0.055,0.056-0.044,0.043l0.003-0.002l0.006-0.006l0.01-0.013l0.022-0.022
		c0.111-0.128,0.24-0.259,0.34-0.384c0.051-0.109,0.114-0.208,0.181-0.311l0.175-0.402c0.06-0.138,0.089-0.29,0.14-0.432
		l0.033-0.108c0.002-0.009-0.009,0.069-0.005,0.035v-0.004l0.002-0.008l0.003-0.016l0.006-0.031l0.011-0.061l0.045-0.243
		c0.065-0.32,0.146-0.635,0.143-0.893c0.007-0.27,0.083-0.527,0.052-0.777c-0.012-0.249-0.004-0.483-0.008-0.693
		c-0.017-0.205-0.042-0.386-0.06-0.536c-0.032-0.303-0.043-0.485-0.043-0.485s0.096,0.145,0.247,0.419
		c0.07,0.14,0.18,0.304,0.26,0.508c0.067,0.206,0.153,0.443,0.229,0.708c0.095,0.258,0.107,0.569,0.153,0.896
		c0.05,0.342,0.028,0.646,0.019,0.974l-0.012,0.247l-0.004,0.062l-0.002,0.03l-0.001,0.017v0.009l-0.007,0.045l-0.023,0.135
		c-0.036,0.183-0.063,0.365-0.118,0.551c-0.062,0.186-0.123,0.368-0.197,0.557c-0.104,0.198-0.214,0.398-0.337,0.59
		c-0.114,0.146-0.228,0.263-0.341,0.398l-0.02,0.022l-0.011,0.013l-0.06,0.06l-0.062,0.05l-0.129,0.098
		c-0.081,0.067-0.171,0.125-0.264,0.179c-0.365,0.211-0.766,0.335-1.143,0.376c-0.378,0.041-0.731,0.021-1.054-0.035
		c-0.319-0.063-0.613-0.125-0.866-0.231c-0.516-0.185-0.905-0.403-1.174-0.571C155.943,339.318,155.805,339.204,155.805,339.204"/>
	<path fill="#874E35" d="M155.783,373.625c1.065-0.04,1.957-0.929,2.313-1.94c0.355-1.011,0.276-2.119,0.132-3.182
		c-0.192-1.397-0.491-2.778-0.898-4.129c-0.324-1.077-0.735-2.169-1.521-2.97c-0.785-0.803-2.031-1.243-3.057-0.795
		c-0.946,0.413-1.472,1.442-1.737,2.444c-0.81,3.029,0.11,6.371,2.015,8.856C153.713,372.809,154.661,373.668,155.783,373.625"/>
	<path fill="#874E35" d="M162.251,383.249c-0.068-1.549-1.375-5.368-3.689-4.03c-1.928,1.115-0.246,4.354,1.031,5.297
		c0.671,0.495,1.698,0.757,2.276,0.154C162.219,384.31,162.274,383.756,162.251,383.249"/>
	<path fill="#874E35" d="M165.238,390.657c0.411-3.739-4.59-2.765-1.494,0.266c0.368,0.363,1.042,0.598,1.35,0.183
		C165.188,390.977,165.221,390.813,165.238,390.657"/>
	<path fill="#FFFFFF" d="M109.253,313.686c0.251-0.839,0.015-2.176-0.307-2.815c-0.294-0.595-0.724-0.616-1.364-0.653
		c-1.193-0.07-2.763,0.173-3.809,0.796c-0.767,0.456-0.817,1.581-0.79,2.381c0.062,1.783,2.562,2.007,3.821,1.73
		c0.666-0.147,1.758-0.417,2.222-0.981C109.126,314.021,109.2,313.862,109.253,313.686"/>
	<path fill="#FFFFFF" d="M112.881,310.138c-0.887-0.401-1.671-1.28-1.961-2.151c-0.435-1.3,1.538-2.982,2.529-3.44
		c1.896-0.88,3.747,1.997,2.858,3.664c-0.51,0.953-1.643,2.36-2.882,2.107C113.244,310.278,113.06,310.219,112.881,310.138"/>
	<path fill="#FFFFFF" d="M118.891,298.655c-0.005-0.021-0.008-0.039-0.014-0.059c-0.103-0.448-0.433-0.84-0.855-1.014
		c-0.953-0.391-1.629,0.371-2.032,1.148c-0.478,0.92-1.288,2.277-0.102,2.858c0.554,0.271,1.228,0.541,1.756,0.22
		c0.259-0.158,0.424-0.43,0.563-0.698c0.192-0.366,0.357-0.746,0.497-1.137C118.854,299.552,118.972,299.096,118.891,298.655"/>
	<path fill="#FFFFFF" d="M34.163,273.766c-0.916,0.167-4.165-0.021-7.26-0.422c-3.096-0.401-4.865-0.862-3.95-1.03
		c0.915-0.168,4.165,0.02,7.26,0.421C33.31,273.136,35.079,273.598,34.163,273.766"/>
</g>
<g id="Layer_2_1_">
	<polygon fill="#ED9888" points="5.344,664.637 27.246,643.128 53.932,638.541 64.448,631.032 79.077,612.874 110.859,618.938 
		137.984,627.206 154.535,625.204 171.833,625.204 183.161,640.561 191.775,688.92 146.332,719.428 38.208,700.383 12.29,700.383 
		-0.225,696.259 	"/>
	<g>
		<g opacity="0.7">
			<g>
				<g>
					<defs>
						<rect id="SVGID_13_" x="46.037" y="528.407" width="30.061" height="43.705"/>
					</defs>
					<clipPath id="SVGID_14_">
						<use xlink:href="#SVGID_13_"  overflow="visible"/>
					</clipPath>
					<path clip-path="url(#SVGID_14_)" fill="#A86543" d="M75.898,567.116c-0.467,2.272-1.841,4.246-4.284,4.811
						c-4.263,0.984-9.241-2.148-12.476-4.605c-4.684-3.557-8.123-8.566-10.443-13.939c-3.072-7.115-5.442-21.666,4.535-24.715
						c3.257-0.994,6.118,0.979,6.918,4.252c0.439,1.793,0.338,3.666,0.341,5.51c0.003,4.064,0.584,8.316,2.922,11.632
						C67.366,555.668,77.652,558.591,75.898,567.116"/>
				</g>
			</g>
		</g>
		<g opacity="0.5">
			<g>
				<g>
					<defs>
						<rect id="SVGID_15_" x="67.766" y="490.417" width="112.892" height="185.118"/>
					</defs>
					<clipPath id="SVGID_16_">
						<use xlink:href="#SVGID_15_"  overflow="visible"/>
					</clipPath>
					<path clip-path="url(#SVGID_16_)" fill="#A86543" d="M118.976,491.134c32.073,6.508,33.249,47.088,36.066,73.032
						c2.939,27.079,10.443,54.377,22.192,78.931c2.624,5.486,5.366,12.464,1.506,17.154c-5.229,6.347-14.082,1.84-18.908-2.498
						c-10.552-9.483-16.537-22.936-22.224-35.967c0.189,12.643,5.515,24.559,8.367,36.872c1.297,5.604,1.481,12.744-3.406,15.736
						c-3.623,2.219-8.425,0.912-11.951-1.456c-4.177-2.807-7.323-6.898-10.109-11.1c-7.313-11.041-12.664-23.392-15.722-36.295
						c0.56,3.463,1.119,6.924,1.68,10.388c0.818,5.052,2.993,14.766-3.419,17.27c-3.617,1.413-6.354-0.982-8.429-3.654
						c-5.104-6.562-8.223-15.649-10.245-23.665c0.914,3.622,1.476,7.336,1.677,11.069c0.274,5.103-3.659,9.904-7.838,4.423
						c-3.949-5.179-5.631-11.398-7.163-17.632c-1.853-7.549-2.398-15.609-2.926-23.176c-1.269-18.269,1.027-35.868,3.771-53.835
						C75.555,522.743,87.458,484.738,118.976,491.134"/>
				</g>
			</g>
		</g>
		<path fill="#683A2A" d="M79.075,546.64c0,0,1.031,0.047,2.825,0.206c0.898,0.069,1.984,0.177,3.229,0.308
			c1.247,0.117,2.645,0.301,4.175,0.479c3.06,0.269,6.606,0.612,10.392,1.071c0.452,0.057,0.967,0.098,1.425,0.141
			c0.467,0.044,0.933,0.07,1.396,0.09c0.923,0.026,1.832-0.005,2.689-0.152l0.635-0.135l0.604-0.197l0.074-0.023l0.019-0.008
			c-0.118,0.052-0.021,0.01-0.04,0.02l0.042-0.02l0.177-0.078l0.35-0.151l0.173-0.077l0.127-0.074l0.253-0.146
			c0.719-0.418,1.451-1.019,2.104-1.684c0.339-0.326,0.656-0.686,0.972-1.053l0.233-0.278l0.117-0.142l0.016-0.017
			c-0.047,0.062-0.004,0.007-0.013,0.017l0.03-0.039l0.059-0.076l0.464-0.612c0.654-0.829,1.135-1.598,1.667-2.401
			c1.016-1.652,1.851-3.383,2.545-5.111c0.704-1.725,1.179-3.475,1.561-5.148c0.146-0.846,0.353-1.664,0.436-2.471
			c0.053-0.402,0.105-0.799,0.158-1.188c0.029-0.392,0.058-0.776,0.086-1.151c0.11-1.508,0.106-2.902,0.047-4.139
			c-0.083-1.232-0.167-2.319-0.323-3.2c-0.107-0.892-0.268-1.579-0.361-2.054c-0.092-0.477-0.143-0.73-0.143-0.73
			s0.097,0.24,0.273,0.689c0.17,0.454,0.456,1.111,0.699,1.987c0.276,0.867,0.541,1.943,0.777,3.198
			c0.204,1.256,0.407,2.693,0.439,4.272c0.008,0.396,0.016,0.8,0.021,1.211c-0.015,0.411-0.031,0.83-0.047,1.257
			c-0.015,0.856-0.133,1.733-0.228,2.641c-0.281,1.797-0.662,3.692-1.291,5.591c-0.641,1.892-1.449,3.808-2.501,5.638
			c-0.55,0.904-1.13,1.883-1.735,2.668l-0.451,0.623l-0.141,0.188l-0.128,0.158l-0.254,0.314c-0.346,0.419-0.702,0.836-1.092,1.233
			c-0.782,0.801-1.633,1.531-2.677,2.152l-0.41,0.23l-0.209,0.113l-0.175,0.078l-0.349,0.154l-0.174,0.079l-0.045,0.021
			l-0.085,0.035l-0.026,0.01l-0.106,0.033l-0.846,0.264l-0.849,0.177c-2.264,0.375-4.393,0.071-6.279-0.206
			c-1.91-0.311-3.753-0.629-5.497-0.946c-1.74-0.323-3.39-0.616-4.894-0.95c-1.495-0.375-2.867-0.699-4.076-1.031
			c-1.212-0.316-2.265-0.6-3.13-0.853C80.058,546.96,79.075,546.64,79.075,546.64"/>
		<path fill="#683A2A" d="M62.97,535.127c0,0-0.266,0.288-0.762,0.829c-0.486,0.543-1.261,1.326-2.065,2.367
			c-0.855,1.008-1.815,2.334-2.883,3.873c-0.497,0.793-1.056,1.616-1.591,2.521c-0.261,0.456-0.526,0.925-0.8,1.403
			c-0.274,0.479-0.554,0.967-0.806,1.488c-0.521,1.027-1.079,2.092-1.571,3.237c-0.25,0.567-0.531,1.136-0.768,1.733
			c-0.241,0.596-0.484,1.201-0.731,1.816c-0.949,2.471-1.859,5.117-2.621,7.912c-0.788,2.787-1.475,5.705-2.045,8.701
			c-0.576,2.986-1.095,6.066-1.447,9.126c-0.191,1.558-0.382,3.116-0.571,4.667c-0.126,1.529-0.254,3.054-0.378,4.564
			c-0.154,1.505-0.198,3.018-0.257,4.51c-0.031,0.744-0.061,1.485-0.089,2.221c-0.027,0.736-0.073,1.465-0.052,2.188
			c0.036,2.893-0.022,5.691,0.198,8.326c0.082,1.318,0.159,2.603,0.233,3.841c0.144,1.232,0.283,2.424,0.415,3.566
			c0.066,0.568,0.13,1.129,0.193,1.676c0.06,0.546,0.122,1.078,0.226,1.591c0.185,1.028,0.358,2.005,0.522,2.924
			c0.164,0.914,0.317,1.771,0.457,2.564c0.192,0.78,0.369,1.496,0.527,2.146c0.641,2.584,1.005,4.062,1.005,4.062l0.048,0.193
			c0.388,1.567-0.563,3.155-2.124,3.546c-1.561,0.39-3.141-0.563-3.528-2.134c-0.009-0.033-0.02-0.079-0.025-0.111
			c0,0-0.327-1.584-0.9-4.358c-0.14-0.691-0.296-1.46-0.466-2.294c-0.116-0.844-0.243-1.755-0.379-2.728
			c-0.133-0.974-0.276-2.009-0.426-3.1c-0.088-0.546-0.133-1.106-0.172-1.684c-0.045-0.575-0.09-1.165-0.137-1.766
			c-0.091-1.202-0.185-2.453-0.283-3.749c-0.042-1.297-0.058-2.637-0.087-4.014c-0.118-2.756,0.054-5.65,0.137-8.643
			c0.009-0.75,0.084-1.502,0.143-2.258c0.061-0.756,0.12-1.52,0.183-2.285c0.121-1.533,0.229-3.084,0.45-4.648
			c0.192-1.564,0.387-3.139,0.583-4.719c0.252-1.545,0.503-3.096,0.755-4.646c0.493-3.163,1.143-6.258,1.856-9.312
			c0.709-3.051,1.533-6.029,2.46-8.871c0.9-2.852,1.951-5.555,3.035-8.074c0.282-0.626,0.56-1.244,0.832-1.852
			c0.271-0.609,0.584-1.19,0.868-1.771c0.56-1.166,1.182-2.25,1.766-3.297c0.281-0.527,0.592-1.027,0.897-1.513
			c0.305-0.487,0.601-0.964,0.89-1.429c0.596-0.916,1.21-1.754,1.76-2.559c1.172-1.557,2.221-2.889,3.183-3.935
			c0.92-1.091,1.695-1.81,2.209-2.34c0.518-0.521,0.794-0.799,0.794-0.799c0.361-0.364,0.948-0.364,1.311,0
			C63.296,534.188,63.304,534.761,62.97,535.127"/>
		<path fill="#683A2A" d="M43.705,647.451c0.169,0.038,0.345,0.036,0.521-0.023c0.459-0.157,0.721-0.666,0.75-1.149
			c0.029-0.484-0.125-0.96-0.255-1.429c-0.284-1.011-1.461-3.513-0.619-4.347c0.704,0.767,0.665,1.541,0.829,2.574
			c0.174,1.106,0.395,2.208,0.74,3.273c0.414,1.275,2.912,6.913,4.94,5.617c0.283-0.181,0.464-0.487,0.573-0.807
			c0.437-1.259-0.079-2.625-0.567-3.863c-1.006-2.558-1.931-5.228-1.871-7.979c0.065-2.964,1.47-6.378-0.254-9.121
			c-1.69-2.692-5.515-0.489-6.424,1.915c-1.623,4.289-2.095,10.195,0.381,14.236C42.744,646.829,43.196,647.33,43.705,647.451"/>
		<path fill="#874E35" d="M95.259,522.541c-0.186-0.036-0.372-0.06-0.56-0.076l-39.085-23.084c-1.447-1.271-3.139-2.151-5.028-2.519
			c-3.619-0.704-7.278,0.604-10.302,3.295l-6.397-3.262c-0.919-0.818-1.976-1.377-3.15-1.605
			c-5.201-1.014-10.691,4.781-12.264,12.943c-1.468,7.613,0.993,14.594,5.55,16.32c0.329,0.123,0.669,0.225,1.018,0.292
			c0.64,0.124,1.283,0.146,1.923,0.071l8.05,0.997c1.784,3.871,4.784,6.646,8.555,7.38l45.59,9.754
			c0.605,0.396,1.27,0.687,1.99,0.826c4.135,0.806,8.41-3.319,9.545-9.21C101.83,528.776,99.396,523.347,95.259,522.541"/>
		<path fill="#683A2A" d="M53.636,517.185c-1.136,6.518-5.291,11.232-9.282,10.531c-3.99-0.701-6.305-6.557-5.17-13.074
			c1.135-6.519,5.291-11.232,9.282-10.531C52.456,504.813,54.771,510.666,53.636,517.185"/>
		<path fill="#FFFFFF" d="M52.565,516.108c-1.137,6.518-5.291,11.232-9.282,10.531c-3.99-0.703-6.306-6.557-5.169-13.074
			c1.135-6.52,5.291-11.234,9.281-10.533C51.386,503.737,53.702,509.589,52.565,516.108"/>
		<path fill="#683A2A" d="M34.596,512.068c-0.891,5.113-4.151,8.812-7.281,8.261c-3.13-0.552-4.946-5.144-4.054-10.254
			c0.891-5.116,4.149-8.812,7.28-8.262C33.671,502.363,35.485,506.954,34.596,512.068"/>
		<path fill="#FFFFFF" d="M33.526,510.991c-0.891,5.114-4.15,8.812-7.28,8.262c-3.13-0.551-4.946-5.143-4.055-10.255
			c0.892-5.115,4.15-8.812,7.281-8.261C32.601,501.288,34.416,505.878,33.526,510.991"/>
		<g opacity="0.7">
			<g>
				<g>
					<defs>
						<rect id="SVGID_17_" x="72.117" y="513.944" width="40.762" height="68.48"/>
					</defs>
					<clipPath id="SVGID_18_">
						<use xlink:href="#SVGID_17_"  overflow="visible"/>
					</clipPath>
					<path clip-path="url(#SVGID_18_)" fill="#A86543" d="M92.98,528.534c-0.014,0.138-0.025,0.272-0.037,0.407
						c-0.489,5.522-0.01,11.146,1.884,16.388c1.544,4.275,4.449,8.125,7.878,11.062c3.571,3.058,8.388,5.267,9.761,10.162
						c1.502,5.36-1.222,11.538-5.98,14.274c-8.03,4.617-16.186-1.668-21.684-7.316c-5.763-5.92-9.482-13.752-11.318-21.773
						c-1.555-6.797-1.845-14.119-0.545-20.98c0.85-4.482,2.511-9.129,5.5-12.635c3.035-3.562,9.278-6.262,12.903-1.984
						C94.12,519.419,93.345,524.603,92.98,528.534"/>
				</g>
			</g>
		</g>
		<path fill="#874E35" d="M149.617,532.599c-0.999,0.418-2.143,0.383-3.175-0.227c-2.744-1.619-2.399-6.523-3.075-9.248
			c-0.67-2.7-1.503-5.361-2.559-7.937c-2.086-5.088-5.091-9.898-9.361-13.417c-0.685-0.562-1.397-1.092-2.139-1.582
			c-0.342-0.227-0.688-0.441-1.042-0.646c-1.878-1.085-5.635-1.742-6.552-3.912c-0.94-2.229,0.262-5.92,0.755-8.141
			c0.386-1.739,0.64-3.428,1.543-5.021c0.702-1.234,1.741-2.32,3.057-2.847c0.945-0.38,2.183-0.21,2.909,0.602
			c1.041,1.163,0.438,2.718,0.01,4.003c-0.729,2.193-1.457,4.385-2.186,6.574c0.876-2.636,4.013-4.979,6.258-6.437
			c2.562-1.67,5.585-2.634,8.641-2.71c2.027-0.049,4.156,0.32,5.745,1.586c1.387,1.102,2.266,3.12,1.755,4.917
			c-0.623,2.196-3.048,3.05-4.969,3.739c-2.953,1.062-6.077,2.539-8.415,4.693c7.13-2.894,15.536-2.992,22.341,0.601
			c1.068,0.565,2.103,1.22,2.964,2.069c1.254,1.239,2.107,2.881,2.405,4.623c0.162,0.949,0.154,1.955-0.227,2.839
			c-0.285,0.657-0.767,1.215-1.312,1.675c-1.895,1.596-4.498,2.044-6.969,2.044c-2.999,0.002-5.872-0.505-8.824,0.313
			c1.94,0.3,3.863,0.729,5.751,1.277c3.89,1.136,8.386,3.462,10.074,7.477c1.559,3.701-1.279,7.196-5.149,6.739
			c-1.829-0.216-3.497-1.135-5.028-2.163c-1.655-1.109-3.328-2.17-5.028-3.222c1.154,0.712,2.129,2.765,2.719,3.941
			c0.907,1.808,2.064,4.999,0.534,6.741C150.655,532.016,150.154,532.374,149.617,532.599"/>
		<path fill="#683A2A" d="M97.65,533.813c0,0-0.022,0.094-0.068,0.275c-0.021,0.091-0.05,0.204-0.083,0.338
			c-0.023,0.115-0.051,0.248-0.082,0.398c-0.126,0.623-0.299,1.586-0.396,2.82c-0.204,2.465-0.116,6.12,0.924,10.322
			c0.518,2.095,1.266,4.318,2.317,6.506c1.052,2.185,2.411,4.345,4.115,6.165c1.696,1.822,3.751,3.262,5.977,3.946
			c0.558,0.174,1.124,0.306,1.698,0.383c0.288,0.038,0.574,0.074,0.869,0.088l0.216,0.016c0.033,0.002-0.178-0.012-0.072-0.007
			l0.037,0.002l0.072,0.001l0.143,0.004l0.561,0.007c0.407-0.024,1.011-0.085,1.514-0.194c0.517-0.115,1.011-0.287,1.493-0.5
			c1.921-0.851,3.69-2.631,5.263-4.818c1.574-2.183,2.968-4.695,4.327-7.201c1.36-2.514,2.695-5.049,4.113-7.457
			c1.414-2.41,2.922-4.702,4.564-6.745c1.641-2.04,3.429-3.821,5.229-5.231c0.903-0.701,1.808-1.309,2.674-1.834
			c0.879-0.508,1.708-0.947,2.487-1.287c1.556-0.695,2.844-1.082,3.722-1.316c0.88-0.223,1.354-0.318,1.354-0.318
			c2.752-0.564,5.439,1.221,5.999,3.986c0.562,2.767-1.213,5.466-3.966,6.032c-0.045,0.008-0.09,0.017-0.135,0.024l-0.103,0.019
			c0,0-0.284,0.048-0.812,0.141c-0.523,0.106-1.287,0.284-2.223,0.634c-0.937,0.347-2.044,0.886-3.262,1.717
			c-1.217,0.843-2.543,1.985-3.898,3.486c-1.356,1.496-2.74,3.333-4.14,5.433c-1.405,2.097-2.826,4.45-4.371,6.957
			c-1.559,2.503-3.218,5.171-5.362,7.815c-1.073,1.314-2.282,2.626-3.723,3.826c-1.433,1.191-3.124,2.275-5.033,2.984
			c-0.949,0.354-1.94,0.619-2.94,0.773c-1.015,0.146-1.951,0.207-3.077,0.167l-0.593-0.043l-0.395-0.028l-0.353-0.044
			c-0.472-0.055-0.94-0.138-1.404-0.229c-0.929-0.188-1.841-0.455-2.715-0.786c-3.527-1.329-6.355-3.684-8.455-6.213
			c-2.118-2.549-3.605-5.295-4.715-7.965c-1.103-2.677-1.817-5.299-2.278-7.743c-0.92-4.899-0.791-9.097-0.384-12.005
			c0.198-1.461,0.464-2.59,0.672-3.377c0.055-0.202,0.104-0.381,0.145-0.533c0.041-0.132,0.075-0.244,0.103-0.336
			c0.055-0.18,0.084-0.271,0.084-0.271c0.367-1.201,1.636-1.878,2.833-1.508C97.268,531.444,97.932,532.649,97.65,533.813"/>
		<path fill="#874E35" d="M47.218,515.751c0.327-0.248,0.562-0.627,0.652-1.179c0.397-2.463-5.202-3.917-6.5-2.491
			c-0.896,0.982,0.04,2.393,0.911,2.945C43.365,515.718,45.969,516.692,47.218,515.751"/>
		<path fill="#874E35" d="M25.542,508.271c-2.033,1.215,1.401,3.642,2.958,2.907C31.4,509.812,27.533,507.081,25.542,508.271"/>
		<path fill="#683A2A" d="M56.3,497.987c0,0,0.436,0.234,1.152,0.697c0.175,0.123,0.395,0.219,0.585,0.4
			c0.199,0.175,0.416,0.361,0.646,0.563c0.231,0.204,0.487,0.422,0.732,0.672c0.222,0.262,0.458,0.534,0.702,0.821
			c0.518,0.562,0.94,1.264,1.408,2c0.251,0.36,0.419,0.773,0.628,1.182c0.19,0.416,0.419,0.828,0.576,1.274
			c0.159,0.447,0.317,0.903,0.479,1.364c0.177,0.459,0.248,0.951,0.377,1.433c0.262,0.964,0.35,1.976,0.491,2.976
			c0.037,1.011,0.136,2.018,0.047,3.012c-0.018,0.994-0.171,1.964-0.325,2.896c-0.063,0.466-0.218,0.913-0.317,1.354
			c-0.122,0.438-0.2,0.873-0.364,1.276c-0.313,0.809-0.577,1.576-0.946,2.236c-0.169,0.333-0.345,0.646-0.503,0.945
			c-0.179,0.291-0.371,0.554-0.539,0.805c-0.343,0.5-0.646,0.924-0.956,1.23c-0.592,0.633-0.934,0.969-0.934,0.969
			s0.22-0.446,0.611-1.189c0.22-0.354,0.393-0.84,0.612-1.375c0.108-0.269,0.236-0.545,0.346-0.848
			c0.094-0.311,0.183-0.641,0.291-0.974c0.244-0.657,0.369-1.417,0.539-2.197c0.108-0.383,0.132-0.801,0.197-1.214
			c0.044-0.418,0.139-0.835,0.146-1.273c0.016-0.437,0.048-0.877,0.075-1.32c0.04-0.444-0.008-0.899,0.001-1.355
			c0.024-0.91-0.108-1.828-0.167-2.748c-0.16-0.908-0.244-1.83-0.48-2.705c-0.169-0.895-0.443-1.74-0.681-2.57
			c-0.104-0.42-0.292-0.802-0.422-1.197c-0.145-0.389-0.261-0.783-0.438-1.136c-0.328-0.719-0.604-1.427-0.963-2.024
			c-0.164-0.312-0.321-0.607-0.471-0.893c-0.17-0.266-0.33-0.518-0.481-0.755c-0.299-0.481-0.567-0.919-0.849-1.248
			C56.576,498.398,56.3,497.987,56.3,497.987"/>
		<path fill="#683A2A" d="M63.973,503.118c0,0,0.219,0.145,0.575,0.416c0.184,0.13,0.394,0.304,0.618,0.535
			c0.116,0.111,0.24,0.231,0.371,0.359c0.127,0.127,0.236,0.277,0.365,0.43c0.124,0.152,0.26,0.311,0.389,0.48
			c0.122,0.174,0.238,0.361,0.363,0.552c0.263,0.375,0.468,0.813,0.694,1.258c0.188,0.46,0.402,0.937,0.533,1.445
			c0.17,0.5,0.251,1.03,0.356,1.555c0.053,0.532,0.13,1.063,0.116,1.591c0.023,0.526-0.042,1.041-0.083,1.539
			c-0.086,0.492-0.153,0.969-0.29,1.405c-0.062,0.221-0.117,0.435-0.181,0.637c-0.072,0.201-0.156,0.394-0.227,0.573
			c-0.078,0.184-0.138,0.361-0.222,0.523c-0.084,0.157-0.165,0.309-0.241,0.447c-0.145,0.285-0.291,0.52-0.427,0.704
			c-0.263,0.374-0.422,0.573-0.422,0.573s0.049-0.262,0.155-0.692c0.062-0.213,0.11-0.479,0.169-0.78
			c0.062-0.297,0.126-0.633,0.176-1.002c0.065-0.363,0.101-0.762,0.143-1.179c0.059-0.413,0.034-0.859,0.069-1.309
			c-0.014-0.454,0.002-0.917-0.043-1.39c-0.017-0.474-0.091-0.947-0.146-1.422c-0.087-0.471-0.156-0.945-0.279-1.401
			c-0.095-0.464-0.248-0.901-0.368-1.339c-0.166-0.418-0.274-0.85-0.455-1.227c-0.164-0.386-0.316-0.753-0.487-1.081
			c-0.158-0.338-0.318-0.632-0.467-0.896c-0.144-0.267-0.271-0.508-0.398-0.694C64.097,503.351,63.973,503.118,63.973,503.118"/>
		<path fill="#683A2A" d="M39.991,538.102c0.197-0.467,0.283-0.995,0.243-1.497c-0.097-1.198-0.733-2.276-1.376-3.29
			c-1.274-2.012-2.12-4.542-2.438-6.918c-0.146-1.091-0.292-2.442-1.311-2.841c-0.481-0.188-1.021-0.086-1.521,0.04
			c-3.459,0.88-6.57,2.974-8.805,5.757c-1.397,1.738-3.341,4.449-3.095,6.812c0.12,1.147,1.243,2.438,2.446,2.357
			c1.957-0.134,2.771-2.768,3.305-4.268c0.478-1.338,1.1-2.754,2.333-3.446c-1.794,3.148-2.648,6.829-2.425,10.454
			c0.098,1.56,0.322,3.445,1.375,4.719c1.072,1.293,3.473,2.597,4.792,1.006c1.347-1.626,0.255-3.803-0.104-5.598
			c-0.269-1.346-0.499-2.702-0.619-4.071c-0.117-1.349,0.151-2.771,0.01-4.089c0.296,2.748,1.549,6.045,4.778,6.321
			c0.327,0.028,0.662,0.019,0.978-0.072C39.227,539.284,39.719,538.751,39.991,538.102"/>
		<path fill="#874E35" d="M109.087,537.142c0.109-0.518,0.142-1.055,0.059-1.576c-0.099-0.611-0.362-1.193-0.756-1.67
			c-2.528-3.059-5.874,0.717-5.523,3.612c0.161,1.321,1.157,2.571,2.468,2.781c0.888,0.143,1.817-0.197,2.483-0.805
			C108.483,538.876,108.899,538.026,109.087,537.142"/>
		<path fill="#FFFFFF" d="M108.257,536.306c0.107-0.518,0.145-1.055,0.059-1.576c-0.1-0.609-0.362-1.192-0.756-1.668
			c-2.527-3.06-5.873,0.717-5.522,3.611c0.16,1.322,1.156,2.572,2.467,2.781c0.889,0.144,1.817-0.197,2.481-0.806
			C107.651,538.041,108.068,537.19,108.257,536.306"/>
		<path fill="#874E35" d="M99.081,497.407c0,0-0.117-0.205-0.3-0.573c-0.08-0.189-0.214-0.399-0.341-0.642
			c-0.065-0.121-0.135-0.248-0.207-0.384c-0.084-0.13-0.17-0.271-0.251-0.415c-0.157-0.297-0.374-0.592-0.576-0.913
			c-0.198-0.321-0.445-0.639-0.687-0.97c-0.256-0.32-0.505-0.66-0.794-0.976c-0.267-0.333-0.581-0.626-0.871-0.942
			c-0.319-0.283-0.617-0.595-0.949-0.848c-0.312-0.282-0.653-0.504-0.971-0.75c-0.335-0.208-0.649-0.441-0.975-0.609
			c-0.161-0.09-0.318-0.177-0.469-0.262c-0.156-0.082-0.31-0.146-0.457-0.217c-0.295-0.151-0.578-0.25-0.833-0.348
			c-0.254-0.101-0.483-0.183-0.676-0.232c-0.385-0.11-0.619-0.197-0.619-0.197s0.227-0.066,0.641-0.145
			c0.104-0.018,0.22-0.045,0.346-0.06c0.127-0.005,0.263-0.009,0.41-0.011c0.146-0.004,0.306-0.012,0.473-0.008
			c0.166,0.01,0.337,0.039,0.52,0.062c0.369,0.031,0.755,0.131,1.159,0.26c0.207,0.055,0.407,0.135,0.608,0.229
			c0.202,0.092,0.417,0.174,0.618,0.285c0.398,0.23,0.814,0.471,1.188,0.774c0.396,0.281,0.739,0.634,1.092,0.972
			c0.322,0.365,0.655,0.723,0.925,1.117c0.293,0.378,0.523,0.788,0.755,1.178c0.202,0.403,0.397,0.793,0.551,1.178
			c0.154,0.383,0.277,0.752,0.368,1.1c0.105,0.34,0.164,0.668,0.211,0.959c0.054,0.286,0.079,0.537,0.087,0.74
			C99.082,497.172,99.081,497.407,99.081,497.407"/>
		<path fill="#874E35" d="M101.454,495.3c0,0-0.144-0.17-0.366-0.479c-0.112-0.152-0.251-0.34-0.395-0.561
			c-0.074-0.109-0.15-0.226-0.232-0.349c-0.078-0.128-0.143-0.272-0.219-0.418c-0.149-0.296-0.312-0.618-0.466-0.97
			c-0.172-0.348-0.27-0.733-0.396-1.133c-0.116-0.399-0.261-0.811-0.301-1.252c-0.065-0.438-0.115-0.884-0.169-1.33
			c0.002-0.484-0.019-0.852,0.039-1.336c0.026-0.463,0.123-0.889,0.207-1.304c0.113-0.409,0.224-0.804,0.377-1.162
			c0.075-0.177,0.144-0.353,0.221-0.519c0.076-0.163,0.174-0.312,0.254-0.46c0.085-0.146,0.157-0.288,0.243-0.414
			c0.092-0.122,0.181-0.238,0.263-0.347c0.158-0.221,0.312-0.397,0.458-0.53c0.272-0.273,0.438-0.413,0.438-0.413
			s-0.064,0.218-0.197,0.566c-0.072,0.17-0.135,0.393-0.208,0.636c-0.082,0.241-0.158,0.517-0.229,0.817
			c-0.084,0.297-0.136,0.627-0.205,0.969c-0.074,0.338-0.091,0.709-0.149,1.078c-0.021,0.378-0.067,0.768-0.066,1.145
			c-0.022,0.351,0,0.836,0.005,1.207c0.041,0.398,0.085,0.799,0.11,1.195c0.012,0.398,0.104,0.784,0.16,1.164
			c0.076,0.374,0.085,0.758,0.178,1.096c0.085,0.341,0.147,0.672,0.204,0.98c0.055,0.309,0.12,0.6,0.188,0.856
			c0.066,0.255,0.111,0.479,0.151,0.667C101.425,495.079,101.454,495.3,101.454,495.3"/>
		<path fill="#874E35" d="M103.375,494.431c0,0-0.068-0.137-0.174-0.375c-0.059-0.116-0.104-0.27-0.138-0.459
			c-0.021-0.096-0.043-0.195-0.064-0.303c-0.012-0.106-0.012-0.218-0.02-0.335c-0.021-0.237-0.001-0.491,0.037-0.758
			c0.029-0.271,0.106-0.548,0.194-0.829c0.111-0.271,0.205-0.568,0.374-0.83c0.078-0.135,0.149-0.274,0.245-0.398l0.138-0.195
			l0.069-0.096l0.032-0.049l0.019-0.023l0.009-0.012l0.005-0.006l0.03-0.035c0.205-0.206,0.413-0.412,0.616-0.611
			c0.181-0.213,0.467-0.373,0.703-0.544c0.243-0.161,0.479-0.339,0.716-0.438c0.232-0.113,0.459-0.209,0.668-0.296
			c0.201-0.097,0.397-0.155,0.577-0.202c0.174-0.052,0.329-0.087,0.455-0.119c0.256-0.061,0.401-0.084,0.401-0.084
			s-0.114,0.102-0.319,0.264c-0.196,0.168-0.508,0.357-0.841,0.637c-0.168,0.137-0.349,0.281-0.546,0.423
			c-0.204,0.136-0.356,0.329-0.556,0.482c-0.189,0.167-0.383,0.313-0.576,0.542c-0.196,0.209-0.395,0.423-0.594,0.637
			c-0.023,0.027,0.031-0.035,0.025-0.028l-0.002,0.002l-0.005,0.007l-0.008,0.01l-0.015,0.02l-0.03,0.04l-0.061,0.079l-0.123,0.158
			c-0.086,0.102-0.15,0.218-0.221,0.329c-0.146,0.221-0.269,0.447-0.387,0.671c-0.094,0.23-0.217,0.449-0.284,0.672
			c-0.07,0.223-0.152,0.433-0.188,0.634c-0.056,0.204-0.09,0.388-0.104,0.555c-0.025,0.167-0.051,0.322-0.044,0.455
			C103.389,494.28,103.375,494.431,103.375,494.431"/>
		<path fill="#683A2A" d="M71.12,536.615c0,0-0.205,0.431-0.589,1.236c-0.19,0.403-0.428,0.899-0.706,1.483
			c-0.15,0.294-0.272,0.604-0.395,0.936c-0.125,0.33-0.261,0.682-0.402,1.051c-0.28,0.744-0.619,1.547-0.891,2.497
			c-0.146,0.468-0.298,0.954-0.456,1.458c-0.164,0.501-0.323,1.023-0.453,1.58c-0.584,2.193-1.16,4.695-1.642,7.471
			c-0.121,0.693-0.243,1.4-0.369,2.123c-0.108,0.727-0.217,1.469-0.331,2.223c-0.114,0.752-0.223,1.521-0.32,2.306
			c-0.1,0.769-0.199,1.55-0.301,2.343c-0.166,1.627-0.335,3.301-0.506,5.013c-0.082,0.853-0.189,1.726-0.248,2.588
			c-0.046,0.858-0.092,1.729-0.139,2.604c-0.047,0.875-0.093,1.757-0.141,2.646c-0.041,0.888-0.118,1.776-0.103,2.688
			c-0.011,1.812-0.021,3.647-0.03,5.496c-0.025,0.924,0.028,1.852,0.07,2.78c0.041,0.929,0.081,1.86,0.121,2.795
			c0.041,0.934,0.081,1.867,0.122,2.804l0.254,2.791l0.259,2.846c0.091,0.944,0.158,1.904,0.302,2.813
			c0.251,1.839,0.503,3.669,0.754,5.485c0.105,0.906,0.299,1.812,0.458,2.713c0.163,0.899,0.328,1.796,0.488,2.686
			c0.164,0.89,0.324,1.774,0.484,2.651c0.196,0.871,0.395,1.735,0.587,2.595c0.396,1.713,0.759,3.401,1.164,5.041
			c0.445,1.632,0.88,3.229,1.306,4.78c0.217,0.775,0.408,1.547,0.638,2.293c0.237,0.746,0.47,1.48,0.701,2.201
			c0.459,1.442,0.903,2.836,1.329,4.175c0.93,2.649,1.837,5.058,2.61,7.203c0.866,2.107,1.621,3.946,2.244,5.458
			c0.154,0.38,0.304,0.737,0.441,1.073c0.065,0.158,0.129,0.312,0.189,0.459c0.071,0.159,0.142,0.312,0.206,0.46
			c0.266,0.592,0.489,1.094,0.673,1.5c0.363,0.813,0.558,1.25,0.558,1.25c0.761,1.699,0.006,3.698-1.686,4.464
			c-1.689,0.766-3.679,0.007-4.441-1.693c-0.013-0.029-0.031-0.073-0.043-0.103c0,0-0.18-0.44-0.518-1.267
			c-0.168-0.413-0.378-0.922-0.623-1.521c-0.06-0.149-0.125-0.306-0.19-0.467c-0.065-0.176-0.135-0.354-0.206-0.541
			c-0.134-0.355-0.273-0.731-0.423-1.128c-0.594-1.588-1.311-3.517-2.139-5.729c-0.731-2.246-1.587-4.769-2.459-7.539
			c-0.395-1.397-0.809-2.854-1.236-4.36c-0.213-0.753-0.429-1.519-0.65-2.296c-0.21-0.78-0.384-1.583-0.583-2.391
			c-0.386-1.618-0.781-3.28-1.186-4.98c-0.363-1.707-0.682-3.465-1.033-5.245c-0.17-0.891-0.344-1.786-0.518-2.691
			c-0.137-0.911-0.273-1.831-0.412-2.753c-0.137-0.923-0.276-1.853-0.416-2.784c-0.132-0.936-0.299-1.864-0.379-2.824
			c-0.2-1.905-0.4-3.828-0.603-5.76c-0.119-0.973-0.152-1.912-0.212-2.864l-0.167-2.853l-0.168-2.905
			c-0.011-0.966-0.021-1.932-0.033-2.896c-0.011-0.962-0.021-1.924-0.033-2.882c-0.011-0.959-0.033-1.914,0.021-2.863
			c0.072-1.9,0.144-3.786,0.213-5.649c0.017-0.929,0.126-1.859,0.197-2.779c0.079-0.923,0.157-1.837,0.236-2.743
			c0.078-0.906,0.155-1.805,0.234-2.693c0.089-0.884,0.223-1.734,0.332-2.591c0.228-1.704,0.452-3.371,0.668-4.993
			c0.133-0.828,0.265-1.645,0.395-2.449c0.125-0.791,0.26-1.566,0.403-2.335c0.141-0.766,0.275-1.521,0.41-2.259
			c0.153-0.737,0.304-1.462,0.45-2.172c0.587-2.838,1.268-5.424,1.954-7.695c0.155-0.57,0.34-1.117,0.527-1.641
			c0.184-0.525,0.36-1.03,0.53-1.517c0.312-0.974,0.714-1.864,1.052-2.667c0.171-0.4,0.332-0.779,0.483-1.139
			c0.148-0.36,0.293-0.691,0.449-0.97c0.297-0.575,0.548-1.063,0.752-1.46c0.41-0.793,0.629-1.215,0.629-1.215
			c0.352-0.684,1.188-0.949,1.869-0.596c0.667,0.349,0.935,1.162,0.613,1.837L71.12,536.615z"/>
		<path fill="#683A2A" d="M73.164,673.276c0.204,0.049,0.415,0.045,0.63-0.027c0.552-0.188,0.868-0.801,0.904-1.387
			c0.035-0.585-0.149-1.156-0.308-1.724c-0.343-1.216-1.76-4.231-0.746-5.238c0.848,0.924,0.801,1.857,0.998,3.104
			c0.21,1.335,0.476,2.661,0.894,3.946c0.499,1.539,3.511,8.333,5.958,6.772c0.34-0.22,0.558-0.591,0.689-0.975
			c0.523-1.517-0.097-3.164-0.684-4.656c-1.213-3.084-2.328-6.303-2.257-9.62c0.079-3.574,1.772-7.69-0.305-10.997
			c-2.04-3.246-6.652-0.591-7.749,2.311c-1.957,5.17-2.526,12.292,0.462,17.161C72.006,672.53,72.551,673.134,73.164,673.276"/>
		<path fill="#874E35" d="M155.805,580.71c0,0,0.142,0.1,0.374,0.289c0.112,0.096,0.255,0.211,0.408,0.348
			c0.076,0.069,0.156,0.145,0.242,0.222c0.087,0.069,0.192,0.128,0.288,0.202c0.188,0.136,0.396,0.283,0.611,0.442
			c0.194,0.167,0.475,0.29,0.711,0.451c0.248,0.151,0.486,0.331,0.77,0.451c0.272,0.132,0.543,0.275,0.81,0.423
			c0.287,0.107,0.569,0.224,0.846,0.341c0.271,0.138,0.557,0.206,0.827,0.304c0.137,0.051,0.27,0.102,0.399,0.148
			c0.129,0.059,0.259,0.104,0.387,0.135c0.256,0.07,0.501,0.146,0.728,0.227c0.115,0.044,0.225,0.083,0.329,0.119
			c0.106,0.023,0.208,0.051,0.305,0.078c0.192,0.055,0.363,0.102,0.509,0.152c0.286,0.09,0.459,0.169,0.459,0.169
			s-0.154,0.083-0.444,0.186c-0.146,0.058-0.326,0.109-0.534,0.169c-0.21,0.072-0.45,0.119-0.713,0.125
			c-0.264,0.02-0.552,0.027-0.858,0.027c-0.308,0.012-0.616-0.078-0.946-0.134c-0.325-0.069-0.667-0.13-0.984-0.28
			c-0.323-0.133-0.65-0.273-0.973-0.42c-0.303-0.188-0.603-0.379-0.891-0.574c-0.299-0.176-0.544-0.426-0.787-0.65
			c-0.235-0.235-0.479-0.428-0.664-0.687c-0.179-0.251-0.348-0.487-0.502-0.707c-0.076-0.106-0.146-0.214-0.203-0.314
			c-0.049-0.104-0.095-0.205-0.137-0.299c-0.084-0.188-0.149-0.358-0.207-0.497C155.857,580.875,155.805,580.71,155.805,580.71"/>
		<path fill="#874E35" d="M155.89,582.977c0,0,0.164,0.147,0.427,0.417c0.262,0.271,0.623,0.664,1.036,1.137
			c0.203,0.232,0.427,0.487,0.66,0.756c0.227,0.272,0.491,0.531,0.733,0.82c0.264,0.27,0.52,0.562,0.8,0.83
			c0.271,0.283,0.565,0.535,0.852,0.801c0.268,0.206,0.649,0.537,0.925,0.703c0.283,0.215,0.615,0.393,0.923,0.58
			c0.154,0.096,0.321,0.152,0.474,0.238c0.155,0.081,0.309,0.165,0.466,0.214c0.311,0.114,0.603,0.244,0.889,0.31
			c0.145,0.041,0.282,0.08,0.413,0.116c0.135,0.022,0.261,0.045,0.382,0.065c0.241,0.041,0.462,0.088,0.641,0.084
			c0.363,0.021,0.588,0.046,0.588,0.046s-0.187,0.103-0.542,0.255c-0.178,0.086-0.402,0.151-0.67,0.197
			c-0.135,0.027-0.277,0.059-0.43,0.088c-0.152,0.014-0.312,0.01-0.481,0.018c-0.168-0.002-0.352,0.02-0.532-0.004
			c-0.181-0.02-0.367-0.052-0.56-0.078c-0.388-0.056-0.782-0.18-1.187-0.315c-0.389-0.164-0.798-0.327-1.191-0.585
			c-0.441-0.247-0.691-0.474-1.091-0.773c-0.323-0.31-0.66-0.607-0.936-0.945c-0.299-0.321-0.543-0.672-0.782-1.006
			c-0.447-0.687-0.817-1.348-1.071-1.941c-0.271-0.584-0.443-1.096-0.562-1.453C155.94,583.192,155.89,582.977,155.89,582.977"/>
		<path fill="#874E35" d="M155.805,579.204c0,0,0.183,0.007,0.488,0.033c0.308,0.021,0.739,0.072,1.239,0.099
			c0.496,0.026,1.064,0.024,1.591-0.099c0.261-0.062,0.502-0.164,0.721-0.303c0.055-0.033,0.11-0.065,0.157-0.11l0.076-0.062
			l0.037-0.03c0.045-0.042-0.055,0.057-0.044,0.044l0.003-0.002l0.006-0.007l0.01-0.013l0.022-0.022
			c0.111-0.127,0.24-0.259,0.34-0.383c0.051-0.108,0.114-0.208,0.181-0.311l0.175-0.403c0.06-0.137,0.089-0.289,0.14-0.431
			l0.033-0.108c0.002-0.01-0.009,0.069-0.005,0.035v-0.004l0.002-0.008l0.003-0.017l0.006-0.03l0.011-0.062l0.045-0.243
			c0.065-0.319,0.146-0.634,0.143-0.893c0.007-0.269,0.083-0.526,0.052-0.777c-0.012-0.248-0.004-0.482-0.008-0.692
			c-0.017-0.206-0.042-0.386-0.06-0.536c-0.032-0.303-0.043-0.486-0.043-0.486s0.096,0.146,0.247,0.42
			c0.07,0.14,0.18,0.305,0.26,0.508c0.067,0.207,0.153,0.443,0.229,0.707c0.095,0.259,0.107,0.57,0.153,0.896
			c0.05,0.341,0.028,0.647,0.019,0.975l-0.012,0.245l-0.004,0.062l-0.002,0.03l-0.001,0.017v0.009l-0.007,0.045l-0.023,0.136
			c-0.036,0.182-0.063,0.364-0.118,0.55c-0.062,0.186-0.123,0.368-0.197,0.557c-0.104,0.197-0.214,0.398-0.337,0.59
			c-0.114,0.146-0.228,0.264-0.341,0.397l-0.02,0.022l-0.011,0.013l-0.06,0.061l-0.062,0.05l-0.129,0.098
			c-0.081,0.068-0.171,0.125-0.264,0.178c-0.365,0.212-0.766,0.336-1.143,0.376c-0.378,0.042-0.731,0.022-1.054-0.034
			c-0.319-0.062-0.613-0.125-0.866-0.23c-0.516-0.186-0.905-0.404-1.174-0.572C155.943,579.319,155.805,579.204,155.805,579.204"/>
		<path fill="#874E35" d="M155.783,613.625c1.065-0.04,1.957-0.929,2.313-1.94c0.355-1.011,0.276-2.119,0.132-3.182
			c-0.192-1.397-0.491-2.778-0.898-4.129c-0.324-1.077-0.735-2.169-1.521-2.97c-0.785-0.803-2.031-1.243-3.057-0.795
			c-0.946,0.413-1.472,1.442-1.737,2.444c-0.81,3.029,0.11,6.371,2.015,8.856C153.713,612.809,154.661,613.668,155.783,613.625"/>
		<path fill="#874E35" d="M162.251,623.249c-0.068-1.549-1.375-5.368-3.689-4.03c-1.928,1.115-0.246,4.354,1.031,5.297
			c0.671,0.495,1.698,0.757,2.276,0.154C162.219,624.31,162.274,623.756,162.251,623.249"/>
		<path fill="#874E35" d="M165.238,630.657c0.411-3.739-4.59-2.765-1.494,0.266c0.368,0.363,1.042,0.598,1.35,0.183
			C165.188,630.977,165.221,630.813,165.238,630.657"/>
		<path fill="#874E35" d="M103.729,534.966c-0.173,0.443-0.331,0.922-0.244,1.389c0.088,0.467,0.513,0.905,0.981,0.838
			c0.353-0.055,0.61-0.358,0.792-0.667c0.236-0.401,0.404-0.846,0.492-1.305c0.104-0.546,0.017-1.241-0.495-1.45
			c-0.334-0.138-0.731,0.008-0.989,0.262C104.009,534.284,103.861,534.629,103.729,534.966"/>
		<path fill="#FFFFFF" d="M109.253,553.685c0.251-0.838,0.015-2.174-0.307-2.814c-0.294-0.594-0.724-0.615-1.364-0.653
			c-1.193-0.07-2.763,0.173-3.809,0.796c-0.767,0.457-0.817,1.581-0.79,2.381c0.062,1.784,2.562,2.007,3.821,1.73
			c0.666-0.147,1.758-0.416,2.222-0.981C109.126,554.021,109.2,553.862,109.253,553.685"/>
		<path fill="#FFFFFF" d="M112.881,550.138c-0.887-0.4-1.671-1.281-1.961-2.15c-0.435-1.302,1.538-2.984,2.529-3.441
			c1.896-0.879,3.747,1.998,2.858,3.664c-0.51,0.952-1.643,2.359-2.882,2.107C113.244,550.279,113.06,550.219,112.881,550.138"/>
		<path fill="#FFFFFF" d="M118.891,538.655c-0.005-0.021-0.008-0.039-0.014-0.059c-0.103-0.448-0.433-0.84-0.855-1.014
			c-0.953-0.391-1.629,0.371-2.032,1.148c-0.478,0.92-1.288,2.277-0.102,2.858c0.554,0.271,1.228,0.54,1.756,0.22
			c0.259-0.158,0.424-0.43,0.563-0.698c0.192-0.366,0.357-0.745,0.497-1.136C118.854,539.553,118.972,539.097,118.891,538.655"/>
	</g>
</g>
</svg>
