<?xml version="1.0" encoding="utf-8"?>
<!-- Generator: Adobe Illustrator 16.0.0, SVG Export Plug-In . SVG Version: 6.00 Build 0)  -->
<!DOCTYPE svg PUBLIC "-//W3C//DTD SVG 1.1//EN" "http://www.w3.org/Graphics/SVG/1.1/DTD/svg11.dtd">
<svg version="1.1" id="Layer_1" xmlns="http://www.w3.org/2000/svg" xmlns:xlink="http://www.w3.org/1999/xlink" x="0px" y="0px"
	 width="25px" height="48.5px" viewBox="0 -3.5 25 48.5" enable-background="new 0 -3.5 25 48.5" xml:space="preserve">
<g>
	<g>
		<path fill="#E28F83" d="M25,9.884C25,2.493,19.525-3.5,12.578-3.5C5.632-3.5,0,2.493,0,9.884c0,2.169,0.496,4.21,1.355,6.021
			l5.294,13.89L12.444,45l5.796-15.205l5.381-13.762C24.5,14.189,25,12.103,25,9.884z"/>
		<path fill="#F8A38A" d="M23.857,9.884c0-7.391-5.226-13.384-11.854-13.384S0,2.493,0,9.884c0,2.169,0.474,4.21,1.294,6.021
			l5.052,13.89L12.444,45l4.963-15.205l5.136-13.762C23.38,14.189,23.857,12.103,23.857,9.884z"/>
	</g>
	<ellipse fill="#E28F83" cx="12.208" cy="9.888" rx="12.209" ry="6.855"/>
	<ellipse fill="#FFFFFF" cx="12.113" cy="9.598" rx="11.539" ry="5.778"/>
	<ellipse fill="#F8A38A" cx="12.196" cy="9.677" rx="3.221" ry="5.332"/>
	<ellipse fill="#CE7E76" cx="12.038" cy="9.887" rx="2.494" ry="4.282"/>
	<ellipse fill="#FFFFFF" cx="11.072" cy="6.848" rx="1.133" ry="1.294"/>
</g>
</svg>
