<?xml version="1.0" encoding="utf-8"?>
<!-- Generator: Adobe Illustrator 16.0.0, SVG Export Plug-In . SVG Version: 6.00 Build 0)  -->
<!DOCTYPE svg PUBLIC "-//W3C//DTD SVG 1.1//EN" "http://www.w3.org/Graphics/SVG/1.1/DTD/svg11.dtd">
<svg version="1.1" id="Layer_1" xmlns="http://www.w3.org/2000/svg" xmlns:xlink="http://www.w3.org/1999/xlink" x="0px" y="0px"
	 width="36.463px" height="48px" viewBox="0 0 36.463 48" enable-background="new 0 0 36.463 48" xml:space="preserve">
<path fill="#F8A38A" d="M36.232,11.948c0,0-8.06-11.948-18-11.948s-18,11.948-18,11.948s6.181,9.165,14.395,11.441L18.192,48
	l3.639-24.609C30.046,21.117,36.232,11.948,36.232,11.948 M18.231,19.571c-6.342,0-11.482-7.623-11.482-7.623
	s5.141-7.622,11.482-7.622c6.341,0,11.483,7.622,11.483,7.622S24.573,19.571,18.231,19.571"/>
<path fill="#CE7E76" d="M18.149,20.384c-6.616,0-11.979-7.873-11.979-7.873s5.363-7.874,11.979-7.874
	c6.617,0,11.98,7.874,11.98,7.874S24.766,20.384,18.149,20.384"/>
<path fill="#FFFFFF" d="M18.231,19.468c-6.342,0-11.482-7.622-11.482-7.622s5.141-7.623,11.482-7.623
	c6.341,0,11.483,7.623,11.483,7.623S24.573,19.468,18.231,19.468"/>
<path fill="#CE7E76" d="M20.367,11.948c0,3.442-2.136,6.232-2.136,6.232s-2.136-2.79-2.136-6.232c0-3.441,2.136-6.231,2.136-6.231
	S20.367,8.507,20.367,11.948"/>
</svg>
