<?xml version="1.0" encoding="utf-8"?>
<!-- Generator: Adobe Illustrator 16.0.0, SVG Export Plug-In . SVG Version: 6.00 Build 0)  -->
<!DOCTYPE svg PUBLIC "-//W3C//DTD SVG 1.1//EN" "http://www.w3.org/Graphics/SVG/1.1/DTD/svg11.dtd">
<svg version="1.1" id="Layer_1" xmlns="http://www.w3.org/2000/svg" xmlns:xlink="http://www.w3.org/1999/xlink" x="0px" y="0px"
	 width="230px" height="180px" viewBox="0 0 230 180" enable-background="new 0 0 230 180" xml:space="preserve">
<g id="Layer_1_1_">
</g>
<g>
	<g>
		<g>
			<g>
				<defs>
					<rect id="SVGID_1_" width="230" height="180"/>
				</defs>
				<clipPath id="SVGID_2_">
					<use xlink:href="#SVGID_1_"  overflow="visible"/>
				</clipPath>
				<path opacity="0.4" clip-path="url(#SVGID_2_)" fill="#FFFFFF" enable-background="new    " d="M320.292,9.088
					c0-81.131-65.771-146.9-146.899-146.9C95.424-137.812,31.654-77.067,26.8-0.323c-2.589-0.161-5.097,0.752-6.851,2.455
					c-1.764,1.7-2.892,4.188-2.958,6.957c0.066,2.769,1.194,5.257,2.958,6.958c1.754,1.702,4.262,2.614,6.851,2.453
					c0,0,0,0.001,0,0.002c-2.608,0.168-4.889,1.383-6.462,3.298c-0.786,0.958-1.406,2.089-1.779,3.327
					c-0.33,1.234-0.428,2.575-0.254,3.949c0.176,1.373,0.603,2.648,1.236,3.758c0.683,1.103,1.557,2.045,2.561,2.775
					c2.002,1.459,4.516,2.061,7.083,1.566v0.001c-2.546,0.495-4.757,2.012-6.006,4.1c-1.27,2.089-1.78,4.797-1.096,7.484
					c0.754,2.67,2.466,4.798,4.596,5.998c2.203,1.177,4.787,1.444,7.266,0.628c0,0.001,0,0.002,0.001,0.003
					c-2.475,0.828-4.375,2.583-5.418,4.837c-1.097,2.275-1.109,4.971-0.106,7.557c0.968,2.601,3.074,4.433,5.344,5.347
					c2.299,0.909,4.876,0.854,7.243-0.292l0,0c-2.364,1.137-4.015,3.121-4.736,5.487c-0.705,2.35-0.569,5.13,0.858,7.509
					c1.387,2.402,3.523,4.059,5.979,4.62c2.412,0.59,4.969,0.196,7.158-1.227c0,0.001,0.001,0.002,0.001,0.003
					c-2.178,1.426-3.604,3.629-4.03,6.07c-0.393,2.416,0.197,5.084,1.807,7.341c1.707,2.188,4.101,3.504,6.53,3.812
					c2.457,0.283,4.978-0.461,6.962-2.146l0.001,0.002c-1.986,1.696-3.087,4.037-3.205,6.52c-0.156,2.514,0.824,5.031,2.734,7.041
					c1.876,2.042,4.503,2.961,6.955,2.949c2.473-0.019,4.844-1.035,6.607-2.979l0,0l0,0l0,0c-1.767,1.938-2.556,4.396-2.339,6.86
					c0.224,2.441,1.391,4.968,3.603,6.643c2.181,1.71,4.783,2.443,7.271,2.051c2.458-0.354,4.683-1.678,6.182-3.812
					c0.001,0.001,0.001,0.001,0.002,0.002c-1.488,2.136-1.99,4.718-1.47,7.135c0.538,2.389,2.082,4.645,4.419,6.137
					c2.401,1.385,5.114,1.717,7.482,1.095c2.387-0.653,4.446-2.288,5.655-4.595c0.001,0,0.002,0,0.003,0.002
					c-1.206,2.314-1.353,4.898-0.533,7.242c0.796,2.391,2.649,4.362,5.175,5.506c2.508,1.189,5.285,1.065,7.559,0.131
					c2.286-0.944,4.104-2.78,5.006-5.243l0,0c-0.916,2.479-0.721,5.041,0.408,7.239c0.562,1.1,1.354,2.103,2.34,2.939
					c0.492,0.418,1.029,0.801,1.611,1.124c0.592,0.3,1.223,0.55,1.889,0.737c1.332,0.381,2.676,0.486,3.95,0.348
					c0.638-0.07,1.257-0.199,1.851-0.389c0.601-0.209,1.174-0.479,1.709-0.793c2.146-1.26,3.705-3.321,4.289-5.862
					c0.002,0.001,0.004,0.001,0.008,0.001c-0.572,2.544-0.059,5.087,1.326,7.16c1.396,2.037,3.687,3.5,6.412,3.992
					c2.734,0.465,5.388-0.354,7.342-1.812c1.965-1.46,3.257-3.748,3.504-6.359c0.001,0,0.002,0,0.003,0
					c-0.249,2.604,0.591,5.05,2.235,6.896c1.645,1.852,4.09,3.139,6.86,3.157c2.771,0.063,5.291-0.896,7.046-2.708
					c1.754-1.758,2.745-4.145,2.67-6.751c0.002,0,0.002,0,0.004,0c0.088,2.606,1.229,4.94,3.09,6.604
					c1.859,1.594,4.443,2.461,7.207,2.248c2.762-0.253,5.123-1.691,6.649-3.601c1.532-1.901,2.205-4.458,1.791-7.04h0.001
					c0.415,2.586,1.844,4.734,3.901,6.111c1.028,0.688,2.214,1.187,3.483,1.442c1.269,0.255,2.604,0.185,3.957-0.116
					c1.351-0.312,2.574-0.867,3.621-1.604c1.043-0.746,1.887-1.743,2.518-2.807c1.26-2.139,1.613-4.696,0.873-7.205
					c0.002,0,0.002-0.002,0.002-0.002c0.742,2.488,2.457,4.521,4.664,5.592c2.205,1.062,4.938,1.279,7.558,0.363
					c2.582-1.014,4.533-2.928,5.521-5.166c0.971-2.287,0.978-4.901-0.076-7.289C284.361,120.611,320.292,69.05,320.292,9.088z"/>
			</g>
		</g>
		<g>
			<g>
				<defs>
					<rect id="SVGID_3_" width="230" height="180"/>
				</defs>
				<clipPath id="SVGID_4_">
					<use xlink:href="#SVGID_3_"  overflow="visible"/>
				</clipPath>
				<rect x="16.991" y="-147.192" clip-path="url(#SVGID_4_)" fill="none" width="312.479" height="312.56"/>
			</g>
		</g>
		<g>
			<g>
				<defs>
					<rect id="SVGID_5_" width="230" height="180"/>
				</defs>
				<clipPath id="SVGID_6_">
					<use xlink:href="#SVGID_5_"  overflow="visible"/>
				</clipPath>
				<g clip-path="url(#SVGID_6_)">
					<g>
						<g opacity="0.4">
							<g>
								<g>
									<defs>
										<rect id="SVGID_7_" x="50.484" y="-113.819" width="245.814" height="245.814"/>
									</defs>
									<clipPath id="SVGID_8_">
										<use xlink:href="#SVGID_7_"  overflow="visible"/>
									</clipPath>
									<path clip-path="url(#SVGID_8_)" fill="#FFFFFF" d="M296.299,9.088c0,67.88-55.025,122.907-122.906,122.907
										c-67.877,0-122.909-55.027-122.909-122.907s55.028-122.907,122.909-122.907C241.271-113.819,296.299-58.792,296.299,9.088"
										/>
								</g>
							</g>
						</g>
						<g>
							<g>
								<defs>
									<rect id="SVGID_9_" width="230" height="180"/>
								</defs>
								<clipPath id="SVGID_10_">
									<use xlink:href="#SVGID_9_"  overflow="visible"/>
								</clipPath>
								<path clip-path="url(#SVGID_10_)" fill="#FFFFFF" d="M125.547,40.202c0,10.817-7.277,16.648-16.256,16.648
									c-8.978,0-16.257-5.831-16.257-16.648c0-10.817,8.226-25.462,16.257-25.462C118.104,14.74,125.547,29.385,125.547,40.202"/>
							</g>
							<g>
								<g>
									<defs>
										<rect id="SVGID_11_" width="230" height="180"/>
									</defs>
									<clipPath id="SVGID_12_">
										<use xlink:href="#SVGID_11_"  overflow="visible"/>
									</clipPath>
									<line clip-path="url(#SVGID_12_)" fill="none" x1="108.829" y1="24.705" x2="108.829" y2="47.705"/>
								</g>
								<g>
									<g>
										<defs>
											<rect id="SVGID_13_" width="230" height="180"/>
										</defs>
										<clipPath id="SVGID_14_">
											<use xlink:href="#SVGID_13_"  overflow="visible"/>
										</clipPath>
										<path clip-path="url(#SVGID_14_)" fill="#FFFFFF" d="M109.192,24.533c0,0,0.127,0.358,0.291,0.985
											c0.168,0.626,0.369,1.521,0.56,2.596c0.376,2.148,0.639,5.012,0.645,7.877c0.021,2.864-0.223,5.729-0.612,7.877
											c-0.193,1.074-0.405,1.969-0.58,2.596c-0.17,0.627-0.304,0.985-0.304,0.985s-0.134-0.358-0.304-0.985
											c-0.175-0.627-0.387-1.522-0.58-2.596c-0.389-2.148-0.633-5.013-0.612-7.877c0.006-2.865,0.269-5.729,0.645-7.877
											c0.191-1.075,0.392-1.97,0.56-2.596C109.065,24.891,109.192,24.533,109.192,24.533"/>
									</g>
									<g>
										<g>
											<defs>
												<rect id="SVGID_15_" width="230" height="180"/>
											</defs>
											<clipPath id="SVGID_16_">
												<use xlink:href="#SVGID_15_"  overflow="visible"/>
											</clipPath>
											<path clip-path="url(#SVGID_16_)" fill="#F75C5C" d="M125.547,37.949c0,10.817-7.277,16.648-16.256,16.648
												c-8.978,0-16.257-5.831-16.257-16.648c0-10.817,8.226-25.462,16.257-25.462
												C118.104,12.487,125.547,27.132,125.547,37.949"/>
										</g>
										<g id="Layer_2">
											<g>
												<defs>
													<rect id="SVGID_17_" width="230" height="180"/>
												</defs>
												<clipPath id="SVGID_18_">
													<use xlink:href="#SVGID_17_"  overflow="visible"/>
												</clipPath>
												<path clip-path="url(#SVGID_18_)" fill="#FFFFFF" d="M109.192,22.28c0,0,0.169,0.358,0.388,0.985
													c0.224,0.626,0.503,1.521,0.747,2.596c0.501,2.148,0.851,5.012,0.86,7.877c0.027,2.864-0.298,5.729-0.816,7.877
													c-0.251,1.074-0.535,1.969-0.773,2.596c-0.227,0.627-0.406,0.985-0.406,0.985s-0.179-0.358-0.406-0.985
													c-0.238-0.627-0.522-1.522-0.773-2.596c-0.518-2.148-0.843-5.013-0.816-7.877c0.009-2.865,0.359-5.729,0.86-7.877
													c0.244-1.075,0.523-1.97,0.747-2.596C109.023,22.638,109.192,22.28,109.192,22.28"/>
											</g>
											<g>
												<g>
													<defs>
														<rect id="SVGID_19_" width="230" height="180"/>
													</defs>
													<clipPath id="SVGID_20_">
														<use xlink:href="#SVGID_19_"  overflow="visible"/>
													</clipPath>
													<g clip-path="url(#SVGID_20_)">
														<path fill="#F75C5C" d="M100.901,71.706c-0.015,0.074-0.111,0.258-0.288,0.554c-0.694,1.211-1.536,1.816-2.525,1.816
															c-0.059,0.044-0.155,0.125-0.288,0.244c0.207,0.679,0.613,1.514,1.218,2.503c0.738,1.226,1.196,2.038,1.374,2.437
															v0.133c-0.148-0.029-0.266-0.044-0.354-0.044c-0.089,0-0.229,0.007-0.421,0.022c-0.192,0.015-0.34,0.022-0.443,0.022
															c-0.443,0-0.753-0.164-0.931-0.491l-2.414-4.624l-0.31-0.246c-0.325,0.059-0.576,0.089-0.753,0.089
															c-0.266,0-0.665-0.015-1.196-0.044c-0.531-0.029-0.93-0.044-1.196-0.044c-0.576,0-1.049,0.044-1.418,0.133
															l-0.177,0.288c0.014,0.148,0.022,0.376,0.022,0.687c0,0.384-0.03,0.957-0.089,1.717
															c-0.059,0.761-0.088,1.333-0.088,1.717c0,0.177,0.015,0.443,0.044,0.797l-0.2,0.133
															c-0.147-0.044-0.31-0.066-0.487-0.066c-0.147,0-0.258,0.022-0.332,0.066c-0.532,0-0.797-0.156-0.797-0.468
															c0-0.104,0.015-0.23,0.044-0.379c0.029-0.149,0.066-0.788,0.11-1.918c0.059-1.308,0.089-2.653,0.089-4.036
															c0-0.535,0-1.353,0-2.453s0-1.925,0-2.475v-1.539c0.339-0.06,0.708-0.089,1.105-0.089c0.28,0,0.711,0.03,1.293,0.089
															c0.582,0.059,1.021,0.088,1.315,0.088c0.501,0,0.951-0.059,1.349-0.177c1.017,0.148,2.042,0.296,3.073,0.443
															c1.208,0.207,2.145,0.598,2.808,1.174c0.31,0.266,0.531,0.509,0.664,0.731c0.207,0.354,0.31,1.004,0.31,1.949
															C101.012,71.034,100.975,71.455,100.901,71.706z M98.594,68.853c-0.832-0.534-2.658-0.831-5.478-0.891
															c-0.119,0-0.371-0.007-0.757-0.022c-0.297-0.015-0.542-0.022-0.735-0.022c-0.341,0-0.564,0.096-0.668,0.288v3.788
															l0.177,0.155c0.605,0.177,1.484,0.266,2.636,0.266c0.236,0,0.59,0,1.063,0s0.827,0,1.063,0h0.708
															c0.015,0,0.207-0.029,0.576-0.089c1.255-0.193,1.964-0.616,2.126-1.269c0.029-0.119,0.044-0.29,0.044-0.512
															C99.351,69.743,99.098,69.179,98.594,68.853z"/>
														<path fill="#F75C5C" d="M116.43,78.744c0,0.105,0.008,0.188,0.021,0.247l-0.133,0.135c-0.192,0-0.487,0-0.887,0
															c-0.398,0-0.701,0-0.908,0c-0.739,0-1.842-0.015-3.312-0.044c-1.47-0.029-2.573-0.044-3.312-0.044
															c-0.93,0-1.875,0.03-2.835,0.089c-0.088-0.34-0.133-0.681-0.133-1.021c0-0.296,0.041-0.739,0.122-1.332
															c0.081-0.592,0.122-1.035,0.122-1.332c0-0.236-0.019-0.584-0.055-1.042c-0.037-0.458-0.056-0.807-0.056-1.043
															c0-0.429,0.019-1.076,0.056-1.942c0.037-0.865,0.055-1.512,0.055-1.941c0-0.622-0.037-1.221-0.111-1.797
															c-0.088-0.695-0.133-0.969-0.133-0.821c0-0.251,0.133-0.377,0.399-0.377c0.059,0,0.151,0.007,0.277,0.022
															c0.125,0.015,0.225,0.022,0.299,0.022c0.147,0,0.266-0.037,0.354-0.11c0.827,0.118,1.919,0.177,3.278,0.177
															c0.517,0,1.292-0.011,2.326-0.033c1.034-0.022,1.809-0.034,2.326-0.034c0.147,0,0.362,0,0.643,0
															c0.295,0.044,0.51,0.067,0.643,0.067c0.103-0.047,0.147-0.071,0.133-0.071c0.043-0.07,0.096-0.106,0.154-0.106
															c0.088,0,0.152,0.038,0.197,0.112l-0.178,1.281c-1.048,0.12-2.414,0.18-4.098,0.18c-0.384,0-0.96,0-1.728,0
															s-1.344,0-1.728,0c-0.487,0-0.849,0.007-1.085,0.022l-0.332,0.352c0.044,0.22,0.066,0.448,0.066,0.683
															c0,0.191-0.03,0.496-0.088,0.914c-0.06,0.418-0.082,0.745-0.066,0.98l0.022,0.286l0.244,0.242
															c0.369,0.088,0.842,0.132,1.417,0.132c1.344,0,1.846,0,1.506,0c0.59,0.015,1.085,0.094,1.484,0.24v1.068
															c-0.487,0.043-0.967,0.065-1.439,0.065c-1.581,0-2.614,0.059-3.101,0.176l-0.111,0.132l0.066,3.945l0.288,0.287
															c0.339,0,0.842,0,1.506,0c0.694,0,1.731,0.026,3.112,0.078c1.381,0.052,2.418,0.078,3.112,0.078
															c0.682,0,1.188-0.007,1.525-0.022c0.092,0.105,0.136,0.24,0.136,0.404c0,0.09-0.013,0.21-0.033,0.36
															C116.439,78.557,116.43,78.669,116.43,78.744z"/>
														<path fill="#F75C5C" d="M133.573,77.398c0,0.222,0.008,0.554,0.022,0.997c0,0.443,0,0.775,0,0.997
															c-0.147,0.074-0.332,0.111-0.557,0.111c-0.268,0-0.602-0.066-0.997-0.199l-0.063-0.222
															c-0.029-0.059-0.055-0.118-0.066-0.177c0-0.147,0-0.369,0-0.665c0-0.295,0-0.517,0-0.665
															c0-0.531-0.012-1.325-0.033-2.381c-0.021-1.056-0.033-1.842-0.033-2.359c0-0.708,0.022-1.402,0.066-2.082
															c-0.029-0.118-0.096-0.177-0.199-0.177h-0.089c-0.369,0.694-0.976,1.706-1.815,3.035
															c-0.074,0.089-0.178,0.229-0.311,0.421c-0.045,0.104-0.111,0.259-0.199,0.465c-0.178,0.384-0.547,1.026-1.107,1.927
															c-0.502,0.798-0.854,1.448-1.062,1.95c-0.235-0.281-0.466-0.665-0.688-1.152c-0.178-0.414-0.354-0.827-0.529-1.241
															c-0.889-1.772-1.805-3.315-2.746-4.629c-0.207-0.059-0.396-0.192-0.576-0.399c-0.027,0.148-0.045,0.259-0.045,0.333
															c0,0.133,0.021,0.329,0.064,0.587c0.045,0.259,0.066,0.454,0.066,0.587c0-0.015-0.066,2.237-0.199,6.756
															c-0.222,0.119-0.474,0.177-0.754,0.177c-0.207,0-0.517-0.029-0.93-0.088c-0.134-1.078-0.2-2.34-0.2-3.788
															c0-0.723,0.022-1.819,0.066-3.289c0.045-1.469,0.067-2.573,0.067-3.312c0-1.063-0.022-1.868-0.067-2.415
															c0.178,0,0.437-0.007,0.774-0.022c0.34,0,0.592,0,0.754,0c0.189,0,0.34,0.092,0.44,0.277s0.188,0.354,0.255,0.509
															c0.066,0.155,0.203,0.403,0.41,0.742c0.387,0.635,0.989,1.75,1.814,3.345c0.77,1.433,1.396,2.533,1.885,3.3
															c0.266-0.074,0.572-0.428,0.93-1.063c0.18-0.325,0.864-1.462,2.062-3.411c0.854-1.388,1.482-2.57,1.884-3.544
															c0.147-0.162,0.347-0.244,0.598-0.244c0.104,0,0.255,0.019,0.454,0.056c0.199,0.037,0.352,0.055,0.454,0.055h0.179
															c0.088,0.606,0.133,1.366,0.133,2.282c0,0.96-0.02,2.396-0.057,4.308C133.592,75.002,133.573,76.438,133.573,77.398z"
															/>
														<path fill="#F75C5C" d="M149.832,79.281c-0.089,0-0.229,0-0.421,0c-0.177,0-0.317,0-0.421,0
															c-0.207-0.267-0.413-0.69-0.62-1.269c-0.163-0.445-0.317-0.898-0.466-1.358c-0.428-1.083-1.094-1.625-1.993-1.625
															c-0.029,0-0.088,0-0.177,0c-0.074,0.015-0.133,0.022-0.178,0.022c-0.252,0-0.638-0.019-1.152-0.056
															c-0.518-0.037-0.907-0.055-1.174-0.055c-0.147,0-0.365,0.022-0.652,0.066c-0.288,0.044-0.491,0.066-0.609,0.066
															c-0.104,0-0.229-0.022-0.377-0.066c-0.191-0.044-0.316-0.066-0.376-0.066c-0.235,0.354-0.643,1.078-1.219,2.171
															c-0.487,0.916-0.931,1.617-1.329,2.104c-0.279,0.044-0.562,0.066-0.842,0.066c-0.325,0-0.592-0.066-0.797-0.199
															c0.914-1.846,2.354-4.592,4.318-8.24c0.116-0.192,0.289-0.48,0.51-0.864c0.088-0.207,0.229-0.509,0.42-0.908
															c0.193-0.398,0.385-0.79,0.576-1.174c0.234-0.472,0.396-0.886,0.485-1.24c0.118-0.163,0.298-0.244,0.532-0.244
															c0.117,0,0.283,0.022,0.498,0.066c0.214,0.044,0.373,0.066,0.479,0.066h0.064c0.189,0.34,0.465,0.849,0.816,1.528
															l0.442,1.107c0.503,1.255,1.241,2.924,2.216,5.006c1.137,2.407,1.897,4.061,2.281,4.961
															C150.438,79.237,150.157,79.281,149.832,79.281z M145.402,71.706c-0.062-0.177-0.155-0.45-0.289-0.82
															c-0.206-0.384-0.502-0.959-0.887-1.728c-0.028-0.015-0.072-0.022-0.135-0.022c-0.07,0-0.125,0.008-0.152,0.022
															c-0.104,0.236-0.476,0.908-1.107,2.016c-0.473,0.827-0.753,1.536-0.841,2.126c0.442-0.015,1.041-0.007,1.794,0.022
															c0.871,0.044,1.469,0.066,1.794,0.066c0.222,0,0.392-0.007,0.51-0.022C146.029,73.205,145.801,72.651,145.402,71.706z
															"/>
														<path fill="#F75C5C" d="M155.414,79.237c-0.148,0.118-0.296,0.177-0.443,0.177c-0.104,0-0.255-0.026-0.453-0.078
															c-0.199-0.052-0.345-0.078-0.433-0.078c-0.119,0-0.2,0.015-0.244,0.044l-0.11-0.133
															c0.074-1.167,0.11-2.562,0.11-4.187c0-0.679-0.015-1.687-0.044-3.024c-0.029-1.336-0.045-2.336-0.045-3.001
															c0-1.034,0.111-1.861,0.333-2.481c0.133,0.088,0.339,0.133,0.62,0.133c0.354,0.015,0.59,0.037,0.709,0.066
															c0.029,2.215,0.044,3.869,0.044,4.962v2.68C155.458,75.412,155.443,77.051,155.414,79.237z"/>
														<path fill="#F75C5C" d="M170.786,79.635c-0.207,0-0.519-0.014-0.931-0.044c-0.771-0.886-2.023-2.54-3.769-4.962
															c-1.551-2.141-2.853-3.758-3.896-4.851c-0.178-0.088-0.325-0.133-0.443-0.133h-0.088l-0.178,0.244
															c0.015,0.133,0.021,0.34,0.021,0.62c0,0.325-0.032,0.812-0.101,1.462c-0.065,0.65-0.101,1.137-0.101,1.462
															c0,2.91,0.015,4.763,0.044,5.56c0.028,0.118,0.045,0.207,0.045,0.266c0,0.044-0.017,0.111-0.045,0.199l-1.685-0.044
															c0.062-0.886,0.089-1.883,0.089-2.991c0-0.576-0.012-1.454-0.032-2.636c-0.021-1.181-0.032-2.067-0.032-2.658
															c0-1.831,0.08-3.367,0.244-4.607c0.115,0,0.291-0.011,0.521-0.033c0.229-0.022,0.399-0.033,0.521-0.033
															c0.161,0,0.303,0.022,0.422,0.066c0.221,0.089,0.518,0.354,0.885,0.798c0.252,0.34,0.504,0.679,0.755,1.019
															c0.116,0.133,0.295,0.325,0.53,0.576c0.117,0.163,0.295,0.392,0.531,0.687c1.211,1.388,3.014,3.478,5.403,6.269h0.153
															c0.162-1.728,0.244-4.799,0.244-9.214c0.268-0.089,0.53-0.133,0.797-0.133c0.297,0,0.539,0.06,0.731,0.177
															c0,0.783,0.019,1.957,0.056,3.522s0.057,2.732,0.057,3.5c0,1.034-0.016,1.794-0.044,2.282
															c-0.062,0.96-0.091,1.632-0.091,2.016c0,0.65,0.061,1.152,0.179,1.506C171.361,79.599,171.096,79.635,170.786,79.635z
															"/>
														<path fill="#F75C5C" d="M177.254,79.237c-0.148,0.118-0.296,0.177-0.443,0.177c-0.104,0-0.254-0.026-0.453-0.078
															c-0.197-0.052-0.344-0.078-0.433-0.078c-0.118,0-0.2,0.015-0.243,0.044l-0.111-0.133
															c0.074-1.167,0.111-2.562,0.111-4.187c0-0.679-0.016-1.687-0.045-3.024c-0.029-1.336-0.045-2.336-0.045-3.001
															c0-1.034,0.111-1.861,0.333-2.481c0.134,0.088,0.339,0.133,0.62,0.133c0.354,0.015,0.59,0.037,0.709,0.066
															c0.029,2.215,0.044,3.869,0.044,4.962v2.68C177.298,75.412,177.283,77.051,177.254,79.237z"/>
														<path fill="#F75C5C" d="M192.627,79.635c-0.207,0-0.518-0.014-0.932-0.044c-0.77-0.886-2.022-2.54-3.766-4.962
															c-1.553-2.141-2.852-3.758-3.897-4.851c-0.177-0.088-0.325-0.133-0.443-0.133h-0.088l-0.178,0.244
															c0.015,0.133,0.022,0.34,0.022,0.62c0,0.325-0.033,0.812-0.103,1.462c-0.063,0.65-0.103,1.137-0.103,1.462
															c0,2.91,0.018,4.763,0.045,5.56c0.028,0.118,0.045,0.207,0.045,0.266c0,0.044-0.017,0.111-0.045,0.199l-1.685-0.044
															c0.06-0.886,0.089-1.883,0.089-2.991c0-0.576-0.011-1.454-0.033-2.636c-0.021-1.181-0.033-2.067-0.033-2.658
															c0-1.831,0.082-3.367,0.244-4.607c0.117,0,0.291-0.011,0.521-0.033c0.229-0.022,0.4-0.033,0.521-0.033
															c0.162,0,0.301,0.022,0.42,0.066c0.222,0.089,0.518,0.354,0.887,0.798c0.251,0.34,0.502,0.679,0.753,1.019
															c0.118,0.133,0.295,0.325,0.53,0.576c0.119,0.163,0.297,0.392,0.533,0.687c1.211,1.388,3.012,3.478,5.401,6.269h0.155
															c0.16-1.728,0.242-4.799,0.242-9.214c0.268-0.089,0.531-0.133,0.799-0.133c0.295,0,0.539,0.06,0.729,0.177
															c0,0.783,0.02,1.957,0.057,3.522c0.035,1.565,0.057,2.732,0.057,3.5c0,1.034-0.016,1.794-0.044,2.282
															c-0.062,0.96-0.089,1.632-0.089,2.016c0,0.65,0.059,1.152,0.177,1.506C193.203,79.599,192.938,79.635,192.627,79.635z
															"/>
														<path fill="#F75C5C" d="M208.752,78.774c-1.122,0.692-2.503,1.038-4.143,1.038c-1.166,0-2.273-0.185-3.322-0.554
															c-1.271-0.428-2.163-1.056-2.68-1.883c-0.019-0.029-0.148-0.332-0.399-0.908c-0.104-0.192-0.235-0.487-0.397-0.886
															c-0.297-0.856-0.441-1.802-0.441-2.835c0-0.576,0.021-0.989,0.064-1.24c0.045-0.133,0.11-0.34,0.198-0.621
															c0.369-1.137,0.856-1.941,1.464-2.414c1.963-1.536,3.786-2.304,5.471-2.304c0.457,0,1.041,0.096,1.75,0.288
															c0.664,0.177,1.39,0.569,2.17,1.174c0.147,0.118,0.377,0.288,0.688,0.509c0.134,0.074,0.271,0.155,0.41,0.244
															c0.142,0.089,0.247,0.207,0.319,0.354c-0.205,0.428-0.312,0.65-0.312,0.665c-0.133,0.222-0.286,0.398-0.465,0.532
															c-0.576-0.414-1.16-0.827-1.75-1.241c-0.753-0.458-1.411-0.687-1.972-0.687l-0.244,0.022
															c-2.333,0-4.127,0.694-5.383,2.083c-0.547,0.605-0.819,1.417-0.819,2.437c0,1.299,0.272,2.377,0.819,3.234
															c0.324,0.517,0.769,0.982,1.328,1.396c0.562,0.414,1.129,0.688,1.705,0.819c0.135,0.03,0.215,0.044,0.244,0.044
															c2.26,0,3.795-0.214,4.606-0.643c0.474-0.25,0.782-0.768,0.931-1.55c0.045-0.251,0.09-0.878,0.133-1.883
															c-0.636-0.118-1.352-0.177-2.146-0.177c-0.016,0-0.753,0.022-2.215,0.066c-0.147-0.118-0.223-0.288-0.223-0.509
															v-0.709l0.223-0.111c0.16-0.029,0.404-0.044,0.729-0.044c0.312,0,0.786,0.03,1.43,0.088
															c0.644,0.059,1.125,0.088,1.451,0.088c0.502,0,0.98-0.059,1.438-0.177c0.062,0.044,0.153,0.066,0.288,0.066
															c0.458,0,0.724,0.059,0.798,0.177c-0.062,1.104-0.118,2.208-0.179,3.312
															C210.177,77.302,209.652,78.215,208.752,78.774z"/>
													</g>
												</g>
											</g>
										</g>
									</g>
								</g>
							</g>
						</g>
					</g>
				</g>
			</g>
		</g>
	</g>
</g>
<g>
	<path fill="#F75C5C" d="M163.492,41.415h-0.506c-0.154,0-0.384,0.054-0.69,0.161s-0.552,0.161-0.736,0.161
		c-0.184,0-0.468-0.03-0.851-0.092c-0.384-0.061-0.683-0.092-0.897-0.092c-0.521,0-0.936,0.215-1.241,0.644
		c-0.062,0.368-0.093,0.66-0.093,0.874c0,0.307,0.038,0.767,0.115,1.38c0.076,0.614,0.115,1.074,0.115,1.38
		c0,0.828-0.246,1.488-0.736,1.978c-0.245-0.122-0.536-0.184-0.874-0.184c-0.184,0-0.46,0.031-0.828,0.092
		c-0.367,0.062-0.659,0.092-0.874,0.092c-0.367,0-0.735-0.093-1.104-0.278v-5.143l-0.782-0.834h-15.18
		c2.674-3.22,5.363-6.44,8.068-9.66c3.165-3.802,5.916-6.961,8.252-9.476c0.185,0.154,0.461,0.23,0.83,0.23
		c0.246,0,0.615-0.038,1.106-0.115s0.861-0.115,1.106-0.115c0.676,0,1.015,0.307,1.015,0.92c0,0.123-0.031,0.322-0.092,0.598
		c-0.062,0.276-0.092,0.491-0.092,0.644c0,6.379,0.046,10.626,0.138,12.742c0.368,0.031,1.119,0.154,2.254,0.368
		c0.92,0.154,1.671,0.23,2.254,0.23c0.337,0,0.598-0.015,0.782-0.046c0.214,0.368,0.322,0.844,0.322,1.426v1.84
		C164.12,41.323,163.86,41.415,163.492,41.415z M154.2,29.133l-0.368-0.46c-0.706,0.675-2.208,2.53-4.508,5.566
		c-0.399,0.46-0.798,0.92-1.196,1.38c-0.521,0.614-0.782,1.104-0.782,1.472c0,0.338,0.169,0.537,0.506,0.598
		c0.398-0.061,0.981-0.092,1.748-0.092c2.484,0,4.049-0.123,4.692-0.368c-0.062-0.705-0.046-1.64,0.046-2.806
		c0.092-1.41,0.138-2.346,0.138-2.806C154.476,30.728,154.384,29.9,154.2,29.133z"/>
	<path fill="#F75C5C" d="M198.544,41.415h-0.506c-0.154,0-0.384,0.054-0.69,0.161s-0.552,0.161-0.736,0.161
		c-0.184,0-0.468-0.03-0.851-0.092c-0.384-0.061-0.683-0.092-0.897-0.092c-0.521,0-0.936,0.215-1.241,0.644
		c-0.062,0.368-0.093,0.66-0.093,0.874c0,0.307,0.038,0.767,0.115,1.38c0.076,0.614,0.115,1.074,0.115,1.38
		c0,0.828-0.246,1.488-0.736,1.978c-0.245-0.122-0.536-0.184-0.874-0.184c-0.184,0-0.46,0.031-0.828,0.092
		c-0.367,0.062-0.659,0.092-0.874,0.092c-0.367,0-0.735-0.093-1.104-0.278v-5.143l-0.782-0.834h-15.18
		c2.674-3.22,5.363-6.44,8.068-9.66c3.165-3.802,5.916-6.961,8.252-9.476c0.185,0.154,0.461,0.23,0.83,0.23
		c0.246,0,0.615-0.038,1.106-0.115s0.861-0.115,1.106-0.115c0.676,0,1.015,0.307,1.015,0.92c0,0.123-0.031,0.322-0.092,0.598
		c-0.062,0.276-0.092,0.491-0.092,0.644c0,6.379,0.046,10.626,0.138,12.742c0.368,0.031,1.119,0.154,2.254,0.368
		c0.92,0.154,1.671,0.23,2.254,0.23c0.337,0,0.598-0.015,0.782-0.046c0.214,0.368,0.322,0.844,0.322,1.426v1.84
		C199.172,41.323,198.912,41.415,198.544,41.415z M189.252,29.133l-0.368-0.46c-0.706,0.675-2.208,2.53-4.508,5.566
		c-0.399,0.46-0.798,0.92-1.196,1.38c-0.521,0.614-0.782,1.104-0.782,1.472c0,0.338,0.169,0.537,0.506,0.598
		c0.398-0.061,0.981-0.092,1.748-0.092c2.484,0,4.049-0.123,4.692-0.368c-0.062-0.705-0.046-1.64,0.046-2.806
		c0.092-1.41,0.138-2.346,0.138-2.806C189.527,30.728,189.436,29.9,189.252,29.133z"/>
</g>
</svg>
