<?xml version="1.0" encoding="utf-8"?>
<!-- Generator: Adobe Illustrator 16.0.0, SVG Export Plug-In . SVG Version: 6.00 Build 0)  -->
<!DOCTYPE svg PUBLIC "-//W3C//DTD SVG 1.1//EN" "http://www.w3.org/Graphics/SVG/1.1/DTD/svg11.dtd">
<svg version="1.1" id="Layer_1" xmlns="http://www.w3.org/2000/svg" xmlns:xlink="http://www.w3.org/1999/xlink" x="0px" y="0px"
	 width="405px" height="115px" viewBox="0 0 405 115" enable-background="new 0 0 405 115" xml:space="preserve">
<path fill="#C47062" d="M275.56,81.791c0.257-0.856,0.688-1.755,1.324-2.688c2.77-4.062,7.57-6.206,11.912-5.037
	c2.538,0.684,4.939,2.48,6.152,5.191c3.303,7.376-3.341,13.661-9.125,13.207C280.857,92.076,273.716,87.952,275.56,81.791"/>
<path fill="#EF9785" d="M366.026,6.845l-11.862,23.377c-2.205,4.345-4.491,8.801-7.903,11.886c-3.411,3.083-8.256,4.519-12.075,2.19
	c-3.608-2.199-5.93-7.219-10.434-5.839c-3.451,1.056-5.517,5.266-6.936,8.569c-7.953,18.523-20.098,49.83-41.994,37.088
	c-6.78-3.945-12.599-11.445-17.568-17.972c-3.194-4.191-6.712-8.849-11.463-9.488c-4.988-0.672-9.434,3.304-13.759,6.303
	c-11.001,7.627-20.798-0.597-28.249-10.303c-7.183-9.357-14.605-23.898-24.77-10.17c-3.437,4.642-6.873,9.284-10.311,13.924
	c-1.457,1.967-3.205,4.099-5.421,4.077c-1.74-0.017-3.249-1.383-4.934-1.891c-4.443-1.335-8.436,3.387-11.008,7.854
	c-2.573,4.47-5.544,9.703-10.119,10.068c-1.885,0.149-3.573-0.36-5.139-1.214c-5.123-3.329-9.478-10.729-15.1-9.01
	c-0.961,0.293-1.823,0.85-2.625,1.535c-0.899,0.703-1.844,1.646-2.842,2.884c-7.368,9.129-13.052,21.092-24.952,16.785l0.001,0.075
	c-0.001-0.071-4.216-2.786-4.651-3.198c-6.531-6.169-10.982-16.087-15.639-24.149c-5.292-9.165-10.611-18.368-16.992-26.547
	c-3.243-4.156-6.951-8.397-11.683-9.298c-11.709-2.225-17.624,13.452-22.933,22.702c-3.574,6.231-9.188,14.341-14.45,14.018L0,115
	h163.848l0,0l240.937-0.317l0.215-53.9c-2.403-0.147-4.29-2.052-6.659-6.699C394.173,45.911,380.309-21.299,366.026,6.845"/>
<path fill="#C47062" d="M43.431,47.86c-0.464,0.466-0.799,1.14-0.889,1.935c-0.131,1.142-0.018,2.353,0.214,3.464
	c0.417,1.991,1.446,3.806,2.685,5.107c1.391,1.463,3.436,1.707,3.923-1.018c0.303-1.691-0.144-4.172-0.644-5.788
	c-0.517-1.666-1.432-3.382-2.797-4.136C45.054,46.946,44.106,47.183,43.431,47.86"/>
<path fill="#FFFFFF" d="M43.431,46.632c-0.464,0.467-0.799,1.141-0.889,1.936c-0.131,1.141-0.018,2.353,0.214,3.463
	c0.417,1.99,1.446,3.806,2.685,5.106c1.391,1.463,3.436,1.708,3.923-1.018c0.303-1.691-0.144-4.171-0.644-5.787
	c-0.517-1.667-1.432-3.382-2.797-4.137C45.054,45.718,44.106,45.956,43.431,46.632"/>
<path fill="#C47062" d="M45.152,50.066c0.034,0.443,0.166,0.968,0.214,1.188c0.102,0.475,0.266,0.95,0.429,1.401
	c0.155,0.428,0.426,1.366,0.832,1.542c1.033,0.444-0.084-3.026-0.241-3.449c-0.15-0.404-0.327-1.133-0.684-1.34
	C45.275,49.16,45.118,49.634,45.152,50.066"/>
<path fill="#C47062" d="M44.413,30.035c0,0,0.521,0.471,1.392,1.34c0.43,0.44,0.97,0.952,1.539,1.611
	c0.576,0.647,1.239,1.368,1.929,2.196c0.689,0.826,1.427,1.724,2.178,2.712c0.756,0.98,1.564,2.005,2.336,3.133
	c0.787,1.11,1.593,2.268,2.389,3.464c0.777,1.218,1.561,2.457,2.329,3.712c1.55,2.499,2.938,5.146,4.246,7.611
	c0.617,1.267,1.194,2.504,1.725,3.688c0.542,1.177,1.048,2.292,1.475,3.352c0.847,2.123,1.479,3.941,1.908,5.218
	c0.43,1.276,0.642,2.025,0.642,2.025s-0.449-0.582-1.171-1.638c-0.724-1.056-1.74-2.569-2.872-4.442
	c-0.598-0.913-1.241-1.903-1.894-2.97c-0.668-1.055-1.354-2.18-2.047-3.356c-0.721-1.153-1.459-2.347-2.191-3.577
	c-0.732-1.23-1.462-2.493-2.221-3.729c-1.481-2.506-2.964-5.012-4.354-7.363c-0.688-1.184-1.333-2.348-1.981-3.418
	c-0.649-1.067-1.209-2.14-1.762-3.086c-1.108-1.886-1.977-3.535-2.624-4.664C44.75,30.713,44.413,30.035,44.413,30.035"/>
<path fill="#FFFFFF" d="M54.622,46.248c-1.504-1.706-7.904-11.037-3.074-12.006c1.544-0.311,3.552,0.174,4.889,1.188
	c1.878,1.422,3.087,4.225,3.169,6.913c0.065,2.114-1.033,6.531-3.358,5.355C55.83,47.487,55.256,46.966,54.622,46.248"/>
<path fill="#FFFFFF" d="M62.468,55.761c1.111-1.078,1.426-3.21,0.695-4.701c-0.731-1.491-2.414-2.14-3.707-1.434
	c-0.327,0.18-0.638,0.447-0.799,0.841c-0.599,1.457,1.197,5.61,2.497,5.829C61.624,56.375,62.095,56.122,62.468,55.761"/>
<path fill="#FFFFFF" d="M64.017,59.681c0.39-0.666,1.573,0.18,1.907,0.999c0.124,0.305,0.181,0.645,0.2,0.983
	c0.03,0.525-0.133,1.195-0.56,1.249c-0.907,0.111-1.604-1.505-1.666-2.454C63.874,60.093,63.922,59.843,64.017,59.681"/>
<path fill="#C47062" d="M123.769,68.77c0.455-0.69,1.362-0.215,1.911,0.363c0.408,0.426,0.798,0.903,1.008,1.508
	c0.303,0.872,0.175,1.811-0.737,1.644c-0.571-0.104-1.092-0.791-1.489-1.215C123.904,70.474,123.304,69.476,123.769,68.77"/>
<path fill="#FFFFFF" d="M123.769,68.077c0.455-0.69,1.362-0.214,1.911,0.361c0.408,0.426,0.798,0.906,1.008,1.51
	c0.303,0.872,0.175,1.812-0.737,1.642c-0.571-0.103-1.092-0.789-1.489-1.213C123.904,69.781,123.304,68.784,123.769,68.077"/>
<path fill="#C47062" d="M129.899,73.512c-0.33-0.489-1.065-1.074-1.605-0.99c-0.299,0.047-0.57,0.294-0.574,0.705
	c-0.008,0.783,1.137,1.714,1.712,1.739C130.129,74.993,130.269,74.061,129.899,73.512"/>
<path fill="#FFFFFF" d="M129.899,72.78c-0.33-0.491-1.065-1.075-1.605-0.991c-0.299,0.047-0.57,0.294-0.574,0.706
	c-0.008,0.781,1.137,1.715,1.712,1.738C130.129,74.262,130.269,73.329,129.899,72.78"/>
<path fill="#C47062" d="M146.964,68.134c0.676-0.018,1.744-1.777,1.939-2.26c0.354-0.879-0.273-1.27-0.92-1.154
	c-0.518,0.091-0.998,0.471-1.279,1.014c-0.281,0.543-0.36,1.238-0.209,1.854C146.59,67.987,146.759,68.142,146.964,68.134"/>
<path fill="#FFFFFF" d="M146.964,67.751c0.676-0.019,1.744-1.777,1.939-2.262c0.354-0.878-0.273-1.27-0.92-1.154
	c-0.518,0.091-0.998,0.474-1.279,1.016c-0.281,0.543-0.36,1.238-0.209,1.854C146.59,67.603,146.759,67.758,146.964,67.751"/>
<path fill="#C47062" d="M143.817,71.093c-0.118,0.322-0.178,0.99-0.026,1.307c0.283,0.588,0.767,0.062,1.073-0.287
	c0.232-0.266,0.458-0.541,0.672-0.829c0.252-0.335,0.756-1.085,0.492-1.618c-0.279-0.562-1.103-0.096-1.447,0.218
	C144.246,70.191,143.989,70.62,143.817,71.093"/>
<path fill="#FFFFFF" d="M143.817,70.731c-0.118,0.323-0.178,0.991-0.026,1.31c0.283,0.586,0.767,0.061,1.073-0.289
	c0.232-0.264,0.458-0.542,0.672-0.827c0.252-0.338,0.756-1.089,0.492-1.622c-0.279-0.562-1.103-0.095-1.447,0.219
	C144.246,69.83,143.989,70.261,143.817,70.731"/>
<path fill="#C47062" d="M142.742,73.743c-0.153,0.016-0.297,0.062-0.374,0.12c-0.187,0.139-0.318,0.384-0.351,0.65
	c-0.017,0.157,0.003,0.337,0.097,0.445c0.088,0.101,0.221,0.123,0.337,0.091c0.318-0.09,0.757-0.421,0.849-0.846
	C143.387,73.811,143.046,73.716,142.742,73.743"/>
<path fill="#FFFFFF" d="M142.774,73.353c-0.153,0.015-0.297,0.061-0.374,0.117c-0.186,0.141-0.318,0.386-0.35,0.65
	c-0.018,0.159,0.003,0.336,0.097,0.445c0.088,0.103,0.221,0.125,0.338,0.092c0.317-0.091,0.756-0.423,0.848-0.845
	C143.419,73.418,143.079,73.322,142.774,73.353"/>
<path fill="#C47062" d="M149.057,73.817c-0.857,1.154-0.231,2.992,1.104,2.763c1.303-0.223,2.249-2.077,2.72-3.432
	c0.3-0.863,0.52-3.519-0.372-4.08c-0.705-0.442-1.165,0.733-1.423,1.334c-0.426,0.984-0.71,1.964-1.428,2.714
	C149.474,73.309,149.258,73.55,149.057,73.817"/>
<path fill="#FFFFFF" d="M149.057,72.59c-0.857,1.153-0.231,2.991,1.104,2.762c1.303-0.223,2.249-2.077,2.72-3.431
	c0.3-0.864,0.52-3.52-0.372-4.08c-0.705-0.442-1.165,0.732-1.423,1.333c-0.426,0.986-0.71,1.965-1.428,2.714
	C149.474,72.08,149.258,72.322,149.057,72.59"/>
<path fill="#C47062" d="M149.608,73.739c0,0,0.045-0.077,0.135-0.194c0.086-0.114,0.232-0.276,0.365-0.476
	c0.282-0.369,0.631-0.891,0.964-1.416c0.146-0.281,0.322-0.543,0.447-0.818c0.149-0.262,0.257-0.525,0.366-0.75
	c0.118-0.223,0.187-0.425,0.25-0.564c0.062-0.141,0.105-0.222,0.105-0.222s0.009,0.091,0.011,0.253
	c-0.012,0.156,0.02,0.403-0.033,0.672c-0.039,0.275-0.097,0.599-0.213,0.917c-0.095,0.337-0.267,0.646-0.428,0.964
	c-0.195,0.288-0.378,0.594-0.61,0.804c-0.206,0.238-0.447,0.41-0.651,0.539c-0.197,0.15-0.387,0.168-0.507,0.231
	C149.684,73.723,149.608,73.739,149.608,73.739"/>
<path fill="#C47062" d="M260.067,82.644c0,0,0.209,0.181,0.603,0.525c0.39,0.354,0.965,0.844,1.695,1.468
	c0.733,0.615,1.633,1.341,2.673,2.135c1.055,0.771,2.23,1.644,3.569,2.464c1.339,0.812,2.784,1.676,4.375,2.393
	c1.584,0.728,3.274,1.394,5.053,1.885c1.775,0.502,3.636,0.813,5.524,0.931c1.888,0.085,3.809-0.009,5.691-0.42
	c0.467-0.118,0.938-0.214,1.399-0.363l0.644-0.196l0.735-0.274c1.025-0.358,1.84-0.752,2.725-1.133
	c1.774-0.856,3.442-1.934,5.001-3.097c1.574-1.142,2.99-2.453,4.294-3.757c1.274-1.343,2.478-2.648,3.468-3.995
	c1.017-1.315,1.904-2.584,2.646-3.756c0.727-1.182,1.376-2.217,1.843-3.119c0.501-0.883,0.86-1.604,1.106-2.098
	c0.254-0.49,0.39-0.752,0.39-0.752s-0.076,0.292-0.217,0.842c-0.152,0.546-0.345,1.364-0.693,2.359
	c-0.324,1.009-0.765,2.214-1.345,3.562c-0.601,1.332-1.297,2.841-2.21,4.376c-0.889,1.553-1.979,3.142-3.213,4.747
	c-1.281,1.546-2.699,3.129-4.318,4.564c-1.636,1.405-3.433,2.704-5.37,3.8c-0.995,0.521-2.063,1.084-3.01,1.415l-0.732,0.29
	c-0.359,0.137-0.558,0.188-0.846,0.282c-0.53,0.185-1.074,0.31-1.614,0.455c-2.172,0.505-4.396,0.725-6.564,0.56
	c-2.167-0.147-4.273-0.61-6.228-1.308c-1.961-0.685-3.779-1.586-5.412-2.615c-1.626-1.039-3.112-2.107-4.379-3.263
	c-1.271-1.143-2.385-2.25-3.293-3.33c-0.918-1.062-1.678-2.026-2.256-2.872c-0.592-0.824-1.025-1.513-1.304-1.98
	C260.217,82.895,260.067,82.644,260.067,82.644"/>
<path fill="#FFFFFF" d="M266.707,89.964c0.091-0.043,0.191-0.075,0.303-0.093c1.076-0.177,2.671,1.722,2.693,2.941
	c0.008,0.443-0.239,0.857-0.564,1.084c-0.324,0.223-0.716,0.279-1.093,0.256c-0.555-0.033-1.125-0.254-1.502-0.736
	C265.896,92.584,265.638,90.473,266.707,89.964"/>
<path fill="#FFFFFF" d="M273.04,93.894c1.481-0.006,3.76,1.5,3.885,2.562c0.177,1.504-1.496,2.571-2.562,2.428
	c-0.805-0.109-1.538-0.683-2.003-1.463c-0.383-0.645-0.657-1.691-0.56-2.479C271.893,94.189,272.39,93.897,273.04,93.894"/>
<path fill="#FFFFFF" d="M281.22,96.988c0.809-0.56,2.226-0.628,2.992-0.669c0.963-0.051,3.552-0.095,3.271,1.779
	c-0.16,1.068-0.707,2.05-1.477,2.647c-0.855,0.666-1.968,0.844-2.949,0.492c-0.98-0.353-1.815-1.216-2.258-2.305
	C280.406,97.966,280.675,97.365,281.22,96.988"/>
<path fill="#FFFFFF" d="M290.637,97.916c0.384,0.821,1.329,1.529,2.159,1.703c0.868,0.185,1.836-0.194,2.347-1.041
	c0.231-0.381,0.361-0.836,0.443-1.293c0.146-0.827,0.075-1.839-0.525-2.302c-0.914-0.706-2.278-0.11-3.144,0.45
	C291.183,95.909,290.11,96.789,290.637,97.916"/>
<path fill="#FFFFFF" d="M300.217,94.365c1.018,0.211,1.836-0.672,1.979-1.883c0.076-0.632-0.103-1.314-0.507-1.741
	c-0.107-0.114-0.232-0.213-0.374-0.257c-0.993-0.314-2.309,0.48-2.664,1.626c-0.335,1.081,0.646,1.988,1.437,2.221
	C300.131,94.344,300.174,94.354,300.217,94.365"/>
<path fill="#FFFFFF" d="M307.12,87.433c0.438-0.608,0.514-1.552,0.155-2.228c-0.104-0.2-0.261-0.384-0.458-0.412
	c-1.314-0.186-3.666,3.195-1.059,3.337C306.271,88.159,306.789,87.892,307.12,87.433"/>
<path fill="#FFFFFF" d="M278.039,82.12c0.193-0.644,0.518-1.319,0.995-2.021c2.083-3.051,5.69-4.665,8.955-3.785
	c1.907,0.514,3.713,1.865,4.625,3.902c2.481,5.546-2.514,10.27-6.86,9.929C282.022,89.854,276.653,86.751,278.039,82.12"/>
<path fill="#C47062" d="M286.94,83.553c-0.335-1.1-1.003-1.917-1.757-1.425c-1.151,0.75-0.851,5.278,0.956,4.884
	C287.259,86.768,287.362,84.936,286.94,83.553"/>
<path fill="#C47062" d="M360.046,18.632c0,0-0.098,0.425-0.298,1.151c-0.103,0.36-0.246,0.805-0.296,1.303
	c-0.035,0.245-0.074,0.504-0.116,0.777c-0.022,0.133-0.044,0.269-0.067,0.409c-0.005,0.147-0.01,0.296-0.015,0.45
	c-0.019,0.61-0.07,1.252,0.016,1.935c0.039,0.338,0.023,0.686,0.104,1.034c0.078,0.348,0.138,0.702,0.201,1.062
	c0.041,0.363,0.198,0.709,0.293,1.072c0.108,0.358,0.205,0.722,0.36,1.072c0.141,0.356,0.28,0.713,0.421,1.072l0.513,1.039
	c0.335,0.697,0.746,1.353,1.138,2.004c0.421,0.629,0.812,1.275,1.26,1.841c0.42,0.592,0.877,1.113,1.286,1.646
	c0.439,0.489,0.847,0.973,1.24,1.4c0.41,0.395,0.757,0.825,1.106,1.134c0.347,0.312,0.632,0.635,0.891,0.85
	c0.513,0.445,0.811,0.726,0.811,0.726s-0.36-0.092-0.995-0.303c-0.32-0.103-0.684-0.285-1.11-0.488
	c-0.437-0.188-0.88-0.492-1.383-0.802c-0.495-0.322-1.012-0.716-1.543-1.159c-0.511-0.47-1.082-0.936-1.58-1.538
	c-0.53-0.563-1.042-1.196-1.526-1.88c-0.258-0.325-0.463-0.71-0.69-1.074c-0.22-0.371-0.456-0.73-0.635-1.141l-0.567-1.198
	c-0.147-0.426-0.297-0.848-0.443-1.27c-0.165-0.41-0.244-0.861-0.338-1.293c-0.078-0.441-0.217-0.854-0.237-1.297
	c-0.103-0.87-0.152-1.711-0.068-2.513c-0.001-0.801,0.202-1.531,0.354-2.193c0.103-0.67,0.442-1.235,0.625-1.732
	c0.184-0.519,0.446-0.857,0.644-1.162C359.8,18.966,360.046,18.632,360.046,18.632"/>
<path fill="#FFFFFF" d="M358.555,26.468c0.341-1.31,0.188-3.441-0.225-4.346c-0.273-0.601-0.549-0.654-1.036-0.287
	c-0.895,0.674-1.521,2.074-1.254,3.305c0.228,1.049,0.84,1.84,1.645,2.268c0.189,0.099,0.422-0.006,0.553-0.193
	C358.372,27.026,358.477,26.768,358.555,26.468"/>
<path fill="#FFFFFF" d="M360.34,32.82c0.005-0.482-0.085-1-0.199-1.365c-0.241-0.774-0.584-1.625-1.173-2.115
	c-1.551-1.289-1.896,2.085-1.394,3.202c0.32,0.712,0.896,1.256,1.55,1.492C360.044,34.366,360.331,33.646,360.34,32.82"/>
<path fill="#FFFFFF" d="M363.238,36.23c-0.414-0.445-1.534-1.489-1.95-0.545c-0.262,0.595,0.34,1.683,0.735,2.033
	c0.733,0.647,2.679,0.88,1.749-0.771C363.639,36.707,363.452,36.459,363.238,36.23"/>
<path fill="#C47062" d="M375.241,46.169c0.292-0.58,0.422-1.382,0.247-1.905c-0.615-1.841-2.778-1.312-2.928,0.565
	c-0.088,1.122,1.187,2.612,2.191,1.946C374.94,46.652,375.107,46.434,375.241,46.169"/>
<path fill="#FFFFFF" d="M374.929,45.361c0.293-0.58,0.422-1.383,0.248-1.905c-0.615-1.842-2.779-1.313-2.929,0.565
	c-0.087,1.122,1.188,2.612,2.192,1.946C374.629,45.845,374.795,45.625,374.929,45.361"/>
</svg>
