<?xml version="1.0" encoding="utf-8"?>
<!-- Generator: Adobe Illustrator 16.0.0, SVG Export Plug-In . SVG Version: 6.00 Build 0)  -->
<!DOCTYPE svg PUBLIC "-//W3C//DTD SVG 1.1//EN" "http://www.w3.org/Graphics/SVG/1.1/DTD/svg11.dtd">
<svg version="1.1" id="Layer_1" xmlns="http://www.w3.org/2000/svg" xmlns:xlink="http://www.w3.org/1999/xlink" x="0px" y="0px"
	 width="1023.801px" height="400.374px" viewBox="0 0 1023.801 400.374" enable-background="new 0 0 1023.801 400.374"
	 xml:space="preserve">
<g opacity="0.5">
	<g>
		<path fill="#4979BF" d="M780.729,293.983c-6.219,13.914-12.951,27.459-23.812,38.311c-10.336,10.329-28.914,14.111-42.081,16.924
			c-15.165,3.239-30.638,4.255-46.053,4.029c-13.33-0.193-26.778-1.974-39.636-6.011c-3.59-1.127-27.97-8.883-18.998-15.671
			c4.487-3.396,9.555-6.003,14.158-9.23c9.015-6.312,17.635-13.377,25.354-21.596c13.212-14.066,24.4-30.438,34.188-47.637
			c20.298-35.664,36.848-75.451,66.188-103.25c51.778-49.056,134.044-48.704,183.908,4.606
			c23.706,25.345,32.688,62.155,35.483,97.722c0.93,11.787,1.41,23.601,1.185,35.069c-0.354,17.812-0.087,34.224-1.415,47.77
			c-0.367,3.744-1.483,14.479-4.042,15.845c-20.127,10.742-44.384,7.708-68.199,7.908c-13.888,0.114-27.609-2.815-41.661-8.952
			c-2.541-1.108-2.79-7.291-2.427-12.517c1.077-15.47,9.714-43.847,9.769-59.449c0.057-15.086-5.307-33.229-17.775-40.896
			c-14.949-9.188-31.885,1.197-41.898,14.429C793.292,264.165,787.298,279.278,780.729,293.983"/>
	</g>
</g>
<g opacity="0.5">
	<g>
		<g>
			<g>
				<defs>
					<rect id="SVGID_1_" x="771.538" y="43.351" width="148.14" height="101.608"/>
				</defs>
				<clipPath id="SVGID_2_">
					<use xlink:href="#SVGID_1_"  overflow="visible"/>
				</clipPath>
				<path clip-path="url(#SVGID_2_)" fill="#1A2C3F" d="M887.321,120.993c-30.985-6.046-63.827,0.454-91.053,18.168
					c-3.021,1.967-6.021,4.087-9.369,5.21c-7.669,2.574-14.367-3.645-15.195-12.197c-1.006-10.365,2.745-20.517,5.865-30.036
					c3.873-11.812,8.87-23.2,15.247-33.568c3.713-6.041,7.896-11.81,13.085-16.272c7.039-6.055,28.699-17.819,28.117,2.373
					c-0.24,8.395-5.885,12.597-10.271,18.402c-4.729,6.253-8.881,13.056-12.367,20.266c-0.817,1.691-2.657,5.11-2.291,7.092
					c0.837,4.549,4.074-2.329,4.764-3.502c2.203-3.74,4.72-7.263,7.438-10.543c5.593-6.74,12.169-12.452,19.406-16.793
					c7.427-4.454,14.883-8.858,23.545-8.582c2.163,0.068,4.393,0.416,6.245,1.675c6.567,4.464,5.165,14.449,0.124,19.726
					c-3.805,3.983-9.122,5.433-13.559,8.262c-0.973,0.62-8.791,6.765-5.932,7.71c0.665,0.219,1.376,0.037,2.046-0.157
					c8.241-2.382,16.815-3.802,25.365-4.342c9.094-0.572,18.937-1.642,27.608,1.78c5.076,2.002,11.452,6.354,13.086,12.67
					c2.146,8.303-3.75,14.665-10.722,15.795c-5.438,0.883-10.914-0.786-16.289-2.074
					C890.592,121.667,888.959,121.314,887.321,120.993"/>
			</g>
		</g>
	</g>
</g>
<g opacity="0.5">
	<g>
		<g>
			<g>
				<defs>
					<rect id="SVGID_3_" x="730.747" y="227.207" width="80.085" height="109.404"/>
				</defs>
				<clipPath id="SVGID_4_">
					<use xlink:href="#SVGID_3_"  overflow="visible"/>
				</clipPath>
				<path clip-path="url(#SVGID_4_)" fill="#1A2C3F" d="M732.791,335.462c1.372,1.034,3.124,1.149,4.777,1.149
					c18.2,0,35.342-9.485,50.619-20.604c8.601-6.259,17.791-15.225,16.979-26.696c-0.187-2.631-1.246-5.584-3.51-6.299
					c-2.229-0.705-4.417,1.071-6.194,2.738c-8.456,7.93-16.912,15.854-25.368,23.782c19.096-13.093,33.479-34.603,39.355-58.851
					c1.062-4.384,1.858-8.998,1.045-13.449c-0.813-4.449-3.575-8.709-7.508-9.771c-4.127-1.115-8.468,1.54-11.102,5.28
					c-2.632,3.739-3.936,8.407-5.303,12.924c-6.071,20.067-14.732,39.761-28.709,54.001c-7.478,7.618-16.315,13.508-23.242,21.761
					C731.333,325.361,728.797,332.443,732.791,335.462"/>
			</g>
		</g>
	</g>
</g>
<g>
	<g opacity="0.5">
		<g>
			<g>
				<g>
					<defs>
						<rect id="SVGID_5_" x="722.195" y="151.099" width="6.908" height="28.833"/>
					</defs>
					<clipPath id="SVGID_6_">
						<use xlink:href="#SVGID_5_"  overflow="visible"/>
					</clipPath>
					<path clip-path="url(#SVGID_6_)" fill="#1A2C3F" d="M728.636,179.933c0,0-0.408-0.275-1.043-0.814
						c-0.322-0.258-0.692-0.61-1.092-1.084c-0.204-0.227-0.409-0.483-0.635-0.755c-0.21-0.274-0.398-0.578-0.615-0.892
						c-0.437-0.625-0.828-1.357-1.207-2.163c-0.402-0.796-0.692-1.7-1.006-2.638c-0.246-0.957-0.522-1.958-0.629-3.009
						c-0.062-0.522-0.166-1.047-0.162-1.586l-0.027-0.805l-0.014-0.404l-0.006-0.202l-0.003-0.102l-0.003-0.05v-0.024l0.004-0.134
						c0.076-0.982,0.084-1.871,0.308-3.028c0.148-1.12,0.457-2.082,0.733-3.031c0.344-0.925,0.664-1.818,1.091-2.597
						c0.405-0.789,0.82-1.503,1.277-2.111c0.424-0.626,0.869-1.148,1.292-1.578c0.401-0.444,0.791-0.79,1.132-1.049
						c0.664-0.532,1.072-0.778,1.072-0.778s-0.105,0.534-0.342,1.368c-0.131,0.404-0.235,0.927-0.375,1.497
						c-0.146,0.562-0.308,1.188-0.438,1.879c-0.17,0.669-0.296,1.407-0.438,2.169c-0.168,0.749-0.234,1.568-0.385,2.374
						c-0.076,0.823-0.21,1.679-0.247,2.46c-0.083,0.726-0.1,1.784-0.145,2.734c0.008-0.212,0.002-0.052,0.005-0.097v0.01v0.02v0.04
						l0.001,0.082l0.001,0.161l0.003,0.324l0.003,0.646c-0.007,0.429,0.021,0.857,0.043,1.285c0.016,0.857,0.122,1.693,0.171,2.522
						c0.12,0.811,0.164,1.632,0.307,2.388c0.116,0.767,0.223,1.509,0.367,2.184c0.112,0.702,0.244,1.319,0.369,1.877
						c0.111,0.563,0.205,1.098,0.333,1.525C728.555,179.408,728.636,179.933,728.636,179.933"/>
				</g>
			</g>
		</g>
	</g>
	<g opacity="0.5">
		<g>
			<g>
				<g>
					<defs>
						<rect id="SVGID_7_" x="729.682" y="150.471" width="11.746" height="26.436"/>
					</defs>
					<clipPath id="SVGID_8_">
						<use xlink:href="#SVGID_7_"  overflow="visible"/>
					</clipPath>
					<path clip-path="url(#SVGID_8_)" fill="#1A2C3F" d="M732.077,176.907c0,0-0.306-0.399-0.73-1.13
						c-0.104-0.186-0.233-0.376-0.348-0.613c-0.1-0.248-0.21-0.516-0.325-0.803c-0.104-0.295-0.23-0.612-0.343-0.957
						c-0.093-0.337-0.179-0.691-0.26-1.067c-0.191-0.755-0.29-1.585-0.35-2.477c-0.049-0.447-0.05-0.903-0.026-1.369
						c0.015-0.466,0.015-0.951,0.065-1.433c0.118-0.96,0.25-1.962,0.525-2.935c0.133-0.486,0.241-0.991,0.429-1.461l0.562-1.508
						c0.4-0.843,0.737-1.638,1.297-2.543c0.495-0.907,1.059-1.637,1.588-2.375c0.58-0.688,1.117-1.366,1.704-1.921
						c0.573-0.571,1.128-1.083,1.678-1.502c0.529-0.446,1.063-0.785,1.523-1.09c0.454-0.316,0.886-0.538,1.232-0.723
						c0.706-0.36,1.127-0.525,1.127-0.525s-0.212,0.455-0.608,1.178c-0.216,0.346-0.434,0.809-0.711,1.293
						c-0.287,0.477-0.577,1.044-0.9,1.64c-0.334,0.586-0.672,1.231-1.027,1.9c-0.367,0.659-0.698,1.384-1.072,2.1
						c-0.34,0.735-0.727,1.49-1.02,2.216c-0.313,0.671-0.66,1.601-1.009,2.444c-0.009,0.02,0.059-0.139,0.029-0.067l-0.005,0.01
						l-0.007,0.018l-0.014,0.038l-0.022,0.074l-0.052,0.149l-0.102,0.297l-0.201,0.594c-0.15,0.388-0.26,0.79-0.378,1.186
						c-0.271,0.782-0.438,1.577-0.673,2.338c-0.159,0.771-0.392,1.521-0.521,2.245c-0.062,0.364-0.144,0.721-0.225,1.069
						c-0.072,0.347-0.109,0.684-0.172,1.015c-0.062,0.333-0.119,0.652-0.174,0.956c-0.029,0.292-0.08,0.581-0.115,0.853
						c-0.088,0.544-0.173,1.064-0.198,1.507C732.181,176.393,732.077,176.907,732.077,176.907"/>
				</g>
			</g>
		</g>
	</g>
	<g opacity="0.5">
		<g>
			<g>
				<g>
					<defs>
						<rect id="SVGID_9_" x="838.097" y="236.313" width="9.998" height="20.242"/>
					</defs>
					<clipPath id="SVGID_10_">
						<use xlink:href="#SVGID_9_"  overflow="visible"/>
					</clipPath>
					<path clip-path="url(#SVGID_10_)" fill="#1A2C3F" d="M846.609,236.313c0,0,0.173,0.347,0.442,0.961
						c0.142,0.303,0.286,0.688,0.413,1.16c0.144,0.469,0.3,1.008,0.383,1.599c0.115,0.595,0.189,1.248,0.228,1.948
						c0.053,0.699-0.006,1.438-0.028,2.209c-0.101,0.759-0.174,1.559-0.388,2.34c-0.163,0.824-0.436,1.502-0.748,2.394
						c-0.327,0.685-0.583,1.345-1.051,2.069c-0.41,0.73-0.893,1.311-1.354,1.888c-0.502,0.531-0.974,1.062-1.498,1.455
						c-0.507,0.416-0.999,0.784-1.5,1.04c-0.476,0.289-0.932,0.514-1.354,0.657c-0.411,0.172-0.772,0.296-1.089,0.348
						c-0.616,0.142-0.971,0.177-0.971,0.177s0.27-0.289,0.736-0.714c0.237-0.206,0.508-0.481,0.812-0.795
						c0.304-0.31,0.649-0.636,0.988-1.048c0.356-0.38,0.71-0.82,1.08-1.283c0.387-0.443,0.719-0.982,1.105-1.484
						c0.333-0.553,0.728-1.094,1.017-1.658c0.321-0.506,0.647-1.242,0.977-1.902c0.192-0.533,0.518-1.247,0.695-1.887
						c0.233-0.65,0.373-1.322,0.545-1.971c0.125-0.653,0.29-1.295,0.344-1.916c0.079-0.618,0.172-1.213,0.182-1.77
						c0.046-0.559,0.074-1.066,0.062-1.52c0.01-0.453,0.027-0.871-0.008-1.213C846.604,236.712,846.609,236.313,846.609,236.313"/>
				</g>
			</g>
		</g>
	</g>
	<g opacity="0.5">
		<g>
			<g>
				<g>
					<defs>
						<rect id="SVGID_11_" x="844.736" y="238.608" width="10.56" height="28.584"/>
					</defs>
					<clipPath id="SVGID_12_">
						<use xlink:href="#SVGID_11_"  overflow="visible"/>
					</clipPath>
					<path clip-path="url(#SVGID_12_)" fill="#1A2C3F" d="M849.165,238.608c0,0,0.418,0.291,1.097,0.851
						c0.351,0.265,0.734,0.644,1.147,1.159c0.214,0.253,0.44,0.523,0.682,0.809c0.224,0.297,0.412,0.633,0.635,0.977
						c0.211,0.351,0.453,0.709,0.649,1.109c0.184,0.409,0.374,0.834,0.57,1.271c0.212,0.433,0.356,0.908,0.502,1.4
						c0.146,0.488,0.301,0.993,0.422,1.517c0.179,1.057,0.407,2.161,0.396,3.312c0.1,1.148-0.071,2.312-0.172,3.479l-0.36,1.646
						c-0.076,0.48-0.317,1.084-0.507,1.639c-0.358,1.166-0.898,2.092-1.388,3.023c-0.271,0.447-0.564,0.863-0.853,1.266
						c-0.283,0.408-0.564,0.802-0.896,1.132c-0.313,0.337-0.621,0.661-0.918,0.979c-0.306,0.3-0.642,0.546-0.944,0.798
						c-0.312,0.234-0.595,0.481-0.89,0.674c-0.307,0.175-0.596,0.338-0.868,0.488c-0.53,0.321-1.017,0.541-1.438,0.664
						c-0.827,0.285-1.295,0.393-1.295,0.393s0.338-0.424,0.926-1.066c0.307-0.298,0.624-0.732,0.99-1.207
						c0.182-0.232,0.376-0.479,0.576-0.74c0.185-0.277,0.375-0.572,0.575-0.875c0.19-0.309,0.423-0.59,0.609-0.933
						c0.187-0.336,0.381-0.685,0.579-1.042c0.211-0.343,0.396-0.715,0.562-1.111c0.166-0.395,0.377-0.767,0.543-1.172
						c0.289-0.831,0.659-1.675,0.854-2.492c0.119-0.421,0.255-0.775,0.348-1.33l0.287-1.416c0.083-0.927,0.244-1.84,0.229-2.768
						c0.064-0.924-0.031-1.831-0.055-2.729c-0.033-0.443-0.12-0.873-0.158-1.309c-0.037-0.438-0.1-0.857-0.192-1.26
						c-0.079-0.411-0.157-0.812-0.232-1.2c-0.07-0.394-0.206-0.745-0.293-1.108c-0.097-0.36-0.188-0.707-0.275-1.039
						c-0.109-0.316-0.214-0.615-0.312-0.898c-0.192-0.57-0.367-1.111-0.578-1.525C849.346,239.123,849.165,238.608,849.165,238.608"
						/>
				</g>
			</g>
		</g>
	</g>
	<g opacity="0.5">
		<g>
			<g>
				<g>
					<defs>
						<rect id="SVGID_13_" x="710.268" y="154.894" width="18.836" height="28.474"/>
					</defs>
					<clipPath id="SVGID_14_">
						<use xlink:href="#SVGID_13_"  overflow="visible"/>
					</clipPath>
					<path clip-path="url(#SVGID_14_)" fill="#1A2C3F" d="M729.104,183.169c0,0-0.559,0.101-1.512,0.165
						c-0.238,0.006-0.498,0.045-0.791,0.029c-0.295-0.018-0.615-0.069-0.966-0.114c-0.35-0.046-0.723-0.119-1.125-0.189
						c-0.382-0.097-0.763-0.239-1.178-0.37c-0.406-0.146-0.851-0.281-1.271-0.487c-0.422-0.208-0.85-0.447-1.299-0.685
						c-0.46-0.224-0.877-0.539-1.312-0.853c-0.438-0.314-0.886-0.644-1.312-1.011c-0.824-0.772-1.702-1.568-2.432-2.542
						c-0.374-0.476-0.788-0.928-1.104-1.467l-0.504-0.785l-0.252-0.393l-0.126-0.197l-0.062-0.099l-0.032-0.05l-0.017-0.024
						l-0.063-0.119c-0.513-1.034-1.037-1.953-1.501-3.225c-0.512-1.196-0.808-2.347-1.122-3.47c-0.249-1.138-0.496-2.235-0.61-3.292
						c-0.133-1.055-0.219-2.05-0.229-2.975c-0.062-1.843,0.079-3.377,0.23-4.448c0.149-1.069,0.295-1.679,0.295-1.679
						s0.302,0.548,0.719,1.501c0.209,0.472,0.462,1.044,0.75,1.701c0.271,0.646,0.577,1.373,0.911,2.168
						c0.312,0.79,0.677,1.625,1.044,2.499c0.344,0.887,0.784,1.766,1.163,2.702c0.438,0.896,0.851,1.873,1.296,2.713
						c0.383,0.828,0.979,1.882,1.507,2.871l0.729,1.203c0.25,0.439,0.535,0.846,0.813,1.256c0.528,0.848,1.137,1.59,1.688,2.371
						c0.282,0.381,0.605,0.698,0.887,1.066c0.281,0.363,0.57,0.709,0.875,1.01c0.591,0.638,1.149,1.272,1.729,1.77
						c0.282,0.274,0.554,0.536,0.812,0.786c0.268,0.221,0.521,0.433,0.759,0.629c0.238,0.214,0.475,0.401,0.688,0.607
						c0.223,0.192,0.464,0.328,0.663,0.473C728.655,182.781,729.104,183.169,729.104,183.169"/>
				</g>
			</g>
		</g>
	</g>
</g>
<g>
	<g opacity="0.5">
		<g>
			<g>
				<g>
					<defs>
						<rect id="SVGID_15_" x="933.607" y="197.484" width="17.638" height="26.257"/>
					</defs>
					<clipPath id="SVGID_16_">
						<use xlink:href="#SVGID_15_"  overflow="visible"/>
					</clipPath>
					<path clip-path="url(#SVGID_16_)" fill="#1A2C3F" d="M934.506,200.413c-3.372,7.419,3.132,27.288,12.902,22.631
						c9.336-4.449-0.245-26.174-8.805-25.547C936.518,197.65,935.238,198.804,934.506,200.413"/>
				</g>
			</g>
		</g>
	</g>
	<g opacity="0.5">
		<g>
			<g>
				<g>
					<defs>
						<rect id="SVGID_17_" x="948.243" y="242.327" width="8.814" height="18.615"/>
					</defs>
					<clipPath id="SVGID_18_">
						<use xlink:href="#SVGID_17_"  overflow="visible"/>
					</clipPath>
					<path clip-path="url(#SVGID_18_)" fill="#1A2C3F" d="M952.312,242.353c-6.173-0.699-4.036,13.222-1.932,16.293
						c6.254,9.133,9.145-11.674,4.104-15.321C953.667,242.729,952.945,242.426,952.312,242.353"/>
				</g>
			</g>
		</g>
	</g>
	<g>
		<g opacity="0.5">
			<g>
				<g>
					<g>
						<defs>
							<rect id="SVGID_19_" x="899.98" y="147.22" width="28.963" height="35.949"/>
						</defs>
						<clipPath id="SVGID_20_">
							<use xlink:href="#SVGID_19_"  overflow="visible"/>
						</clipPath>
						<path clip-path="url(#SVGID_20_)" fill="#1A2C3F" d="M927.538,179.463c7.521-14.052-17.18-41.75-26.188-28.953
							c-3.143,4.469-0.271,14.669,2.586,18.743c4.521,6.443,9.951,13.417,17.239,13.894c1.338,0.089,2.729-0.072,3.899-0.804
							C926.122,181.688,926.919,180.617,927.538,179.463"/>
					</g>
				</g>
			</g>
		</g>
		<g opacity="0.5">
			<g>
				<g>
					<g>
						<defs>
							<rect id="SVGID_21_" x="647.8" y="307.578" width="12.141" height="9.854"/>
						</defs>
						<clipPath id="SVGID_22_">
							<use xlink:href="#SVGID_21_"  overflow="visible"/>
						</clipPath>
						<path clip-path="url(#SVGID_22_)" fill="#1A2C3F" d="M657.886,307.78c-3.448-0.812-7.264,0.856-9.311,4.082
							c-0.371,0.585-0.694,1.233-0.763,1.947c-0.151,1.596,1.066,3.041,2.446,3.454c1.38,0.411,2.849,0.015,4.188-0.536
							c2.605-1.063,5.31-3.205,5.48-6.316c0.028-0.521-0.021-1.062-0.267-1.502C659.295,308.24,658.572,307.943,657.886,307.78"/>
					</g>
				</g>
			</g>
		</g>
		<g opacity="0.5">
			<g>
				<g>
					<g>
						<defs>
							<rect id="SVGID_23_" x="666.848" y="281.787" width="17.51" height="19.215"/>
						</defs>
						<clipPath id="SVGID_24_">
							<use xlink:href="#SVGID_23_"  overflow="visible"/>
						</clipPath>
						<path clip-path="url(#SVGID_24_)" fill="#1A2C3F" d="M667.947,298.985c1.108,1.498,2.958,2.141,4.688,1.998
							c1.732-0.142,3.366-0.976,4.844-2c3.781-2.625,6.938-7.064,6.877-12.061c-0.018-1.222-0.25-2.5-0.959-3.427
							c-0.466-0.604-1.103-1.021-1.771-1.291c-1.974-0.797-4.213-0.392-6.093,0.653c-1.879,1.043-3.45,2.668-4.905,4.363
							c-1.372,1.604-2.695,3.342-3.366,5.436C666.59,294.75,666.681,297.274,667.947,298.985"/>
					</g>
				</g>
			</g>
		</g>
		<g opacity="0.5">
			<g>
				<g>
					<g>
						<defs>
							<rect id="SVGID_25_" x="684.889" y="259.589" width="7.781" height="11.641"/>
						</defs>
						<clipPath id="SVGID_26_">
							<use xlink:href="#SVGID_25_"  overflow="visible"/>
						</clipPath>
						<path clip-path="url(#SVGID_26_)" fill="#1A2C3F" d="M689.62,259.979c-1.984,1.114-3.573,3.092-4.357,5.424
							c-0.629,1.871-0.562,4.375,0.958,5.414c0.955,0.648,2.229,0.482,3.184-0.17c0.949-0.655,1.622-1.729,2.115-2.854
							c0.629-1.427,1.016-2.987,1.135-4.575c0.115-1.52-0.363-3.496-1.72-3.623C690.477,259.552,690.03,259.752,689.62,259.979"/>
					</g>
				</g>
			</g>
		</g>
	</g>
	<g opacity="0.5">
		<g>
			<g>
				<g>
					<defs>
						<rect id="SVGID_27_" x="769.818" y="143.145" width="28.553" height="12.871"/>
					</defs>
					<clipPath id="SVGID_28_">
						<use xlink:href="#SVGID_27_"  overflow="visible"/>
					</clipPath>
					<path clip-path="url(#SVGID_28_)" fill="#1A2C3F" d="M770.254,143.145c0,0,0.38,0.553,0.886,1.552
						c0.309,0.454,0.668,0.905,1.013,1.407c0.479,0.47,0.833,1.076,1.422,1.527c0.127,0.126,0.256,0.253,0.388,0.383l0.099,0.097
						l0.051,0.049l0.007,0.006c0.024,0.033-0.229-0.256-0.115-0.131l0.02,0.013l0.032,0.025l0.273,0.212
						c0.364,0.289,0.745,0.582,1.116,0.909c0.325,0.134,0.623,0.283,0.909,0.465c0.269,0.185,0.729,0.321,1.084,0.505
						c0.365,0.203,0.791,0.312,1.21,0.442l0.633,0.199l0.673,0.102c0.447,0.083,0.9,0.183,1.372,0.171
						c0.467,0,0.938,0.084,1.412,0.024c0.471-0.049,0.954-0.026,1.423-0.12c0.449-0.074,0.896-0.149,1.342-0.223
						c0.521-0.156,1.041-0.303,1.555-0.44c0.447-0.157,0.891-0.314,1.323-0.466c0.883-0.347,1.786-0.719,2.613-1.131
						c0.844-0.379,1.62-0.826,2.371-1.182c1.486-0.798,2.729-1.463,3.598-1.928c0.89-0.456,1.412-0.699,1.412-0.699
						s-0.354,0.493-0.997,1.326c-0.654,0.817-1.609,1.96-2.855,3.242c-0.634,0.633-1.322,1.313-2.125,1.961
						c-0.779,0.683-1.656,1.3-2.63,1.932c-0.501,0.298-1.036,0.604-1.556,0.883c-0.488,0.235-0.981,0.465-1.482,0.687l-0.095,0.042
						l-0.188,0.063l-0.22,0.07l-0.438,0.141l-0.886,0.277c-0.596,0.176-1.213,0.23-1.823,0.346c-0.608,0.139-1.238,0.094-1.859,0.12
						c-0.62,0.041-1.242-0.04-1.862-0.116l-0.923-0.127l-0.903-0.253c-0.602-0.177-1.202-0.311-1.758-0.628
						c-0.278-0.14-0.557-0.28-0.832-0.418c-0.272-0.129-0.538-0.282-0.813-0.511c-0.545-0.411-1.062-0.841-1.53-1.276
						c-0.319-0.389-0.611-0.79-0.897-1.172l-0.212-0.29l-0.024-0.035l-0.012-0.018c0.104,0.121-0.153-0.174-0.13-0.149l-0.007-0.013
						l-0.051-0.095l-0.098-0.19c-0.127-0.251-0.251-0.497-0.371-0.739c-0.508-0.943-0.678-1.958-0.871-2.776
						c-0.101-0.904-0.125-1.691-0.077-2.268C770.044,143.804,770.254,143.145,770.254,143.145"/>
				</g>
			</g>
		</g>
	</g>
</g>
<g opacity="0.5">
	<g>
		<g>
			<g>
				<defs>
					<rect id="SVGID_29_" x="247.303" y="118.952" width="9.649" height="8.313"/>
				</defs>
				<clipPath id="SVGID_30_">
					<use xlink:href="#SVGID_29_"  overflow="visible"/>
				</clipPath>
				<path clip-path="url(#SVGID_30_)" fill="#1A2C3F" d="M247.798,124.973c1.498,2.611,6.418,3.125,8.35,0.849
					c1.242-1.463,0.974-4.048-0.32-5.452c-1.295-1.404-3.32-1.711-5.052-1.161C247.403,120.281,246.666,122.997,247.798,124.973"/>
			</g>
		</g>
	</g>
</g>
<g>
	<g opacity="0.5">
		<g>
			<g>
				<g>
					<defs>
						<rect id="SVGID_31_" x="150.947" y="25.044" width="36.835" height="25.324"/>
					</defs>
					<clipPath id="SVGID_32_">
						<use xlink:href="#SVGID_31_"  overflow="visible"/>
					</clipPath>
					<path clip-path="url(#SVGID_32_)" fill="#1A2C3F" d="M187.459,33.952c-0.488-1.976-1.527-3.833-3.117-5.295
						c-5.741-5.272-15.312-4.083-21.571-0.821c-4.4,2.294-11.628,6.771-11.819,13.137c-0.273,9.081,10.344,9.884,16.007,9.213
						c5.675-0.672,12.591-1.489,17.225-5.516C187.301,41.961,188.393,37.737,187.459,33.952"/>
				</g>
			</g>
		</g>
	</g>
	<g opacity="0.5">
		<g>
			<g>
				<g>
					<defs>
						<rect id="SVGID_33_" x="116.471" y="44.684" width="17.083" height="16.634"/>
					</defs>
					<clipPath id="SVGID_34_">
						<use xlink:href="#SVGID_33_"  overflow="visible"/>
					</clipPath>
					<path clip-path="url(#SVGID_34_)" fill="#1A2C3F" d="M120.103,48.607c-2.79,2.679-4.597,6.292-3.082,9.8
						c1.114,2.582,4.097,3.205,6.365,2.794c3.965-0.72,8.114-3.838,9.722-8.09c1.219-3.223-0.099-7.984-3.485-8.373
						C126.16,44.342,122.665,46.149,120.103,48.607"/>
				</g>
			</g>
		</g>
	</g>
	<g opacity="0.5">
		<g>
			<g>
				<g>
					<defs>
						<rect id="SVGID_35_" x="93.846" y="72.938" width="10.074" height="10.183"/>
					</defs>
					<clipPath id="SVGID_36_">
						<use xlink:href="#SVGID_35_"  overflow="visible"/>
					</clipPath>
					<path clip-path="url(#SVGID_36_)" fill="#1A2C3F" d="M94.833,82.604c1.511,1.047,4.37,0.333,5.778-0.633
						c2.331-1.596,5.687-8.645,0.797-9.023c-1.12-0.085-2.22,0.38-3.192,1.012c-1.22,0.79-2.301,1.85-3.164,3.1
						c-0.567,0.821-1.05,1.756-1.17,2.787C93.719,81.248,94.13,82.117,94.833,82.604"/>
				</g>
			</g>
		</g>
	</g>
</g>
<g opacity="0.5">
	<g>
		<g>
			<g>
				<defs>
					<rect id="SVGID_37_" y="11.489" width="125.635" height="221.723"/>
				</defs>
				<clipPath id="SVGID_38_">
					<use xlink:href="#SVGID_37_"  overflow="visible"/>
				</clipPath>
				<path clip-path="url(#SVGID_38_)" fill="#1A2C3F" d="M82.536,45.124c-0.983,1.717-3.743,2.26-5.294,2.63
					c-4.446,1.062-8.98,0.806-13.472,1.32c-7.978,0.914-15.983,1.865-23.755,4.175C27.762,56.892,6.011,64.878,2.453,81.182
					c-0.932,4.265,0.229,9.34,3.546,11.666c2.518,1.765,5.724,1.674,8.645,1.087c8.125-1.635,15.373-6.549,22.955-10.216
					c5.04-2.438,10.238-4.649,15.621-5.917c1.826-0.431,6.275-2.034,8.035-1.127c7.027,3.628-7.92,12.829-10.289,14.759
					c-14.141,11.519-28.409,24.109-38.802,40.457c-5.174,8.139-12.949,19.92-12.1,30.467c0.756,9.375,8.259,15.555,15.701,9.289
					c5.479-4.614,8.013-13.21,11.804-19.437c1.103-1.812,3.473-8.855,6.299-6.145c2.666,2.555-1.604,10.538-2.372,13.283
					c-1.248,4.457-2.416,8.942-3.401,13.48c-1.923,8.854-3.18,17.951-2.95,27.089c0.239,9.496,3.48,35.52,16.396,33.143
					c12.138-2.232,7.124-27.854,7.57-36.555c0.832-16.23,3.495-32.247,6.251-48.177c6.914-39.965,32.675-77.667,62.419-100.738
					c4.332-3.359,9.46-8.589,7.372-14.016c-0.59-1.529-1.695-2.725-2.816-3.816C111.878,19.58,97.983,13.65,84.305,12.068
					c-8.724-1.008-19.493-1.25-27.325,3.927c-3.254,2.153-5.065,6.105-4.098,10.368c1.092,4.815,5.953,7.963,10.075,8.691
					c3.281,0.579,6.562,1.159,9.844,1.739c2.099,0.37,4.238,0.755,6.137,1.827c1.836,1.036,4.976,3.417,3.724,6.253
					C82.624,44.958,82.582,45.042,82.536,45.124"/>
			</g>
		</g>
	</g>
</g>
<g opacity="0.5">
	<g>
		<g>
			<g>
				<defs>
					<rect id="SVGID_39_" x="280.197" y="37.707" width="54.234" height="92.865"/>
				</defs>
				<clipPath id="SVGID_40_">
					<use xlink:href="#SVGID_39_"  overflow="visible"/>
				</clipPath>
				<path clip-path="url(#SVGID_40_)" fill="#1A2C3F" d="M307.251,37.782c0.583-0.048,1.169-0.074,1.758-0.075
					c4.023-0.014,8.948,5.668,4.298,10.736c-1.539,1.678-3.534,2.274-5.463,2.723c-3.834,0.89-8.898,1.475-11.101,6.491
					c7.093-1.991,14.543-2.812,21.498-0.029c6.956,2.781,13.355,9.681,15.6,19.247c1.205,5.13,0.699,11.896-2.759,14.343
					c-2,1.415-4.464,0.936-6.49-0.408c-2.024-1.346-3.721-3.459-5.467-5.417c-4.266-4.784-8.998-8.841-13.514-13.128
					c11.017,4.984,17.567,21.803,17.871,37.908c0.174,9.255-2.459,23.271-11.358,19.881c-2.322-0.884-4.343-3.204-5.404-6.211
					c-3.31-9.362,1.271-20.146-1.363-29.937c-2.392-8.895-6.714-17.225-13.201-20.935c-2.549-1.456-5.325-2.154-7.742-3.996
					c-2.418-1.84-4.513-5.323-4.184-9.128c0.245-2.827,1.74-5.108,3.262-7.012C290.1,44.576,298.29,38.517,307.251,37.782"/>
			</g>
		</g>
	</g>
</g>
<g opacity="0.5">
	<g>
		<g>
			<g>
				<defs>
					<rect id="SVGID_41_" x="131.636" y="253.121" width="118.344" height="78.691"/>
				</defs>
				<clipPath id="SVGID_42_">
					<use xlink:href="#SVGID_41_"  overflow="visible"/>
				</clipPath>
				<path clip-path="url(#SVGID_42_)" fill="#1A2C3F" d="M218.255,296.604c-8.768,4.914-19.166,3.506-28.871,1.98
					c10.882,4.184,22.37,5.659,33.773,6.743c6.875,0.653,28.741-1.392,26.688,12.566c-1.813,12.306-19.773,13.862-28.3,13.914
					c-17.875,0.116-34.789-9.129-50.108-18.573c-16.66-10.271-32.265-26.953-38.662-47.453c-0.879-2.823-1.551-5.896-0.839-8.783
					c2.755-11.159,14.745,5.049,17.94,7.527c12.813,9.943,27.804,16.315,43.267,18.396c5.997,0.807,27.4-3.551,30.139,4.514
					C224.533,291.123,221.398,294.843,218.255,296.604"/>
			</g>
		</g>
	</g>
</g>
<g opacity="0.5">
	<g>
		<g>
			<g>
				<defs>
					<rect id="SVGID_43_" x="243.721" y="116.298" width="7.407" height="13.853"/>
				</defs>
				<clipPath id="SVGID_44_">
					<use xlink:href="#SVGID_43_"  overflow="visible"/>
				</clipPath>
				<path clip-path="url(#SVGID_44_)" fill="#1A2C3F" d="M251.128,116.516c0,0-0.27,0.138-0.745,0.342
					c-0.248,0.084-0.518,0.247-0.806,0.413c-0.294,0.151-0.606,0.351-0.935,0.605c-0.344,0.215-0.652,0.537-0.982,0.84l-0.125,0.115
					l-0.063,0.057c-0.013,0.013,0.109-0.104,0.056-0.053l-0.004,0.006l-0.008,0.009l-0.015,0.021l-0.031,0.039l-0.25,0.324
					c-0.148,0.217-0.392,0.432-0.492,0.642c-0.204,0.403-0.425,0.773-0.577,1.275c-0.098,0.23-0.181,0.467-0.204,0.716l-0.119,0.623
					l0.002,0.952c-0.009,0.176,0.012,0.293,0.042,0.392l0.066,0.328c0.021,0.423,0.257,0.947,0.387,1.423
					c0.116,0.221,0.232,0.437,0.332,0.665c0.034,0.089,0.139,0.276,0.115,0.287l0.225,0.33c0.147,0.22,0.297,0.426,0.428,0.641
					c0.135,0.186,0.267,0.332,0.395,0.496c0.244,0.325,0.516,0.62,0.77,0.874c0.246,0.26,0.463,0.5,0.662,0.666
					c0.383,0.361,0.604,0.59,0.604,0.59l-0.007,0.02c0,0-0.287-0.052-0.792-0.184c-0.255-0.061-0.557-0.16-0.889-0.323
					c-0.341-0.143-0.728-0.312-1.125-0.616c-0.2-0.14-0.426-0.287-0.631-0.445c-0.184-0.157-0.358-0.338-0.546-0.514l-0.284-0.271
					l-0.314-0.415c-0.189-0.246-0.366-0.514-0.548-0.787c-0.261-0.627-0.637-1.166-0.776-1.996
					c-0.069-0.366-0.211-0.843-0.197-1.132l-0.022-0.95l-0.001-0.06l-0.001-0.03l0.006-0.166l0.026-0.142l0.055-0.283l0.113-0.563
					c0.055-0.385,0.196-0.727,0.352-1.056c0.238-0.685,0.704-1.283,1.132-1.837c0.215-0.271,0.404-0.405,0.613-0.596l0.304-0.257
					l0.135-0.12l0.094-0.056l0.184-0.108c0.243-0.14,0.479-0.274,0.708-0.406c0.228-0.124,0.477-0.168,0.696-0.25
					c0.226-0.068,0.434-0.143,0.64-0.191c0.213-0.022,0.416-0.043,0.604-0.063c0.376-0.049,0.688-0.051,0.938-0.007
					c0.507,0.062,0.799,0.117,0.799,0.117L251.128,116.516z"/>
			</g>
		</g>
	</g>
</g>
<g>
	<g opacity="0.5">
		<g>
			<g>
				<g>
					<defs>
						<rect id="SVGID_45_" x="220.709" y="1.595" width="6.031" height="16.256"/>
					</defs>
					<clipPath id="SVGID_46_">
						<use xlink:href="#SVGID_45_"  overflow="visible"/>
					</clipPath>
					<path clip-path="url(#SVGID_46_)" fill="#1A2C3F" d="M222.443,17.851c0,0-0.172-0.249-0.406-0.698
						c-0.125-0.223-0.255-0.498-0.401-0.815c-0.146-0.324-0.312-0.656-0.425-1.097c-0.123-0.43-0.229-0.913-0.333-1.43
						c-0.126-0.518-0.159-1.07-0.162-1.646c0.014-0.574-0.06-1.177,0.073-1.777c0.1-0.603,0.226-1.211,0.353-1.815
						c0.214-0.576,0.43-1.15,0.661-1.701c0.1-0.286,0.244-0.539,0.401-0.777c0.152-0.24,0.292-0.485,0.448-0.712
						c0.297-0.465,0.595-0.895,0.935-1.242c0.334-0.348,0.65-0.675,0.942-0.978c0.282-0.307,0.619-0.492,0.875-0.702
						c0.266-0.199,0.511-0.351,0.704-0.484c0.396-0.258,0.631-0.382,0.631-0.382s-0.117,0.273-0.337,0.718
						c-0.115,0.217-0.244,0.49-0.408,0.779c-0.155,0.297-0.365,0.601-0.524,0.981c-0.174,0.36-0.363,0.752-0.562,1.165
						c-0.232,0.383-0.405,0.824-0.565,1.283c-0.156,0.458-0.411,0.883-0.523,1.371c-0.126,0.483-0.274,0.958-0.424,1.432
						c-0.082,0.496-0.156,0.992-0.259,1.474c-0.124,0.478-0.09,0.987-0.168,1.461c-0.065,0.48-0.132,0.946-0.132,1.391
						c-0.026,0.447-0.059,0.877-0.112,1.288c-0.078,0.404-0.021,0.818-0.071,1.169c-0.022,0.355-0.045,0.666-0.082,0.926
						C222.514,17.548,222.443,17.851,222.443,17.851"/>
				</g>
			</g>
		</g>
	</g>
	<g opacity="0.5">
		<g>
			<g>
				<g>
					<defs>
						<rect id="SVGID_47_" x="225.856" width="15.212" height="19.446"/>
					</defs>
					<clipPath id="SVGID_48_">
						<use xlink:href="#SVGID_47_"  overflow="visible"/>
					</clipPath>
					<path clip-path="url(#SVGID_48_)" fill="#1A2C3F" d="M226.81,19.446c0,0-0.204-0.415-0.455-1.146
						c-0.14-0.364-0.265-0.799-0.345-1.375c-0.071-0.558-0.193-1.24-0.14-1.928c0.004-0.351,0.029-0.716,0.051-1.1
						c0.036-0.378,0.132-0.759,0.202-1.158c0.134-0.809,0.456-1.588,0.768-2.407c0.388-0.765,0.788-1.571,1.31-2.276
						c0.475-0.755,1.073-1.391,1.637-2.056c0.617-0.594,1.214-1.215,1.872-1.706c0.627-0.542,1.306-0.957,1.938-1.393
						c0.663-0.374,1.28-0.774,1.912-1.045c0.62-0.294,1.199-0.578,1.757-0.778c1.101-0.435,2.042-0.697,2.704-0.859
						C240.686,0.069,241.069,0,241.069,0s-0.312,0.267-0.862,0.703c-0.28,0.206-0.611,0.472-0.987,0.78
						c-0.384,0.289-0.814,0.616-1.266,0.998c-0.461,0.362-0.956,0.752-1.463,1.188c-0.517,0.422-1.025,0.904-1.57,1.369
						c-0.514,0.502-1.07,0.985-1.574,1.535c-0.529,0.525-1.012,1.101-1.501,1.667c-0.45,0.594-0.92,1.172-1.297,1.795
						c-0.429,0.591-0.715,1.251-1.067,1.844c-0.264,0.637-0.614,1.213-0.816,1.825c-0.122,0.296-0.256,0.583-0.364,0.872
						c-0.097,0.291-0.185,0.578-0.289,0.851c-0.225,0.556-0.333,1.055-0.487,1.528c-0.184,0.456-0.27,0.923-0.363,1.302
						C226.977,19.011,226.81,19.446,226.81,19.446"/>
				</g>
			</g>
		</g>
	</g>
</g>
<g>
	<g opacity="0.5">
		<g>
			<g>
				<g>
					<defs>
						<rect id="SVGID_49_" x="58.021" y="265.571" width="19.463" height="11.387"/>
					</defs>
					<clipPath id="SVGID_50_">
						<use xlink:href="#SVGID_49_"  overflow="visible"/>
					</clipPath>
					<path clip-path="url(#SVGID_50_)" fill="#1A2C3F" d="M58.021,273.017c0,0,0.094,0.027,0.271,0.078
						c0.17,0.055,0.435,0.147,0.746,0.225c0.304,0.095,0.69,0.156,1.112,0.258c0.43,0.074,0.913,0.13,1.425,0.186
						c1.034,0.09,2.221,0.066,3.468-0.068c0.624-0.09,1.262-0.168,1.902-0.318c0.638-0.146,1.283-0.303,1.906-0.521
						c0.15-0.047,0.696-0.248,0.905-0.354c0.118-0.061,0.234-0.12,0.357-0.174l0.398-0.221c0.521-0.328,1.044-0.674,1.526-1.096
						c0.978-0.816,1.867-1.771,2.655-2.607c0.79-0.836,1.47-1.571,1.974-2.065c0.5-0.498,0.817-0.762,0.817-0.762
						s-0.071,0.437-0.26,1.159c-0.186,0.722-0.481,1.738-0.969,2.92c-0.498,1.168-1.188,2.519-2.254,3.785
						c-0.523,0.638-1.161,1.234-1.875,1.748l-0.553,0.373l-0.64,0.338c-0.462,0.213-0.611,0.295-1.167,0.478
						c-1.569,0.515-3.202,0.665-4.708,0.545c-1.51-0.138-2.891-0.56-3.979-1.14c-0.547-0.291-1.015-0.622-1.412-0.934
						c-0.395-0.312-0.711-0.635-0.958-0.912c-0.261-0.258-0.397-0.516-0.518-0.666C58.079,273.104,58.021,273.017,58.021,273.017"/>
				</g>
			</g>
		</g>
	</g>
	<g opacity="0.5">
		<g>
			<g>
				<g>
					<defs>
						<rect id="SVGID_51_" x="58.446" y="272.692" width="22.081" height="16.455"/>
					</defs>
					<clipPath id="SVGID_52_">
						<use xlink:href="#SVGID_51_"  overflow="visible"/>
					</clipPath>
					<path clip-path="url(#SVGID_52_)" fill="#1A2C3F" d="M58.446,286.798c0,0,0.47-0.099,1.277-0.186
						c0.398-0.053,0.904-0.07,1.436-0.163c0.539-0.087,1.13-0.167,1.766-0.249c0.644-0.133,1.332-0.245,2.048-0.366
						c0.353-0.087,0.715-0.174,1.084-0.269c0.184-0.039,0.37-0.082,0.557-0.123l0.142-0.027l0.07-0.016l0.035-0.008l0.018-0.004
						l0.009-0.004c0.077-0.014-0.096,0.02-0.075,0.016l0.302-0.096c0.404-0.137,0.818-0.253,1.236-0.369
						c0.392-0.14,0.696-0.303,1.054-0.429c0.346-0.11,0.694-0.308,1.054-0.485c0.351-0.189,0.735-0.316,1.059-0.562l1.024-0.622
						c0.324-0.254,0.646-0.508,0.967-0.76c0.203-0.146,0.328-0.28,0.44-0.403l0.377-0.37c0.127-0.127,0.257-0.23,0.386-0.369
						l0.389-0.459c0.539-0.58,1.004-1.236,1.477-1.85c0.442-0.641,0.884-1.246,1.268-1.841c0.373-0.601,0.77-1.132,1.072-1.644
						c0.297-0.508,0.619-0.93,0.838-1.306c0.462-0.731,0.773-1.147,0.773-1.147s0.01,0.531-0.052,1.449
						c-0.069,0.916-0.231,2.217-0.616,3.752c-0.191,0.764-0.47,1.576-0.79,2.434c-0.366,0.835-0.747,1.729-1.304,2.58l-0.399,0.656
						c-0.152,0.217-0.34,0.438-0.514,0.658l-0.544,0.663c-0.19,0.229-0.379,0.435-0.542,0.569l-0.513,0.471l-0.258,0.238
						l-0.132,0.113l-0.066,0.057l-0.033,0.029l-0.136,0.104l-0.021,0.014l-1.31,0.851c-0.436,0.297-0.918,0.46-1.376,0.685
						c-0.456,0.225-0.927,0.403-1.437,0.536c-0.488,0.144-1.011,0.306-1.458,0.382c-0.429,0.062-0.852,0.12-1.271,0.163
						l-0.312,0.034c0.015-0.002-0.165,0.028-0.094,0.016H67.34h-0.021l-0.042,0.002H67.19h-0.167c-0.223,0-0.443-0.002-0.661-0.004
						c-0.434-0.014-0.857-0.025-1.27-0.039c-0.817-0.103-1.583-0.248-2.277-0.39c-0.702-0.185-1.332-0.424-1.876-0.62
						c-0.558-0.168-0.977-0.449-1.35-0.632C58.857,287.071,58.446,286.798,58.446,286.798"/>
				</g>
			</g>
		</g>
	</g>
	<g opacity="0.5">
		<g>
			<g>
				<g>
					<defs>
						<rect id="SVGID_53_" x="75.629" y="282.216" width="7.727" height="14.682"/>
					</defs>
					<clipPath id="SVGID_54_">
						<use xlink:href="#SVGID_53_"  overflow="visible"/>
					</clipPath>
					<path clip-path="url(#SVGID_54_)" fill="#1A2C3F" d="M81.136,282.216c0,0,0.208,0.205,0.527,0.586
						c0.159,0.188,0.345,0.432,0.517,0.766c0.184,0.326,0.399,0.705,0.54,1.138c0.17,0.433,0.315,0.917,0.428,1.446
						c0.133,0.529,0.156,1.104,0.207,1.709c-0.013,0.6-0.004,1.23-0.125,1.859c-0.047,0.317-0.087,0.639-0.187,0.949l-0.13,0.469
						l-0.066,0.234l-0.036,0.117l-0.018,0.058l-0.008,0.028l-0.006,0.017l-0.039,0.101c-0.226,0.521-0.375,0.979-0.764,1.601
						c-0.334,0.606-0.719,1.047-1.096,1.483c-0.411,0.398-0.802,0.787-1.237,1.055c-0.421,0.288-0.833,0.521-1.243,0.667
						c-0.392,0.179-0.774,0.271-1.121,0.315c-0.335,0.067-0.628,0.102-0.882,0.074c-0.494-0.012-0.77-0.076-0.77-0.076
						s0.192-0.267,0.519-0.625c0.163-0.176,0.348-0.406,0.552-0.66c0.206-0.25,0.428-0.521,0.65-0.834
						c0.237-0.285,0.459-0.627,0.697-0.959c0.247-0.327,0.45-0.719,0.699-1.068c0.202-0.389,0.464-0.768,0.624-1.121
						c0.184-0.286,0.423-0.871,0.65-1.354c-0.07,0.17-0.018,0.043-0.034,0.08l0.002-0.004l0.003-0.011l0.006-0.021l0.014-0.041
						l0.028-0.082l0.061-0.162l0.123-0.321c0.093-0.212,0.139-0.44,0.212-0.661c0.151-0.438,0.234-0.896,0.347-1.341
						c0.07-0.448,0.18-0.896,0.217-1.325c0.053-0.435,0.123-0.859,0.121-1.253c0.026-0.403,0.057-0.768,0.043-1.094
						c0.006-0.324,0.026-0.647-0.008-0.906C81.127,282.524,81.136,282.216,81.136,282.216"/>
				</g>
			</g>
		</g>
	</g>
</g>
<g>
	<g>
		<path fill="#FFFFFF" d="M216.715,118.332c0.376,0,0.759-0.021,1.116-0.155c1.117-0.422,1.709-1.883,1.625-3.202
			c-0.083-1.32-0.692-2.518-1.337-3.626c-0.614-1.053-1.315-2.112-2.322-2.666c-3.07-1.689-4.529,1.536-4.425,4.523
			c0.053,1.498,0.614,3.01,1.66,3.941C214.052,118.055,215.415,118.332,216.715,118.332"/>
		<path fill="#FFFFFF" d="M218.981,119.471c-0.484,0.388-0.861,0.922-1.189,1.478c-0.448,0.758-0.827,1.604-0.867,2.512
			c-0.035,0.806,0.2,1.598,0.523,2.317c0.292,0.646,0.656,1.25,1.083,1.792c0.835,1.057,1.951,1.893,3.2,2.078
			c1.247,0.184,2.618-0.379,3.285-1.577c0.417-0.747,0.533-1.658,0.545-2.539c0.026-1.973-0.482-4.044-1.754-5.409
			C222.536,118.758,220.41,118.323,218.981,119.471"/>
		<path fill="#FFFFFF" d="M229.931,137.773c0.639,0.075,1.341-0.012,1.819-0.497c0.377-0.382,0.557-0.962,0.594-1.531
			c0.149-2.327-1.948-4.601-3.818-5.231c-2.333-0.786-3.564,1.749-2.614,4.041C226.639,136.306,228.219,137.572,229.931,137.773"/>
		<g opacity="0.5">
			<g>
				<g>
					<g>
						<defs>
							<rect id="SVGID_55_" x="50.649" y="10.801" width="247.692" height="351.015"/>
						</defs>
						<clipPath id="SVGID_56_">
							<use xlink:href="#SVGID_55_"  overflow="visible"/>
						</clipPath>
						<path clip-path="url(#SVGID_56_)" fill="#4979BF" d="M201.179,324.674c7.539,5.479,15.156,10.832,22.914,15.909
							c4.756,3.111,25.267,12.949,10.218,16.886c-26.836,7.021-55.829,5.45-82.012-4.129
							c-36.302-13.277-61.737-44.907-79.502-81.671c-19.825-41.035-26.032-84.263-19.858-130.534
							c5.633-42.217,28.858-78.659,60.394-101.745c31.579-23.117,70.88-33.285,108.198-26.537
							c20.025,3.62,39.312,12.553,53.584,29.163c19.622,22.839,32.403,55.61,15.065,85.13
							c-12.455,21.206-40.312,29.145-58.013,10.91c-7.686-7.917-11.153-19.513-18.371-27.876c-1.292-1.499-3.058-2.951-4.851-2.402
							c-1.636,0.501-2.567,2.579-2.507,4.483c0.059,1.903,0.877,3.661,1.715,5.317c3.649,7.206,8.027,13.912,12.572,20.444
							c3.521,5.059,3.047,12.335-3.163,14.607c-10.701,3.913-23.242-12.356-29.166-20.415c-8.125-11.054-21.79-8.221-31.302-1.215
							c-35.67,26.27-38.862,85.486-17.9,123.404c12.312,22.27,28.653,41.925,46.617,58.559
							C187.344,314.383,193.45,319.061,201.179,324.674"/>
					</g>
				</g>
			</g>
		</g>
		<path fill="#FFFFFF" d="M249.923,124.973c1.498,2.611,6.417,3.125,8.35,0.849c1.242-1.463,0.974-4.048-0.321-5.452
			c-1.295-1.404-3.32-1.711-5.051-1.161C249.527,120.281,248.791,122.997,249.923,124.973"/>
	</g>
	<g opacity="0.5">
		<g>
			<g>
				<g>
					<defs>
						<rect id="SVGID_57_" x="272.226" y="55.3" width="16.795" height="25.208"/>
					</defs>
					<clipPath id="SVGID_58_">
						<use xlink:href="#SVGID_57_"  overflow="visible"/>
					</clipPath>
					<path clip-path="url(#SVGID_58_)" fill="#1A2C3F" d="M276.382,55.3c0,0-0.106,0.587-0.321,1.573
						c-0.2,0.978-0.489,2.37-0.724,3.999c-0.108,0.819-0.205,1.693-0.268,2.606c-0.043,0.916-0.068,1.866-0.007,2.832
						c0.074,0.963,0.173,1.945,0.4,2.909c0.227,0.962,0.492,1.933,0.898,2.848l0.139,0.351l0.017,0.044l0.004,0.01
						c-0.077-0.151-0.019-0.035-0.034-0.066l0.013,0.023l0.047,0.093l0.094,0.187c0.125,0.229,0.258,0.536,0.373,0.702
						c0.116,0.171,0.223,0.349,0.328,0.529l0.412,0.546c0.579,0.705,1.234,1.347,1.949,1.888c0.718,0.533,1.463,1.012,2.225,1.367
						c0.746,0.396,1.492,0.707,2.194,0.962c0.705,0.256,1.363,0.482,1.958,0.648c0.595,0.164,1.118,0.322,1.556,0.419
						c0.882,0.216,1.386,0.34,1.386,0.34s-0.507,0.13-1.411,0.254c-0.905,0.129-2.213,0.211-3.801,0.063
						c-0.79-0.094-1.652-0.229-2.558-0.479c-0.903-0.255-1.838-0.651-2.79-1.148c-0.941-0.522-1.872-1.228-2.708-2.112l-0.61-0.698
						c-0.198-0.272-0.396-0.549-0.585-0.832c-0.194-0.285-0.288-0.494-0.438-0.745l-0.102-0.181l-0.051-0.091l-0.088-0.178
						l-0.193-0.421c-0.524-1.12-0.906-2.334-1.151-3.555c-0.269-1.22-0.323-2.461-0.306-3.635c0.025-1.18,0.194-2.295,0.413-3.322
						c0.237-1.021,0.52-1.958,0.861-2.778c0.333-0.824,0.66-1.555,1.009-2.168c0.333-0.617,0.654-1.137,0.941-1.547
						C276.006,55.72,276.382,55.3,276.382,55.3"/>
				</g>
			</g>
		</g>
	</g>
	<g opacity="0.5">
		<g>
			<g>
				<g>
					<defs>
						<rect id="SVGID_59_" x="285.336" y="116.204" width="4.138" height="5.389"/>
					</defs>
					<clipPath id="SVGID_60_">
						<use xlink:href="#SVGID_59_"  overflow="visible"/>
					</clipPath>
					<path clip-path="url(#SVGID_60_)" fill="#1A2C3F" d="M285.461,120.33c0.409,1.212,1.75,1.842,2.915,0.543
						c0.976-1.091,1.861-3.901,0.051-4.593c-1.139-0.436-2.305,1.097-2.79,2.058C285.282,119.035,285.264,119.749,285.461,120.33"/>
				</g>
			</g>
		</g>
	</g>
	<g opacity="0.5">
		<g>
			<g>
				<g>
					<defs>
						<rect id="SVGID_61_" x="288.431" y="104.463" width="5.822" height="8.572"/>
					</defs>
					<clipPath id="SVGID_62_">
						<use xlink:href="#SVGID_61_"  overflow="visible"/>
					</clipPath>
					<path clip-path="url(#SVGID_62_)" fill="#1A2C3F" d="M288.996,107.255c-0.993,1.942-0.813,5.375,1.646,5.751
						c2.417,0.369,3.475-2.859,3.6-4.989c0.064-1.085-0.142-2.261-0.913-2.995C291.61,103.383,289.779,105.724,288.996,107.255"/>
				</g>
			</g>
		</g>
	</g>
	<g opacity="0.5">
		<g>
			<g>
				<g>
					<defs>
						<rect id="SVGID_63_" x="291.664" y="95.525" width="2.611" height="4.554"/>
					</defs>
					<clipPath id="SVGID_64_">
						<use xlink:href="#SVGID_63_"  overflow="visible"/>
					</clipPath>
					<path clip-path="url(#SVGID_64_)" fill="#1A2C3F" d="M294.187,98.631c0.125-0.621,0.138-1.289-0.085-1.874
						c-0.808-2.117-2.423-1.259-2.437,0.701c-0.004,0.605,0.007,1.233,0.249,1.774c0.241,0.541,0.783,0.961,1.306,0.819
						C293.764,99.904,294.063,99.244,294.187,98.631"/>
				</g>
			</g>
		</g>
	</g>
</g>
<g>
	<path fill="none" stroke="#8ABFBE" stroke-width="3" stroke-linecap="round" stroke-miterlimit="10" d="M985.762,335.021
		c8.223,3.569,12.972,7.771,12.945,12.241c-0.071,12.565-39.646,22.437-83.992,22.121c-46.32-0.327-83.812-10.758-83.742-23.299
		c0.021-3.136,2.381-6.108,6.642-8.796c0,0,3.316-2.688,10.48-3.879"/>
	<path fill="none" stroke="#8ABFBE" stroke-width="3.6796" stroke-linecap="round" stroke-miterlimit="10" d="M895.354,381.992
		c-50.4-2.877-88.613-15.546-88.529-30.461c0.025-4.188,3.061-8.154,8.527-11.742"/>
	<path fill="none" stroke="#8ABFBE" stroke-width="3.4193" stroke-linecap="round" stroke-miterlimit="10" d="M1005.469,337.306
		c10.553,4.128,16.65,8.979,16.622,14.13c-0.089,15.425-27.853,22.161-65.347,24.462"/>
</g>
<g>
	<path fill="none" stroke="#8ABFBE" stroke-width="3" stroke-linecap="round" stroke-miterlimit="10" d="M91.98,353.84
		c-5.881,2.813-9.103,5.818-9.04,8.881c0.259,12.248,53.004,20.776,117.81,19.052c64.803-1.729,117.128-13.057,116.871-25.305
		c-0.13-6.165-13.554-11.387-35.117-14.832c0,0-25.883-3.384-32.523-3.863"/>
	<path fill="none" stroke="#8ABFBE" stroke-width="2.5" stroke-linecap="round" stroke-miterlimit="10" d="M130.23,351.505
		c-3.499,1.675-5.416,3.462-5.378,5.283c0.155,7.286,31.534,12.36,70.088,11.331c38.554-1.027,69.683-7.767,69.53-15.051
		c-0.078-3.668-8.064-6.776-20.893-8.825c0,0-3.557-0.465-7.69-0.98"/>
	<path fill="none" stroke="#8ABFBE" stroke-width="3" stroke-linecap="round" stroke-miterlimit="10" d="M324.975,337.771
		c32.831,5.245,53.269,13.192,53.467,22.581c0.393,18.649-79.273,35.895-177.938,38.521"/>
</g>
<g>
	<path fill="none" stroke="#8ABFBE" stroke-width="3.3781" stroke-linecap="round" stroke-miterlimit="10" d="M566.393,325.248
		c-12.759,5.27-20.164,11.572-20.202,18.386c-0.106,19.154,60.854,35.048,129.356,35.529"/>
	<path fill="none" stroke="#8ABFBE" stroke-width="3" stroke-linecap="round" stroke-miterlimit="10" d="M768.911,330.35
		c8.804,3.551,13.798,7.522,13.706,11.603c-0.283,12.357-47.157,21.034-104.698,19.374c-57.54-1.658-103.958-13.021-103.676-25.383
		c0.174-7.546,17.716-13.721,44.453-17.006"/>
</g>
<path fill="none" stroke="#8ABFBE" stroke-width="2.8111" stroke-linecap="round" stroke-miterlimit="10" d="M247.303,345.632"/>
</svg>
