<?xml version="1.0" encoding="utf-8"?>
<!-- Generator: Adobe Illustrator 16.0.0, SVG Export Plug-In . SVG Version: 6.00 Build 0)  -->
<!DOCTYPE svg PUBLIC "-//W3C//DTD SVG 1.1//EN" "http://www.w3.org/Graphics/SVG/1.1/DTD/svg11.dtd">
<svg version="1.1" xmlns="http://www.w3.org/2000/svg" xmlns:xlink="http://www.w3.org/1999/xlink" x="0px" y="0px"
	 width="1049.999px" height="275px" viewBox="0 0 1049.999 275" enable-background="new 0 0 1049.999 275" xml:space="preserve">
<g id="Layer_1">
</g>
<g id="Layer_6">
	<g>
		<path fill="#ED9888" d="M1030.504,0.044c-0.036,0.041-0.058,0.076-0.091,0.116c0.033-0.014,0.057-0.027,0.095-0.041
			L1030.504,0.044z"/>
		<path fill="#ED9888" d="M138.567,1.188c0.029,0.017,0.037,0.037,0.062,0.055c-0.022-0.044-0.038-0.085-0.063-0.13L138.567,1.188z"
			/>
	</g>
	<path fill="#ED9888" d="M1037.376,5.773c-7.711-1.66-13.204-1.952-9.967-5.773c-0.328,0.139-0.416,0.284-0.621,0.449
		c-1.444,1.177-1.41,2.922,0.705,4.021c1.908,0.988,5.72,1.775,8.668,2.36c2.853,0.565,7.156,1.282,8.502,2.427
		c1.028,0.874-3.27,1.057-4.852,1.239c-3.042,0.353-6.353,0.814-9.557,0.904c-2.913,0.084-5.961,0.073-8.757,0.292
		c-1.577,0.125-2.814,0.282-4.341,0.353c-1.974,0.093-4.016,0.218-6.032,0.325c-0.98,0.051-1.955,0.097-2.952,0.124
		c-1.271,0.035-3.147,0.286-4.281,0.162l-0.764,0.137c-0.363,0.211-2.056,0.205-2.842,0.272c-1.963,0.169-4.087,0.343-5.989,0.582
		c-2.087,0.263-2.832,1.233-2.129,1.905c0.109,0.104,1.124,0.546,1.058,0.629c-0.135,0.163-1.452,0.263-1.869,0.308
		c-1.679,0.182-3.528,0.184-5.163,0.412c-1.188,0.167-2.073,0.45-3.355,0.556c-2.88,0.239-5.891,0.024-8.736,0.347
		c-4.276,0.483-7.116,1.731-11.379,2.3c-0.286,0.904,1.952,1.202,3.882,1.719c9.58,2.567,23.538,3.178,35.555,3.594
		c2.726,0.094,24.871,0.529,19.565,3.317c-2.319,1.217-12.799,1.627-16.775,1.955c-6.026,0.499-12.669,0.699-18.622,1.3
		c-3.764,0.379-7.109,0.966-11.092,1.245c-5.762,0.403-11.41,0.586-17.148,1.162c-4.865,0.489-12.524,0.85-17.033,1.683
		c-3.588,0.664-7.198,2.509-8.359,3.795c-1.642,1.82,4.047,4.679,10.684,7.213c6.822,3.4,16.9,6.408,31.447,8.271
		c38.237,4.895,27.05,12.463-49.434,12.08c0,0-135.244-0.414-140.843,38.128c0,0,1.897,13.567,16.365,18.789
		c0.101,0.039,27.364,10.851,39.963,21.354c0.001,0.001,0.001,0.001,0.002,0.002c10.249,9.368,15.436,21.019,0.697,32.538
		c-20.619,14.18-72.579,16.579-73.728,16.631c-126.888,3.549-516.833,11.851-578.371-18.039
		c-69.489-36.402-23.319-84.732,2.798-92.379c26.115-7.646-21.921-14.217-21.921-14.217s-15.493-2.404,9.178-15.847
		c0.007-0.001,1.466-0.368,2.535-0.959c0.034-0.009,0.081-0.008,0.111-0.019c0.534-0.179,0.299-0.593,0.454-1.081
		c0.003-0.002-0.517-0.004-0.517-0.005s0-0.002,0-0.003c0-0.779,0.688-1.746,0.731-2.274c0.199-2.367-0.271-4.053,2.919-5.772
		c3.061-1.651,9.91-2.699,8.06-6.103c-0.682-1.252-2.65-2.99-4.627-3.55c-2.484-0.703-6.63-0.844-9.296-1.193
		c-3.141-0.411-6.206-0.431-9.354-0.67c-2.177-0.165-4.009-0.653-6.07-0.926c-3.261-0.429-6.877-0.438-10.172-0.763
		c-2.175-0.215-7.888-0.323-9.197-1.473c-2.993-2.632,9.035-3.703,10.515-3.875c6.517-0.761,14.084-1.77,19.195-4.609
		c1.03-0.572,2.237-0.934,2.045-1.829c-2.339-0.445-3.932-1.61-6.277-1.972c-1.561-0.239-3.189,0.061-4.763-0.095
		c-0.703-0.068-1.195-0.325-1.845-0.459c-0.898-0.182-1.905-0.13-2.824-0.264c-0.229-0.033-0.949-0.095-1.028-0.254
		c-0.04-0.08,0.495-0.552,0.551-0.658c0.355-0.69-0.086-1.64-1.231-1.842c-1.044-0.184-2.206-0.299-3.279-0.41
		c-0.43-0.045-1.351,0.01-1.558-0.19l-0.42-0.115c-0.611,0.156-1.642-0.039-2.334-0.038c-0.543,0.001-1.075-0.017-1.61-0.039
		c-1.1-0.05-2.217-0.117-3.292-0.151c-0.832-0.027-1.511-0.149-2.375-0.229c-1.529-0.139-3.187-0.041-4.772-0.04
		c-1.744,0-3.564-0.364-5.231-0.629c-0.866-0.138-3.211-0.197-2.686-1.1c0.688-1.182,3-2.021,4.531-2.669
		c1.578-0.669,3.622-1.564,4.622-2.606c1.109-1.158,1.06-2.902,0.228-4.037c-0.113-0.153-0.179-0.289-0.346-0.413
		c1.888,3.706-1.084,4.159-5.207,6.036c-1.999,0.909-8.353,3.425-6.304,5.261c1.234,1.104,6.665,1.043,8.456,1.117
		c4.727,0.194,9.196,0.614,13.895,1.086c2.223,0.223,6.817,0.132,5.206,1.824c-1.113,1.17-4.029,0.589,0.251,1.713
		c1.942,0.511,3.22,1.053,1.575,2.295c-0.45,0.338-2.523,0.735-3.162,0.871c-3.38,0.722-6.9,1.133-10.286,1.898
		c-3.185,0.72-6.039,1.628-8.974,2.655c-2.417,0.845-6.075,1.865-5.874,4.014c3.241,0.959,7.414,1.197,10.921,1.547
		c3.979,0.396,7.657,1.039,11.543,1.729c7.126,1.266,15.067,1.608,21.657,3.852c2.266,0.771,5.262,1.348,4.692,3.39
		c-0.444,1.593-2.978,1.604-4.07,2.712c-0.743,0.753-0.269,1.362-0.517,2.221c-0.436,1.506-2.674,3.215-4.383,4.246
		c-0.649,0.393-1.416,0.854-2.21,1.294l-1.795,0.901c-0.26,0.117-0.523,0.243-0.772,0.337c0.026,0.004,0.053,0.005,0.08,0.01
		l-0.181,0.092l-0.06-0.003c-25,13.656-48.912,22.915-24.422,23.747c26.105,0.887,47.558,1.948-25.587,29.225
		c0,0-15.58,3.627-66.996,25.45c0,0-119.838,62.996,17.614,115.031c0,0,160.58,37.963,374.733,27.562
		c214.154-10.399,294.435-34.78,370.767-39.767c201.382-13.154,71.777-111.955,47.655-126.059
		C830.46,90.587,966.898,81.478,966.898,81.478c49.771-2.606,56.341-26.395,34.001-29.906c-21.652-3.404-34.652-7.724-40.258-11.461
		c1.069-1.118,4.416-1.797,7.445-2.454c11.936-2.59,26.485-3.35,39.477-4.989c7.082-0.895,13.785-1.73,21.059-2.335
		c6.414-0.534,14.058-0.993,19.936-2.122c0.219-2.156-6.568-2.983-11.063-3.699c-5.46-0.871-10.763-1.629-16.655-2.181
		c-6.271-0.586-12.759-0.811-19.012-1.354c-1.181-0.102-22.306-0.389-23.155-0.703c-3.109-1.153,16.49-1.764,20.018-2.375
		c7.775-1.35,2.471-0.614,0.339-1.725c-3.078-1.605,5.363-1.756,9.428-2.098c8.589-0.719,16.759-1.373,25.42-1.816
		c3.285-0.168,13.255-0.394,15.44-1.562C1052.946,8.756,1041.105,6.576,1037.376,5.773z"/>
</g>
</svg>
