<?xml version="1.0" encoding="utf-8"?>
<!-- Generator: Adobe Illustrator 16.0.0, SVG Export Plug-In . SVG Version: 6.00 Build 0)  -->
<!DOCTYPE svg PUBLIC "-//W3C//DTD SVG 1.1//EN" "http://www.w3.org/Graphics/SVG/1.1/DTD/svg11.dtd">
<svg version="1.1" id="Layer_1" xmlns="http://www.w3.org/2000/svg" xmlns:xlink="http://www.w3.org/1999/xlink" x="0px" y="0px"
	 width="206px" height="206px" viewBox="10.75 8.75 206 206" enable-background="new 10.75 8.75 206 206" xml:space="preserve">
<path fill="#67AE86" d="M114.25,214.75c-56.609,0-102.5-45.891-102.5-102.5c0-56.609,45.891-102.5,102.5-102.5
	c56.609,0,102.5,45.891,102.5,102.5C216.75,168.859,170.859,214.75,114.25,214.75"/>
<g id="Layer_1_1_">
</g>
<path fill="#FFFFFF" d="M110.75,208.75c-55.228,0-100-44.771-100-100c0-55.228,44.772-100,100-100c55.229,0,100,44.772,100,100
	C210.75,163.979,165.979,208.75,110.75,208.75"/>
<polygon opacity="0.4" fill="#71BF9C" enable-background="new    " points="110.7,117.454 105.873,107.797 115.527,107.797 "/>
<polygon opacity="0.4" fill="#71BF9C" enable-background="new    " points="100.654,120.654 91.023,115.773 98.78,110.021 "/>
<polygon opacity="0.4" fill="#71BF9C" enable-background="new    " points="91.601,128.102 80.948,126.354 86.609,118.529 "/>
<polygon opacity="0.4" fill="#71BF9C" enable-background="new    " points="88.315,137.096 77.74,139.268 80.233,129.938 "/>
<polygon opacity="0.4" fill="#71BF9C" enable-background="new    " points="133.895,137.096 144.469,139.268 141.977,129.938 "/>
<polygon opacity="0.4" fill="#71BF9C" enable-background="new    " points="129.698,128.005 140.352,126.256 134.689,118.434 "/>
<polygon opacity="0.4" fill="#71BF9C" enable-background="new    " points="121.516,120.879 130.92,115.579 122.917,110.175 "/>
<path fill="#71BF9C" d="M188.268,141.167c0-42.813-34.705-77.518-77.518-77.518c-42.812,0-77.519,34.705-77.519,77.518h0.05
	c-0.03,0.127-0.05,0.254-0.05,0.385c0,1.724,2.688,3.119,6.004,3.119c3.317,0,6.004-1.396,6.004-3.119
	c0-0.131-0.02-0.258-0.05-0.385h0.05c0-36.97,31.375-66.046,65.51-66.046s65.51,27.287,65.51,66.046h0.013
	c-0.002,0.047-0.013,0.091-0.013,0.138c0,1.723,2.688,3.118,6.005,3.118c3.315,0,6.004-1.396,6.004-3.118
	c0-0.047-0.01-0.091-0.014-0.138H188.268z"/>
<path opacity="0.8" fill="#71BF9C" enable-background="new    " d="M110.75,81.935c-32.493,0-58.834,26.34-58.834,58.834
	c0,1.724,2.041,3.119,4.557,3.119c2.516,0,4.557-1.396,4.557-3.119c0-28.06,23.813-50.126,49.72-50.126s49.721,20.708,49.721,50.126
	c0,1.724,2.041,3.119,4.557,3.119c2.518,0,4.558-1.396,4.558-3.119C169.584,108.275,143.243,81.935,110.75,81.935z"/>
<path opacity="0.6" fill="#71BF9C" enable-background="new    " d="M110.75,98.432c-23.711,0-42.933,19.22-42.933,42.933h0.013
	c0,1.25,1.491,2.264,3.329,2.264c1.839,0,3.33-1.014,3.33-2.264h-0.021c0-20.475,17.376-36.579,36.282-36.579
	c18.904,0,36.282,15.112,36.282,36.579h0.028c0,1.25,1.469,2.264,3.281,2.264s3.281-1.014,3.281-2.264h0.059
	C153.684,117.652,134.461,98.432,110.75,98.432z"/>
<path fill="#FFFFFF" d="M67.817,110.021c0-2.123,1.722-3.846,3.846-3.846l0,0c2.125,0,3.846,1.723,3.846,3.846l0,0
	c0,2.123-1.722,3.848-3.846,3.848l0,0C69.539,113.869,67.817,112.146,67.817,110.021L67.817,110.021z"/>
<path fill="#FFFFFF" d="M145.99,110.021c0-2.123,1.723-3.846,3.847-3.846l0,0c2.124,0,3.847,1.723,3.847,3.846l0,0
	c0,2.123-1.723,3.848-3.847,3.848l0,0C147.713,113.869,145.99,112.146,145.99,110.021L145.99,110.021z"/>
</svg>
