<?xml version="1.0" encoding="utf-8"?>
<!-- Generator: Adobe Illustrator 16.0.0, SVG Export Plug-In . SVG Version: 6.00 Build 0)  -->
<!DOCTYPE svg PUBLIC "-//W3C//DTD SVG 1.1//EN" "http://www.w3.org/Graphics/SVG/1.1/DTD/svg11.dtd">
<svg version="1.1" id="Layer_1" xmlns="http://www.w3.org/2000/svg" xmlns:xlink="http://www.w3.org/1999/xlink" x="0px" y="0px"
	 width="205px" height="206px" viewBox="-1 0 205 206" enable-background="new -1 0 205 206" xml:space="preserve">
<path fill="#67AE86" d="M103.5,207C46.891,207,1,161.109,1,104.5C1,47.891,46.891,2,103.5,2C160.109,2,206,47.891,206,104.5
	C206,161.109,160.109,207,103.5,207"/>
<g id="Layer_1_1_">
</g>
<g id="Mail_x5F_01">
	<circle fill="#FFFFFF" cx="100" cy="100" r="100"/>
	<polygon opacity="0.4" fill="#71BF9C" enable-background="new    " points="52.375,116.789 47.547,107.134 57.203,107.134 	"/>
	<polygon opacity="0.4" fill="#71BF9C" enable-background="new    " points="100,116.789 95.172,107.134 104.828,107.134 	"/>
	<polygon opacity="0.4" fill="#71BF9C" enable-background="new    " points="75.128,116.789 70.3,107.134 79.956,107.134 	"/>
	<polygon opacity="0.4" fill="#71BF9C" enable-background="new    " points="64.103,116.789 59.274,107.134 68.93,107.134 	"/>
	<polygon opacity="0.4" fill="#71BF9C" enable-background="new    " points="87.706,116.789 82.878,107.134 92.534,107.134 	"/>
	<polygon opacity="0.4" fill="#71BF9C" enable-background="new    " points="112.32,116.789 107.493,107.134 117.148,107.134 	"/>
	<polygon opacity="0.4" fill="#71BF9C" enable-background="new    " points="136.238,116.789 131.411,107.134 141.066,107.134 	"/>
	<polygon opacity="0.4" fill="#71BF9C" enable-background="new    " points="124.613,116.789 119.787,107.134 129.441,107.134 	"/>
	<polygon opacity="0.4" fill="#70BA81" enable-background="new    " points="147.838,116.789 143.01,107.134 152.666,107.134 	"/>
	<polygon opacity="0.4" fill="#71BF9C" enable-background="new    " points="147.838,116.789 143.01,107.134 152.666,107.134 	"/>
	<path fill="#71BF9C" d="M50.186,66.681l-0.525-0.033c-0.035-0.001-0.067-0.01-0.102-0.01c-0.008,0-0.016,0.002-0.024,0.002
		l-0.039-0.002l-0.009,0.007c-0.982,0.032-1.795,0.696-2.057,1.598l-0.013,0.01l-0.003,0.04c-0.047,0.181-0.081,0.367-0.081,0.562
		c0,0.081,0.016,0.156,0.023,0.234l-0.023,0.328v35.813h105.332V66.681H50.186z"/>
	<g>
		<path fill="#FFFFFF" d="M146.538,86.284c0,0.846-0.692,1.539-1.538,1.539h-12.82c-0.846,0-1.537-0.692-1.537-1.539v-12.53
			c0-0.846,0.691-1.539,1.537-1.539H145c0.846,0,1.538,0.692,1.538,1.539V86.284z"/>
	</g>
	
		<line opacity="0.6" fill="none" stroke="#FFFFFF" stroke-width="1.5385" stroke-linecap="round" stroke-miterlimit="10" enable-background="new    " x1="54.171" y1="74.523" x2="81.339" y2="74.523"/>
	
		<line opacity="0.6" fill="none" stroke="#FFFFFF" stroke-width="1.5385" stroke-linecap="round" stroke-miterlimit="10" enable-background="new    " x1="54.171" y1="78.369" x2="81.339" y2="78.369"/>
	
		<line opacity="0.6" fill="none" stroke="#FFFFFF" stroke-width="1.5385" stroke-linecap="round" stroke-miterlimit="10" enable-background="new    " x1="54.171" y1="82.215" x2="81.339" y2="82.215"/>
	<path opacity="0.6" fill="#71BF9C" enable-background="new    " d="M47.334,113.43v22.62l0.01,0.022
		c0.05,1.352,1.152,2.432,2.515,2.432c0.158,0-0.149,0.027,0,0h0.71h102.097v-33.512L47.334,113.43z"/>
</g>
</svg>
