<?xml version="1.0" encoding="utf-8"?>
<!-- Generator: Adobe Illustrator 16.0.0, SVG Export Plug-In . SVG Version: 6.00 Build 0)  -->
<!DOCTYPE svg PUBLIC "-//W3C//DTD SVG 1.1//EN" "http://www.w3.org/Graphics/SVG/1.1/DTD/svg11.dtd">
<svg version="1.1" id="Layer_1" xmlns="http://www.w3.org/2000/svg" xmlns:xlink="http://www.w3.org/1999/xlink" x="0px" y="0px"
	 width="208px" height="641px" viewBox="-1 0 208 641" enable-background="new -1 0 208 641" xml:space="preserve">
<g id="Layer_1_1_">
</g>
<g id="Background_x5F_01">
</g>
<g>
	<path fill="#67AE86" d="M103.5,641C46.891,641,1,595.109,1,538.5S46.891,436,103.5,436c56.609,0,102.5,45.891,102.5,102.5
		S160.109,641,103.5,641"/>
	<g id="Payment_x5F_01">
		<circle fill="#FFFFFF" cx="100" cy="534" r="100"/>
		<rect x="93.73" y="555.747" fill="#FFFFFF" width="15.385" height="29.006"/>
		<g>
			<path fill="#71BF9C" d="M100.318,588.025c-4.988,0-10.066-1.01-14.919-3.084c-11.634-4.969-18.861-15.118-18.861-26.486
				c0-4.674,3.788-8.462,8.461-8.462s8.461,3.788,8.461,8.462c0,6.734,6.572,10.064,8.586,10.925
				c6.042,2.581,14.839,2.604,20.866-3.161c2.77-2.65,4.154-6.025,3.799-9.26c-0.215-1.957-1.18-4.719-4.557-6.766
				c-2.653-1.605-6.125-2.553-9.801-3.558c-5.318-1.45-11.349-3.097-16.761-7.202c-6.001-4.554-9.553-11.762-9.744-19.774
				c-0.206-8.651,3.462-16.987,9.812-22.3c6.286-5.258,15.223-7.782,23.316-6.586c6.981,1.031,12.883,4.734,16.619,10.428
				c2.562,3.906-5.048-0.75-8.955,1.814c-3.906,2.562-2.631,11.377-5.195,7.469c-1.094-1.668-2.713-2.641-4.943-2.971
				c-3.358-0.498-7.371,0.639-9.984,2.826c-2.398,2.006-3.835,5.422-3.752,8.917c0.04,1.665,0.489,4.751,3.053,6.695
				c2.802,2.126,6.595,3.161,10.99,4.358c4.42,1.207,9.433,2.573,14.11,5.41c7.138,4.32,11.731,11.389,12.61,19.391
				c0.935,8.511-2.316,17.017-8.922,23.334C118.045,584.73,109.328,588.025,100.318,588.025z"/>
		</g>
		
			<line opacity="0.6" fill="none" stroke="#71BF9C" stroke-width="6.1538" stroke-linecap="round" stroke-miterlimit="10" enable-background="new    " x1="93.73" y1="474.096" x2="93.73" y2="599.096"/>
		
			<line opacity="0.6" fill="none" stroke="#71BF9C" stroke-width="6.1538" stroke-linecap="round" stroke-miterlimit="10" enable-background="new    " x1="106.795" y1="474.096" x2="106.795" y2="599.096"/>
		<g>
			<path fill="#71BF9C" d="M78.707,518.794c0,0-0.52-0.36-1.43-0.993c-0.453-0.311-1-0.68-1.676-1.252
				c-0.642-0.544-1.468-1.138-2.183-1.844c-0.735-0.707-1.587-1.43-2.363-2.309c-0.401-0.432-0.812-0.875-1.233-1.328
				c-0.404-0.467-0.793-0.965-1.203-1.461c-0.842-0.979-1.566-2.101-2.362-3.205c-0.705-1.161-1.49-2.312-2.104-3.564
				c-0.314-0.622-0.667-1.227-0.947-1.867c-0.281-0.642-0.562-1.279-0.839-1.914c-0.279-0.635-0.482-1.299-0.722-1.94
				c-0.24-0.642-0.453-1.286-0.618-1.94c-0.174-0.648-0.366-1.283-0.513-1.918c-0.126-0.645-0.249-1.275-0.369-1.889
				c-0.136-0.61-0.183-1.23-0.253-1.824c-0.057-0.597-0.146-1.167-0.164-1.73c-0.006-1.131-0.103-2.16-0.002-3.104
				c0.083-0.938,0.091-1.755,0.231-2.438c0.248-1.365,0.389-2.146,0.389-2.146l9.82,2.806c0,0-0.14,0.452-0.384,1.243
				c-0.15,0.388-0.194,0.925-0.333,1.509c-0.157,0.58-0.147,1.301-0.255,2.06c-0.04,0.384-0.014,0.799-0.028,1.222
				c0,0.426-0.034,0.865,0.021,1.326c0.032,0.462,0.065,0.936,0.1,1.421c0.051,0.486,0.146,0.984,0.215,1.494
				c0.06,0.511,0.166,1.026,0.296,1.548c0.129,0.521,0.216,1.061,0.379,1.587c0.315,1.06,0.634,2.144,1.069,3.197
				c0.368,1.08,0.91,2.092,1.371,3.126c0.554,0.984,1.037,2.001,1.648,2.898c0.293,0.457,0.569,0.916,0.861,1.352
				c0.31,0.423,0.612,0.837,0.907,1.24c0.565,0.832,1.218,1.517,1.771,2.199c0.557,0.703,1.111,1.183,1.58,1.703
				c0.438,0.494,0.956,0.944,1.376,1.312c0.829,0.734,1.302,1.154,1.302,1.154L78.707,518.794z"/>
		</g>
		<g>
			<path fill="#71BF9C" d="M78.179,516.762c-0.009-0.002-0.093,0.01-0.372,0.008c-0.279,0.004-0.638-0.008-1.086-0.026
				c-0.895-0.058-2.167-0.152-3.655-0.449c-0.754-0.117-1.543-0.344-2.396-0.541c-0.826-0.269-1.729-0.485-2.612-0.851
				c-0.447-0.172-0.9-0.346-1.36-0.523c-0.452-0.195-0.899-0.416-1.357-0.629c-0.929-0.402-1.801-0.941-2.699-1.447
				c-0.897-0.508-1.712-1.139-2.562-1.703c-0.813-0.607-1.567-1.266-2.323-1.879c-0.722-0.647-1.369-1.324-2.011-1.945
				c-0.659-0.61-1.142-1.293-1.663-1.873c-0.493-0.598-0.988-1.125-1.327-1.651c-0.362-0.515-0.678-0.963-0.938-1.332
				c-0.52-0.743-0.816-1.168-0.816-1.168l6.456-3.619c0,0,0.199,0.374,0.546,1.029c0.174,0.33,0.385,0.729,0.626,1.188
				c0.221,0.479,0.569,0.938,0.908,1.479c0.363,0.518,0.684,1.148,1.156,1.697c0.457,0.562,0.912,1.189,1.432,1.793
				c0.551,0.566,1.097,1.188,1.698,1.772c0.635,0.538,1.237,1.156,1.923,1.663c0.687,0.505,1.352,1.057,2.082,1.482
				c0.358,0.226,0.714,0.451,1.066,0.672c0.367,0.197,0.729,0.391,1.085,0.583c0.705,0.407,1.442,0.677,2.118,1.001
				c0.699,0.252,1.353,0.542,1.979,0.717c1.242,0.418,2.308,0.631,3.043,0.775c0.37,0.062,0.655,0.108,0.817,0.127
				c0.16,0.027,0.312,0.033,0.303,0.033L78.179,516.762z"/>
		</g>
		<path fill="#71BF9C" d="M121.273,498.675l4.186,2.367l8.311,7.274c1.847,1.426,2.188,4.078,0.765,5.925
			c-1.427,1.847-4.077,2.188-5.927,0.764c-0.137-0.106-0.281-0.235-0.402-0.354l-11.168-11.152c-1.258-1.255-1.26-3.291-0.003-4.548
			C118.189,497.79,120.012,497.699,121.273,498.675z"/>
		<path fill="#71BF9C" d="M116.646,503.016l4.459,6.823l3.959,6.06c1.274,1.953,0.728,4.569-1.227,5.848
			c-1.951,1.275-4.57,0.729-5.847-1.227c-0.099-0.147-0.194-0.322-0.271-0.479l-6.184-9.639l-0.493-4.228
			c-0.771-1.603-0.099-3.528,1.505-4.3C114.027,501.165,115.773,501.68,116.646,503.016z"/>
		<path fill="#FFFFFF" d="M116.139,505.445c0-2.123,1.721-3.846,3.846-3.846l0,0c2.123,0,3.847,1.723,3.847,3.846l0,0
			c0,2.125-1.724,3.847-3.847,3.847l0,0C117.859,509.292,116.139,507.57,116.139,505.445L116.139,505.445z"/>
		<g>
			<path fill="#71BF9C" d="M79.59,518.209c-0.01,0.008-0.034,0.044-0.241,0.227c-0.205,0.188-0.438,0.371-0.75,0.619
				c-0.315,0.221-0.693,0.512-1.15,0.773c-0.449,0.29-0.98,0.553-1.564,0.844c-0.595,0.244-1.239,0.557-1.952,0.751
				c-0.355,0.104-0.72,0.228-1.098,0.323c-0.381,0.077-0.771,0.156-1.167,0.238c-0.795,0.166-1.626,0.203-2.474,0.285
				c-0.834-0.017-1.712,0.049-2.551-0.057c-0.84-0.097-1.71-0.141-2.508-0.339c-0.805-0.179-1.634-0.301-2.364-0.56
				c-0.741-0.234-1.479-0.44-2.146-0.688c-0.654-0.271-1.272-0.525-1.844-0.761c-0.583-0.228-1.082-0.478-1.517-0.712
				c-0.441-0.229-0.825-0.426-1.142-0.59c-0.634-0.33-0.997-0.52-0.997-0.52l4.06-6.189c0,0,0.271,0.192,0.747,0.527
				c0.238,0.169,0.527,0.375,0.859,0.61c0.331,0.243,0.708,0.508,1.137,0.739c0.425,0.25,0.886,0.522,1.374,0.811
				c0.494,0.268,1.029,0.49,1.578,0.76c0.547,0.295,1.134,0.444,1.725,0.674c0.592,0.25,1.203,0.346,1.816,0.515
				c0.615,0.176,1.229,0.192,1.843,0.308c0.604,0.016,1.214,0.09,1.789,0.044c0.29-0.017,0.575-0.032,0.854-0.048
				c0.276-0.031,0.542-0.084,0.806-0.121c0.534-0.059,1.004-0.226,1.458-0.332c0.435-0.148,0.843-0.275,1.177-0.435
				c0.352-0.136,0.621-0.298,0.858-0.412c0.198-0.116,0.354-0.208,0.459-0.271c0.067-0.031,0.176-0.123,0.167-0.113L79.59,518.209z"
				/>
		</g>
	</g>
</g>
<g>
	<path fill="#67AE86" d="M103.5,207C46.891,207,1,160.887,1,104.002C1,47.119,46.891,1.005,103.5,1.005
		c56.609,0,102.5,46.114,102.5,102.997C206,160.887,160.109,207,103.5,207"/>
	<path fill="#FFFFFF" d="M100,200.971c-55.228,0-100-44.988-100-100.485C0,44.989,44.772,0,100,0c55.229,0,100,44.989,100,100.485
		C200,155.982,155.229,200.971,100,200.971"/>
	<polygon opacity="0.4" fill="#71BF9C" enable-background="new    " points="99.95,109.231 95.123,99.527 104.777,99.527 	"/>
	<polygon opacity="0.4" fill="#71BF9C" enable-background="new    " points="89.904,112.447 80.273,107.543 88.03,101.763 	"/>
	<polygon opacity="0.4" fill="#71BF9C" enable-background="new    " points="80.851,119.931 70.198,118.175 75.859,110.312 	"/>
	<polygon opacity="0.4" fill="#71BF9C" enable-background="new    " points="77.565,128.969 66.99,131.152 69.483,121.775 	"/>
	<polygon opacity="0.4" fill="#71BF9C" enable-background="new    " points="123.145,128.969 133.719,131.152 131.227,121.775 	"/>
	<polygon opacity="0.4" fill="#71BF9C" enable-background="new    " points="118.948,119.834 129.602,118.076 123.939,110.216 	"/>
	<polygon opacity="0.4" fill="#71BF9C" enable-background="new    " points="110.766,112.673 120.17,107.348 112.167,101.917 	"/>
	<path fill="#71BF9C" d="M177.518,133.061c0-43.021-34.705-77.895-77.518-77.895c-42.812,0-77.519,34.874-77.519,77.895h0.05
		c-0.03,0.127-0.05,0.254-0.05,0.387c0,1.732,2.688,3.135,6.004,3.135c3.317,0,6.004-1.402,6.004-3.135
		c0-0.133-0.02-0.26-0.05-0.387h0.05c0-37.15,31.375-66.367,65.51-66.367s65.51,27.419,65.51,66.367h0.013
		c-0.002,0.047-0.013,0.092-0.013,0.139c0,1.73,2.688,3.133,6.005,3.133c3.315,0,6.004-1.402,6.004-3.133
		c0-0.047-0.01-0.092-0.014-0.139H177.518z"/>
	<path opacity="0.8" fill="#71BF9C" enable-background="new    " d="M100,73.541c-32.493,0-58.834,26.468-58.834,59.12
		c0,1.732,2.041,3.135,4.557,3.135s4.557-1.402,4.557-3.135c0-28.196,23.813-50.37,49.72-50.37s49.721,20.809,49.721,50.37
		c0,1.732,2.041,3.135,4.557,3.135c2.519,0,4.559-1.402,4.559-3.135C158.834,100.009,132.493,73.541,100,73.541z"/>
	<path opacity="0.6" fill="#71BF9C" enable-background="new    " d="M100,90.118c-23.711,0-42.933,19.313-42.933,43.142h0.013
		c0,1.256,1.491,2.273,3.329,2.273c1.839,0,3.33-1.018,3.33-2.273h-0.021c0-20.575,17.376-36.758,36.282-36.758
		c18.904,0,36.282,15.186,36.282,36.758h0.028c0,1.256,1.469,2.273,3.28,2.273s3.281-1.018,3.281-2.273h0.06
		C142.934,109.431,123.711,90.118,100,90.118z"/>
	<path fill="#FFFFFF" d="M57.067,101.763c0-2.133,1.722-3.865,3.846-3.865l0,0c2.125,0,3.846,1.732,3.846,3.865l0,0
		c0,2.134-1.722,3.867-3.846,3.867l0,0C58.789,105.63,57.067,103.898,57.067,101.763L57.067,101.763z"/>
	<path fill="#FFFFFF" d="M135.24,101.763c0-2.133,1.723-3.865,3.847-3.865l0,0c2.124,0,3.847,1.732,3.847,3.865l0,0
		c0,2.134-1.723,3.867-3.847,3.867l0,0C136.963,105.63,135.24,103.898,135.24,101.763L135.24,101.763z"/>
</g>
<g>
	<path fill="#67AE86" d="M103.5,424C46.891,424,1,378.109,1,321.5S46.891,219,103.5,219S206,264.891,206,321.5
		S160.109,424,103.5,424"/>
	<g id="Mail_x5F_01">
		<circle fill="#FFFFFF" cx="100" cy="317" r="100"/>
		<polygon opacity="0.4" fill="#71BF9C" enable-background="new    " points="52.375,333.789 47.547,324.134 57.203,324.134 		"/>
		<polygon opacity="0.4" fill="#71BF9C" enable-background="new    " points="100,333.789 95.172,324.134 104.828,324.134 		"/>
		<polygon opacity="0.4" fill="#71BF9C" enable-background="new    " points="75.128,333.789 70.3,324.134 79.956,324.134 		"/>
		<polygon opacity="0.4" fill="#71BF9C" enable-background="new    " points="64.104,333.789 59.273,324.134 68.93,324.134 		"/>
		<polygon opacity="0.4" fill="#71BF9C" enable-background="new    " points="87.706,333.789 82.878,324.134 92.534,324.134 		"/>
		<polygon opacity="0.4" fill="#71BF9C" enable-background="new    " points="112.32,333.789 107.493,324.134 117.148,324.134 		"/>
		<polygon opacity="0.4" fill="#71BF9C" enable-background="new    " points="136.238,333.789 131.411,324.134 141.066,324.134 		
			"/>
		<polygon opacity="0.4" fill="#71BF9C" enable-background="new    " points="124.613,333.789 119.787,324.134 129.441,324.134 		
			"/>
		<polygon opacity="0.4" fill="#70BA81" enable-background="new    " points="147.838,333.789 143.01,324.134 152.666,324.134 		"/>
		<polygon opacity="0.4" fill="#71BF9C" enable-background="new    " points="147.838,333.789 143.01,324.134 152.666,324.134 		"/>
		<path fill="#71BF9C" d="M50.186,283.682l-0.524-0.033c-0.035-0.002-0.067-0.01-0.103-0.01c-0.008,0-0.016,0.002-0.023,0.002
			l-0.039-0.002l-0.01,0.006c-0.981,0.032-1.795,0.696-2.057,1.599l-0.013,0.01l-0.003,0.04c-0.047,0.182-0.081,0.367-0.081,0.562
			c0,0.08,0.017,0.155,0.022,0.233l-0.022,0.328v35.813h105.332v-38.549H50.186z"/>
		<g>
			<path fill="#FFFFFF" d="M146.538,303.284c0,0.846-0.692,1.539-1.538,1.539h-12.82c-0.846,0-1.537-0.692-1.537-1.539v-12.53
				c0-0.846,0.691-1.539,1.537-1.539H145c0.846,0,1.538,0.692,1.538,1.539V303.284z"/>
		</g>
		
			<line opacity="0.6" fill="none" stroke="#FFFFFF" stroke-width="1.5385" stroke-linecap="round" stroke-miterlimit="10" enable-background="new    " x1="54.171" y1="291.523" x2="81.339" y2="291.523"/>
		
			<line opacity="0.6" fill="none" stroke="#FFFFFF" stroke-width="1.5385" stroke-linecap="round" stroke-miterlimit="10" enable-background="new    " x1="54.171" y1="295.369" x2="81.339" y2="295.369"/>
		
			<line opacity="0.6" fill="none" stroke="#FFFFFF" stroke-width="1.5385" stroke-linecap="round" stroke-miterlimit="10" enable-background="new    " x1="54.171" y1="299.215" x2="81.339" y2="299.215"/>
		<path opacity="0.6" fill="#71BF9C" enable-background="new    " d="M47.334,330.43v22.62l0.01,0.022
			c0.051,1.352,1.152,2.432,2.516,2.432c0.158,0-0.149,0.027,0,0h0.709h102.098v-33.512L47.334,330.43z"/>
	</g>
</g>
</svg>
